<?xml version="1.0" standalone="no"?>
<!DOCTYPE svg PUBLIC "-//W3C//DTD SVG 20010904//EN"
 "http://www.w3.org/TR/2001/REC-SVG-20010904/DTD/svg10.dtd">
<svg version="1.0" xmlns="http://www.w3.org/2000/svg"
 width="1280.000000pt" height="676.000000pt" viewBox="0 0 1280.000000 676.000000"
 preserveAspectRatio="xMidYMid meet">
<metadata>
Created by potrace 1.15, written by Peter Selinger 2001-2017
</metadata>
<g transform="translate(0.000000,676.000000) scale(0.100000,-0.100000)"
fill="#000000" stroke="none">
<path d="M6905 6753 c-73 -18 17 -40 112 -28 73 9 89 15 71 26 -14 9 -148 10
-183 2z"/>
<path d="M12236 6741 c-4 -5 -2 -12 3 -15 5 -4 12 -2 15 3 4 5 2 12 -3 15 -5
4 -12 2 -15 -3z"/>
<path d="M7230 6731 c0 -6 27 -20 60 -32 61 -22 89 -43 72 -53 -6 -3 -70 -8
-143 -12 -158 -7 -235 -19 -243 -40 -4 -10 0 -14 11 -12 29 5 28 -31 -1 -42
-15 -5 -31 -21 -36 -35 -9 -24 -30 -35 -30 -15 0 6 -10 10 -21 10 -20 0 -21
-4 -16 -52 4 -29 9 -63 13 -75 5 -18 2 -23 -13 -23 -11 0 -32 9 -47 21 -23 18
-26 27 -27 87 0 37 -3 60 -6 52 -3 -8 -12 -31 -20 -50 l-15 -35 -23 65 c-13
35 -22 66 -21 68 2 2 37 8 77 14 41 5 81 14 89 18 31 18 -21 22 -208 18 -163
-3 -192 -6 -222 -23 l-35 -20 48 -3 c26 -2 47 -6 47 -9 0 -3 -11 -14 -25 -25
-21 -17 -25 -28 -25 -76 0 -88 -15 -128 -52 -141 -17 -6 -34 -11 -38 -11 -3 0
-5 60 -2 133 4 104 2 135 -9 143 -13 10 -165 34 -216 34 -26 0 -35 -32 -23
-85 5 -24 5 -56 -1 -83 -6 -28 -6 -57 2 -86 8 -33 7 -91 -5 -242 -17 -205 -21
-352 -10 -341 12 11 46 402 49 559 2 92 9 166 15 178 9 18 8 25 -7 42 -18 20
-18 20 42 14 99 -11 102 -13 116 -53 13 -42 5 -211 -11 -227 -7 -7 -10 -1 -10
18 0 28 -1 28 -40 22 l-41 -6 7 90 c5 62 4 90 -4 90 -17 0 -22 -13 -34 -100
-13 -92 -6 -107 53 -119 50 -10 69 -57 58 -141 -4 -36 -13 -139 -19 -230 -5
-91 -14 -203 -20 -250 -40 -352 -56 -1060 -24 -1060 2 0 67 31 143 69 76 38
162 77 192 86 30 9 63 20 74 25 11 4 28 11 38 14 16 5 67 97 67 122 0 27 27
35 64 20 32 -13 36 -19 36 -50 0 -43 7 -45 36 -9 15 19 37 30 77 38 31 6 60 8
65 3 6 -6 211 26 296 48 27 7 76 57 76 78 0 28 36 43 111 49 92 6 136 24 206
82 52 43 63 47 162 57 13 2 29 11 35 21 9 15 2 26 -50 75 -33 31 -71 79 -85
105 -30 61 -48 79 -128 128 -60 38 -66 40 -118 33 -45 -5 -56 -11 -64 -31 -5
-13 -9 -100 -9 -192 0 -157 -10 -231 -30 -231 -5 0 -12 4 -15 10 -3 5 -12 175
-20 377 -8 203 -19 415 -25 472 -11 116 -12 273 -1 311 4 14 23 34 46 47 l39
22 3 88 c6 177 6 184 -8 197 -19 18 -175 76 -205 76 -13 0 -24 -4 -24 -9z
m193 -137 c12 -4 14 -22 10 -92 -7 -116 -23 -130 -23 -20 0 63 -4 89 -15 98
-8 6 -19 9 -24 5 -19 -11 -33 -89 -27 -146 l5 -57 -39 -10 c-21 -5 -42 -7 -45
-4 -3 3 -5 35 -4 71 0 36 3 60 6 54 8 -22 21 -14 32 18 12 36 1 59 -29 59 -17
0 -35 -32 -42 -75 -2 -11 -7 4 -11 33 -4 28 -12 52 -17 52 -5 0 -14 -26 -20
-57 -6 -32 -17 -76 -23 -98 -11 -36 -15 -40 -42 -37 -17 2 -32 8 -34 14 -2 6
-12 19 -22 29 -23 23 -24 39 -4 39 22 0 24 72 2 98 -8 10 -7 16 4 23 15 9 338
13 362 3z m-744 -50 c12 -19 21 -50 21 -69 0 -22 7 -39 20 -48 11 -7 21 -25
22 -38 3 -23 0 -24 -57 -27 -59 -3 -59 -3 -41 17 18 19 18 21 -3 47 -19 24
-19 28 -6 61 20 47 19 56 -4 44 -14 -8 -22 -7 -30 3 -7 8 -23 17 -37 20 -41
11 -17 26 41 26 50 0 54 -2 74 -36z m-144 -54 c7 -22 20 -26 31 -9 4 8 9 7 15
-2 15 -23 10 -55 -11 -74 -26 -23 -25 -33 3 -37 18 -3 16 -6 -16 -17 -21 -7
-41 -11 -44 -8 -8 9 -16 134 -10 151 9 22 24 20 32 -4z m445 -82 c-1 -30 -3
-38 -9 -28 -8 14 -4 70 5 70 2 0 4 -19 4 -42z m210 -18 c0 -11 -4 -20 -9 -20
-5 0 -7 9 -4 20 3 11 7 20 9 20 2 0 4 -9 4 -20z m143 -153 c-3 -61 -1 -136 6
-183 29 -199 53 -955 32 -1007 -15 -39 -51 -51 -246 -81 -93 -14 -181 -29
-194 -32 l-24 -7 7 89 c24 318 38 605 43 919 3 216 9 365 15 373 7 8 49 12
142 13 105 0 206 8 223 18 2 0 0 -45 -4 -102z m-612 87 l37 -6 7 -132 c4 -72
13 -150 21 -174 17 -52 19 -446 3 -592 -6 -52 -14 -169 -18 -260 -7 -159 -8
-168 -42 -245 l-35 -80 -79 -28 c-95 -33 -115 -31 -52 6 57 34 71 57 63 111
-3 22 -11 217 -17 431 -18 647 -28 685 -23 89 4 -584 5 -575 -46 -561 -14 4
-25 -1 -33 -14 -15 -24 -24 -24 -32 1 -3 11 -15 20 -26 20 -36 0 -52 98 -29
180 14 55 33 381 22 392 -11 11 -15 -4 -34 -132 l-12 -85 -10 48 c-12 62 -26
60 -27 -5 0 -39 -3 -48 -9 -33 -13 31 -12 113 4 206 22 131 26 179 17 179 -5
0 -11 -8 -14 -17 -3 -10 -19 -56 -36 -103 l-31 -85 0 81 c0 44 4 116 10 160 5
43 14 151 20 239 10 174 24 241 55 261 20 13 20 11 17 -129 -1 -78 -8 -173
-14 -212 -15 -92 -15 -127 -2 -132 19 -7 36 78 44 227 5 80 16 180 25 223 10
43 14 81 11 84 -3 4 -15 -2 -26 -12 -25 -23 -29 -18 -19 21 8 29 14 33 91 52
122 32 158 36 219 26z m809 -796 c0 -13 19 -40 50 -69 l50 -47 -25 -60 c-14
-33 -29 -81 -35 -106 -18 -83 -42 -126 -68 -126 -19 0 -23 4 -17 18 4 9 9 87
12 172 4 179 10 240 24 240 5 0 9 -10 9 -22z m120 -43 c31 -16 34 -22 24 -49
-5 -12 -16 -7 -55 27 -27 23 -49 45 -49 49 0 8 34 -3 80 -27z m-1341 -545 c6
-30 13 -99 17 -152 7 -104 0 -128 -37 -128 -18 0 -19 12 -19 228 0 126 3 285
7 353 l8 124 7 -185 c4 -102 12 -210 17 -240z m73 168 c-9 -9 -12 1 -11 43 l1
54 11 -43 c7 -31 7 -46 -1 -54z"/>
<path d="M7127 6543 c-13 -21 -20 -103 -9 -103 6 0 14 20 17 44 8 49 3 78 -8
59z"/>
<path d="M7002 6278 c-16 -16 -15 -24 8 -56 17 -22 22 -53 31 -172 18 -257 20
-273 31 -262 23 23 5 296 -28 427 -18 69 -25 80 -42 63z"/>
<path d="M7296 6258 c-11 -74 -15 -187 -7 -243 7 -56 8 -58 14 -25 10 55 15
300 6 300 -5 0 -10 -15 -13 -32z"/>
<path d="M7159 6127 c-3 -20 3 -135 13 -255 23 -289 35 -752 20 -752 -7 0 -12
6 -12 13 0 6 -5 73 -10 147 -11 138 -24 200 -42 200 -6 0 -7 -7 -4 -15 6 -17
23 -185 32 -316 6 -93 17 -125 34 -99 28 42 32 101 27 355 -6 264 -32 675 -46
730 l-8 30 -4 -38z"/>
<path d="M7077 5390 c-10 -91 -9 -230 2 -230 13 0 25 240 13 269 -7 21 -10 15
-15 -39z"/>
<path d="M6664 6187 c2 -43 8 -83 15 -90 8 -8 9 5 4 53 -10 103 -23 127 -19
37z"/>
<path d="M6667 5870 c-9 -84 -14 -420 -5 -420 12 0 19 143 16 315 -2 139 -4
158 -11 105z"/>
<path d="M6501 5523 c-1 -236 2 -363 9 -363 12 0 12 585 0 670 -4 32 -8 -94
-9 -307z"/>
<path d="M6667 5020 c-10 -36 -8 -128 2 -134 13 -8 23 93 13 129 l-8 30 -7
-25z"/>
<path d="M6677 6713 c-18 -17 -3 -25 39 -20 68 7 81 27 18 27 -28 0 -54 -3
-57 -7z"/>
<path d="M6270 6699 c-51 -9 -80 -23 -69 -33 3 -3 65 1 139 9 74 8 143 15 153
15 10 0 15 5 12 10 -7 12 -159 11 -235 -1z"/>
<path d="M11320 6620 c0 -5 5 -10 10 -10 6 0 10 5 10 10 0 6 -4 10 -10 10 -5
0 -10 -4 -10 -10z"/>
<path d="M10235 6610 c-24 -9 -50 -38 -42 -46 3 -3 14 -1 25 5 31 17 56 13
119 -15 45 -20 86 -28 181 -37 l123 -10 -38 -39 c-38 -39 -60 -47 -80 -27 -7
7 -32 4 -86 -12 l-75 -21 -88 26 c-49 15 -102 30 -119 33 -16 3 -38 12 -47 21
-16 13 -18 13 -24 -3 -10 -26 9 -36 140 -74 110 -32 118 -35 130 -66 19 -45
51 -54 84 -23 30 28 102 71 108 65 3 -2 -1 -71 -7 -153 -6 -83 -9 -219 -5
-309 5 -145 4 -164 -14 -202 -24 -55 -34 -56 -15 -2 8 23 15 50 15 60 0 27
-21 34 -27 8 -4 -12 -28 -66 -54 -120 -70 -144 -96 -239 -64 -239 16 0 19 -19
9 -67 l-6 -30 -151 1 c-144 1 -155 3 -202 28 -90 48 -107 74 -85 134 6 14 17
81 25 148 8 66 26 166 40 221 54 212 85 511 55 530 -6 4 -10 -6 -10 -22 0 -89
-24 -269 -55 -413 -20 -91 -45 -226 -56 -300 -24 -163 -42 -246 -62 -283 -25
-47 -12 -65 62 -87 144 -42 167 -44 511 -45 l335 0 65 37 c36 20 98 64 138 97
68 58 81 61 63 16 -5 -12 -3 -31 6 -48 8 -15 11 -37 8 -48 -8 -26 -54 -79 -68
-79 -6 0 -41 -19 -79 -41 -67 -41 -68 -42 -68 -85 0 -24 4 -52 9 -62 5 -9 12
-26 16 -37 6 -19 7 -19 17 -1 6 10 7 35 4 56 -7 47 10 65 56 56 18 -3 62 1 98
8 40 9 71 10 82 5 9 -5 45 -9 80 -9 57 0 61 -1 38 -13 -14 -7 -33 -28 -42 -48
-17 -37 -73 -87 -148 -134 -25 -15 -47 -29 -49 -31 -9 -8 55 -87 93 -114 66
-49 76 -34 14 21 -32 28 -58 59 -58 69 0 10 19 32 43 49 52 39 147 130 147
143 0 17 40 -13 54 -40 17 -33 35 -190 42 -377 4 -78 13 -162 21 -190 22 -72
33 -780 12 -773 -7 2 -17 20 -21 39 -6 33 -11 230 -9 389 2 120 -40 425 -61
445 -7 7 -8 -15 -4 -75 31 -364 36 -703 12 -736 -8 -10 -18 -16 -22 -11 -4 4
-11 62 -14 130 -13 230 -93 716 -120 725 -10 4 -11 -3 -5 -29 4 -19 11 -52 15
-74 4 -22 17 -83 29 -135 11 -52 21 -131 21 -175 0 -92 35 -449 45 -466 10
-16 57 -2 76 23 16 20 16 20 22 -19 7 -40 25 -63 62 -78 18 -7 18 -9 3 -12
-10 -3 -18 -8 -18 -13 0 -22 -34 -40 -76 -40 -25 0 -55 -5 -67 -12 -12 -6 -68
-12 -127 -13 -82 0 -118 -6 -165 -23 -32 -12 -63 -22 -67 -22 -11 0 -18 254
-24 868 -3 342 -8 552 -14 552 -6 0 -10 -74 -10 -187 0 -220 -5 -267 -29 -258
-46 18 -176 27 -711 45 -476 16 -587 23 -596 34 -5 8 -16 70 -23 138 -7 68
-21 166 -32 218 -42 215 -44 251 -53 919 l-5 374 -28 19 c-16 10 -37 16 -49
13 -20 -5 -22 0 -29 80 -8 105 -13 109 -117 95 -40 -5 -76 -10 -80 -10 -5 0
-8 -5 -8 -11 0 -12 94 -8 138 7 24 7 24 7 8 -24 -18 -35 -52 -62 -79 -62 -10
0 -40 -11 -68 -25 -149 -76 -338 -130 -511 -145 -64 -6 -131 -15 -150 -20 -45
-13 -47 -13 -41 11 5 19 4 20 -13 10 -10 -7 -37 -23 -59 -36 -25 -15 -34 -25
-25 -28 105 -29 105 -28 110 -83 4 -40 11 -56 35 -76 27 -23 28 -28 17 -52
-25 -55 -15 -57 108 -21 46 14 92 23 102 20 10 -4 25 2 37 14 22 22 97 48 108
38 3 -4 10 -118 14 -254 5 -137 14 -273 20 -303 6 -30 14 -98 16 -150 2 -52 8
-99 13 -105 12 -15 32 -154 28 -195 l-3 -35 -23 37 c-46 74 -85 58 -59 -25 19
-61 21 -121 7 -198 -7 -37 -7 -56 1 -63 17 -17 37 19 45 83 10 83 23 107 23
46 1 -27 8 -71 15 -96 51 -166 76 -503 43 -580 -13 -31 -20 -37 -58 -43 -51
-8 -130 -46 -181 -87 -21 -17 -38 -27 -38 -24 0 3 18 28 40 56 36 46 50 79 34
79 -4 0 -29 -20 -55 -45 -26 -25 -54 -45 -60 -45 -15 0 -6 137 12 188 16 47 5
639 -15 792 -8 63 -15 135 -16 159 l0 44 25 -23 c27 -26 47 -21 21 5 -9 9 -21
25 -27 36 -5 11 -17 18 -26 17 -27 -5 -53 45 -90 168 -33 108 -36 130 -37 249
-1 72 -5 136 -9 143 -17 25 -26 10 -21 -35 3 -29 0 -64 -8 -86 l-14 -39 -18
57 c-18 59 -32 65 -54 24 -14 -26 -11 -111 8 -269 6 -47 13 -111 16 -142 3
-32 10 -58 14 -58 8 0 24 67 33 135 2 17 5 -27 6 -97 1 -113 -1 -128 -17 -140
-56 -40 -65 -149 -26 -341 7 -35 24 -25 24 15 0 28 25 94 39 102 10 7 18 -291
11 -444 -2 -47 2 -128 10 -181 13 -92 12 -106 -13 -269 -15 -94 -30 -176 -33
-182 -4 -6 -13 0 -21 16 l-14 26 -97 -6 c-88 -6 -99 -5 -122 14 -24 19 -25 26
-28 141 -4 115 -12 149 -26 99 -12 -45 -6 -208 8 -236 20 -39 55 -68 106 -91
61 -26 216 -54 265 -47 22 3 270 10 550 16 281 5 544 14 585 19 260 34 326 44
448 71 319 67 416 90 426 100 17 17 21 12 21 -27 0 -35 2 -38 32 -41 17 -2 37
-10 43 -18 7 -8 16 -14 20 -14 8 0 83 113 158 238 l50 83 5 -43 c4 -24 9 -119
12 -213 11 -354 15 -394 36 -400 10 -4 51 3 92 14 40 12 101 24 135 27 61 7
62 6 60 -16 -4 -32 34 -51 96 -48 59 3 72 24 27 41 -60 22 -26 46 43 28 24 -6
50 -13 58 -16 9 -4 19 4 26 20 10 21 18 25 55 25 24 0 66 7 93 15 27 9 114 25
194 36 159 22 207 34 290 73 77 35 225 72 435 107 98 17 187 35 196 40 10 5
22 24 28 41 11 37 31 238 31 315 l0 50 -52 8 c-29 4 -153 10 -274 14 l-221 6
-79 -72 c-43 -40 -80 -71 -82 -68 -2 2 19 32 48 67 l52 63 -5 350 c-5 293 -10
385 -32 565 -14 118 -33 247 -42 285 -8 39 -18 97 -20 130 -5 55 -8 62 -40 83
-19 12 -50 22 -68 22 l-34 0 20 48 c17 39 20 62 17 132 -6 120 -38 160 -110
139 -18 -5 -53 -9 -77 -9 -34 0 -60 -10 -126 -50 -46 -28 -98 -53 -116 -56
-19 -4 -74 -28 -124 -54 -49 -26 -114 -53 -143 -60 -50 -12 -56 -11 -80 9 -37
30 -71 46 -79 37 -4 -3 3 -13 15 -22 12 -8 22 -21 22 -29 0 -8 10 -23 22 -34
21 -21 21 -21 2 -57 -43 -81 -65 -97 -140 -105 -38 -5 -104 -8 -147 -8 l-77
-1 7 43 c4 23 7 105 7 182 l1 140 -42 75 c-23 41 -49 102 -59 135 -22 76 -22
223 0 324 9 41 13 78 9 82 -5 4 -71 9 -148 11 -135 4 -142 5 -199 36 -61 34
-69 36 -101 22z m344 -593 c-1 -125 -4 -157 -9 -117 -12 85 -12 302 0 295 6
-4 9 -73 9 -178z m-1509 123 c0 -22 -7 -57 -15 -77 l-15 -36 92 7 c82 6 99 11
143 40 90 58 81 86 89 -287 4 -183 9 -348 12 -367 4 -24 2 -30 -4 -20 -6 8
-13 44 -16 80 -11 107 -27 200 -36 205 -13 8 -24 -79 -24 -180 1 -77 6 -104
36 -185 37 -100 97 -428 119 -660 l11 -109 -51 -85 c-42 -68 -58 -87 -85 -96
-19 -6 -40 -18 -47 -26 -24 -29 -142 -105 -155 -100 -10 4 -14 26 -14 81 0 41
-11 220 -25 397 -13 178 -29 400 -34 493 -18 290 -22 327 -37 321 -9 -3 -15 6
-19 28 -7 37 1 389 11 480 4 43 3 57 -6 51 -6 -4 -17 1 -24 11 -19 25 -33 11
-53 -53 -11 -36 -24 -58 -38 -63 -11 -5 -43 -18 -72 -29 -28 -12 -62 -21 -74
-21 -18 0 -20 4 -14 23 4 12 10 45 14 72 6 47 9 51 52 73 25 12 70 27 100 32
30 5 72 15 94 24 22 8 50 15 63 15 19 1 22 -4 22 -39z m120 5 c0 -26 -15 -41
-25 -26 -8 14 5 62 16 55 5 -3 9 -16 9 -29z m160 25 c0 -11 -58 -50 -74 -50
-6 0 3 14 19 30 29 30 55 39 55 20z m-127 -60 c-6 -22 -23 -38 -23 -21 0 17
12 41 20 41 5 0 6 -9 3 -20z m-545 -85 c-19 -18 -58 -29 -58 -16 0 23 -20 9
-50 -34 -30 -44 -50 -57 -50 -33 0 6 10 22 22 35 26 28 17 54 -23 64 -26 6
-19 9 111 42 l55 13 3 -29 c2 -16 -2 -35 -10 -42z m-215 3 c-7 -41 -12 -46
-23 -28 -17 27 -12 60 10 60 17 0 19 -5 13 -32z m3408 -96 c-16 -29 -43 -48
-137 -95 -50 -25 -115 -68 -145 -94 -30 -27 -79 -66 -109 -88 -30 -21 -70 -52
-89 -68 -34 -29 -36 -29 -115 -23 -45 3 -96 2 -114 -3 -26 -8 -34 -7 -39 5
-15 39 56 157 97 162 51 5 66 12 133 56 37 25 103 56 147 71 43 14 83 32 90
39 20 25 110 56 182 64 82 9 113 1 99 -26z m-3241 -7 c0 -13 -4 -27 -10 -30
-6 -4 -10 8 -10 30 0 22 4 34 10 30 6 -3 10 -17 10 -30z m-120 -34 c0 -6 -4
-13 -10 -16 -5 -3 -10 1 -10 9 0 9 5 16 10 16 6 0 10 -4 10 -9z m3128 -164 c2
-10 -22 -44 -59 -82 -54 -57 -66 -65 -90 -60 -23 5 -28 2 -34 -22 -3 -15 -6
-79 -6 -142 1 -63 -2 -111 -6 -108 -7 8 -32 177 -33 224 0 28 9 37 80 89 44
31 80 60 80 64 0 4 9 19 21 34 23 29 42 30 47 3z m-1158 -77 c0 -5 -4 -10 -10
-10 -5 0 -10 5 -10 10 0 6 5 10 10 10 6 0 10 -4 10 -10z m1494 -72 c8 -24 20
-61 26 -83 10 -42 14 -102 5 -93 -5 5 -46 143 -58 196 -9 39 11 24 27 -20z
m-138 -3 c9 -22 -40 -98 -113 -176 -46 -48 -69 -67 -77 -59 -5 5 -20 10 -33
10 -55 0 -11 74 100 170 79 69 112 84 123 55z m-461 -58 c16 -12 19 -33 23
-165 l5 -152 -47 -20 c-67 -30 -181 -50 -219 -39 -18 5 -62 9 -99 9 -37 0 -70
4 -73 10 -3 5 11 18 32 27 21 10 51 26 67 37 24 16 32 17 49 7 11 -7 44 -19
75 -27 44 -12 62 -12 91 -3 42 14 33 19 -71 39 -37 7 -71 17 -76 24 -13 16
-42 119 -42 150 0 14 5 26 10 26 6 0 10 -4 10 -10 0 -5 5 -10 11 -10 6 0 9 17
7 42 -3 36 0 44 22 55 34 18 200 17 225 0z m-2886 -272 c1 -16 -1 -17 -9 -5
-5 8 -9 31 -9 50 l1 35 8 -30 c4 -16 8 -39 9 -50z m3281 40 c0 -18 5 -25 20
-25 11 0 20 -6 20 -13 0 -7 6 -19 13 -25 6 -7 12 -18 12 -25 0 -7 13 -12 30
-12 26 0 30 -4 33 -29 2 -16 15 -46 28 -66 47 -70 67 -207 68 -445 0 -149 -3
-219 -12 -240 -19 -43 -32 -15 -32 71 0 158 -47 610 -70 669 -10 27 -30 34
-30 10 0 -8 -5 -15 -10 -15 -6 0 -13 7 -16 15 -4 8 -9 15 -14 15 -12 0 -19
-294 -9 -367 17 -124 27 -130 45 -30 l12 62 2 -75 c1 -41 6 -88 9 -105 7 -30
7 -30 15 12 4 24 12 45 16 48 17 11 24 -72 25 -280 0 -183 -3 -218 -20 -270
l-20 -60 -6 140 c-7 154 -6 145 -18 145 -4 0 -11 -62 -14 -137 -4 -76 -13
-163 -20 -193 l-14 -55 -6 45 c-3 25 -13 114 -22 197 -8 84 -20 165 -26 180
-5 15 -12 72 -15 128 -3 55 -11 143 -19 195 -16 108 -35 388 -32 470 1 51 4
57 32 72 41 22 45 22 45 -7z m279 -55 c-1 -37 -2 -41 -9 -20 -12 38 -12 99 0
80 5 -8 9 -35 9 -60z m-408 34 c8 -10 17 -82 26 -212 7 -109 17 -228 23 -267
6 -38 17 -135 25 -215 8 -80 18 -167 24 -195 5 -27 12 -92 16 -142 5 -89 5
-93 -14 -93 -50 0 -67 80 -81 375 -13 292 -19 358 -37 435 -8 36 -17 125 -20
198 -5 114 -4 132 9 132 9 0 21 -7 29 -16z m-228 -125 c-17 -17 -37 -1 -22 17
8 10 15 12 23 4 7 -7 7 -13 -1 -21z m-2997 -157 c-11 -10 -14 3 -8 33 l7 30 3
-28 c2 -16 1 -31 -2 -35z m3065 7 c8 -24 23 -61 32 -81 9 -21 17 -42 17 -48 0
-6 9 -28 19 -48 21 -42 40 -128 22 -102 -17 25 -24 4 -29 -95 -5 -97 -22 -144
-22 -60 0 71 -29 193 -61 261 -35 74 -35 74 -8 125 25 50 18 60 -21 30 -36
-26 -39 -11 -10 37 26 42 41 37 61 -19z m409 -52 c0 -16 -4 -26 -10 -22 -5 3
-10 23 -10 43 0 28 3 33 10 22 5 -8 10 -28 10 -43z m189 -99 c1 -53 -3 -88 -9
-88 -6 0 -10 42 -9 108 0 69 3 100 9 87 5 -11 9 -59 9 -107z m-3496 23 c18
-39 21 -89 11 -153 -6 -33 -10 -38 -35 -38 -23 0 -30 -6 -40 -37 l-13 -38 -12
50 c-18 74 -16 114 5 144 11 15 27 46 36 69 10 23 20 42 24 42 3 0 14 -18 24
-39z m264 -33 c-3 -8 -6 -5 -6 6 -1 11 2 17 5 13 3 -3 4 -12 1 -19z m2643
-212 c0 -18 -7 -39 -15 -46 -17 -14 -19 -4 -9 49 9 41 24 40 24 -3z m12 -107
c31 -17 48 -67 38 -117 -9 -50 -20 -67 -20 -31 0 14 -7 34 -15 45 -8 10 -15
33 -15 51 0 17 -4 35 -10 38 -11 7 -14 25 -4 25 3 0 14 -5 26 -11z m-2992
-181 c0 -89 -2 -159 -5 -157 -2 3 -10 60 -16 126 -11 120 -7 193 11 193 6 0
10 -66 10 -162z m99 140 c-1 -7 -5 -24 -9 -38 -7 -22 -8 -21 -9 13 -1 20 4 37
9 37 6 0 10 -6 9 -12z m3477 -152 c-4 -35 -14 -72 -21 -83 -12 -15 -14 -16
-15 -2 0 27 32 160 37 155 3 -3 2 -34 -1 -70z m-565 -179 c-13 -13 -28 -2 -35
28 -4 17 1 42 16 73 l23 47 3 -69 c2 -38 -1 -73 -7 -79z m-821 76 c-18 -32
-39 -64 -48 -71 -12 -9 -75 -12 -236 -12 -122 0 -291 -6 -377 -14 -86 -8 -308
-18 -495 -21 -213 -4 -367 -12 -414 -20 -41 -7 -94 -16 -117 -18 -49 -6 -50
-3 -32 85 16 83 15 81 50 56 26 -20 43 -23 112 -23 45 0 128 6 184 14 118 16
568 10 713 -10 121 -17 439 -17 523 0 52 10 79 22 115 52 26 21 49 38 50 39 2
0 -10 -26 -28 -57z m894 -108 c8 -49 24 -117 36 -149 23 -66 25 -103 9 -159
-11 -40 -72 -117 -84 -105 -3 3 3 36 14 73 12 37 21 91 21 119 0 54 -16 248
-25 301 -3 18 -2 26 4 20 5 -6 16 -50 25 -100z m-177 18 c-3 -10 -5 -4 -5 12
0 17 2 24 5 18 2 -7 2 -21 0 -30z m553 -66 c0 -2 -10 -12 -22 -23 l-23 -19 19
23 c18 21 26 27 26 19z m-203 -39 c-3 -7 -5 -2 -5 12 0 14 2 19 5 13 2 -7 2
-19 0 -25z m-226 -21 c-8 -8 -11 -5 -11 9 0 27 14 41 18 19 2 -9 -1 -22 -7
-28z m-3044 -29 c-3 -8 -6 -5 -6 6 -1 11 2 17 5 13 3 -3 4 -12 1 -19z m3369
-27 c12 -11 205 -31 304 -31 55 0 87 -6 120 -21 39 -18 42 -22 25 -29 -11 -4
-110 -13 -221 -19 -111 -7 -230 -16 -265 -22 -165 -24 -149 -24 -149 3 0 19
16 35 78 75 81 54 92 58 108 44z m-3298 -23 c-4 -27 -28 -36 -28 -10 0 20 8
32 22 32 5 0 8 -10 6 -22z m7 -78 c-10 -11 -23 -20 -28 -20 -6 0 0 11 13 25
27 29 42 25 15 -5z m2942 -129 c-6 -17 -14 -28 -19 -25 -8 5 12 54 23 54 4 0
2 -13 -4 -29z"/>
<path d="M9041 5969 c-16 -44 -26 -270 -16 -335 7 -42 9 -46 16 -24 4 14 7 43
8 64 1 22 3 37 7 34 3 -3 9 -111 14 -239 8 -238 12 -269 35 -269 18 0 25 56
26 220 0 123 2 140 12 113 30 -80 35 -38 12 101 -15 92 -31 128 -46 104 -5 -7
-9 -24 -9 -38 -1 -20 -2 -22 -10 -9 -5 8 -12 76 -16 150 -7 151 -15 179 -33
128z"/>
<path d="M9256 4859 c-3 -17 -6 -94 -6 -170 0 -135 1 -139 21 -139 20 0 21 3
13 83 -5 45 -8 121 -7 170 1 87 -9 115 -21 56z"/>
<path d="M11234 5507 c-7 -20 3 -37 22 -37 19 0 18 -7 -6 -37 -12 -15 -20 -41
-20 -62 0 -29 8 -42 40 -72 32 -29 42 -34 51 -23 12 15 5 31 -27 56 -37 30
-39 65 -4 99 44 45 38 69 -22 84 -21 5 -29 3 -34 -8z"/>
<path d="M11168 5419 c-17 -9 -27 -45 -10 -37 48 24 62 32 62 40 0 11 -31 10
-52 -3z"/>
<path d="M11190 5285 c0 -8 5 -15 10 -15 6 0 10 7 10 15 0 8 -4 15 -10 15 -5
0 -10 -7 -10 -15z"/>
<path d="M12140 6456 c0 -9 5 -16 10 -16 6 0 10 4 10 9 0 6 -4 13 -10 16 -5 3
-10 -1 -10 -9z"/>
<path d="M8285 6440 c-4 -6 5 -10 19 -10 14 0 26 5 26 10 0 6 -9 10 -19 10
-11 0 -23 -4 -26 -10z"/>
<path d="M4610 6407 c-3 -3 -106 -19 -230 -36 -217 -31 -391 -70 -343 -79 13
-2 58 4 100 12 43 9 164 28 268 42 202 28 248 28 595 4 165 -11 182 -15 178
-38 -4 -20 -55 -31 -149 -31 l-67 -1 -7 -57 c-4 -32 -9 -62 -12 -67 -10 -15
-23 18 -23 57 0 33 -3 37 -26 37 -14 0 -37 9 -51 20 -35 27 -57 25 -166 -14
-88 -32 -107 -35 -258 -42 -169 -7 -221 -16 -202 -35 17 -17 379 5 426 25 20
9 53 23 72 31 41 17 61 19 69 6 3 -5 11 -43 17 -85 14 -90 28 -94 45 -12 20
100 39 88 55 -34 5 -47 12 -87 15 -89 9 -9 22 21 39 88 22 89 33 103 98 125
63 21 87 13 87 -30 0 -36 17 -29 40 16 11 22 25 40 31 40 16 0 39 -66 41 -116
3 -70 -16 -81 -227 -132 -99 -24 -189 -48 -200 -52 l-20 -9 20 0 c20 -1 158
21 223 35 31 6 32 5 32 -25 0 -42 18 -39 26 4 3 19 11 35 18 35 18 0 76 -123
86 -182 26 -143 41 -283 41 -378 0 -110 -4 -133 -29 -162 -14 -17 -13 -18 11
-18 23 0 27 -4 27 -31 0 -23 12 -42 45 -77 44 -45 45 -48 45 -109 0 -54 -4
-67 -28 -95 -40 -47 -89 -128 -97 -159 -11 -45 12 -42 40 4 32 56 60 83 70 67
18 -29 36 -124 42 -217 3 -58 10 -103 16 -103 13 0 3 381 -13 495 -6 44 -19
91 -29 105 -34 48 -41 91 -41 244 0 154 -18 315 -39 355 -7 12 -19 63 -27 113
-9 54 -22 102 -34 118 l-20 28 36 27 c39 30 73 94 74 138 0 32 -21 87 -42 108
-8 8 -27 33 -41 56 l-26 41 -128 6 c-112 5 -252 17 -403 33 -25 3 -47 3 -50 0z"/>
<path d="M8832 6365 c-34 -17 -107 -42 -162 -54 -94 -21 -277 -83 -345 -116
-16 -8 -54 -22 -84 -31 -117 -34 -231 -105 -231 -143 0 -13 2 -13 9 -2 6 9 11
10 15 2 5 -7 26 4 58 30 54 42 138 89 160 89 7 0 40 13 73 28 33 16 77 32 97
36 20 4 57 18 82 32 28 15 80 31 133 40 146 23 263 67 283 104 15 29 -10 24
-88 -15z"/>
<path d="M5895 6271 c6 -21 -25 -46 -71 -57 -16 -3 -60 -15 -97 -27 -58 -18
-69 -19 -77 -7 -12 20 -5 27 50 51 54 23 84 49 57 49 -9 0 -18 -4 -22 -9 -3
-5 -36 -19 -73 -32 -81 -26 -154 -62 -172 -83 -18 -23 -8 -95 31 -213 39 -120
45 -219 31 -511 -8 -157 -13 -208 -26 -227 -16 -24 -15 -25 16 -41 18 -9 41
-23 50 -31 9 -8 52 -23 95 -33 43 -10 146 -43 228 -75 124 -46 153 -54 169
-45 18 11 18 8 11 -92 -3 -56 -11 -125 -16 -152 -13 -68 -11 -130 3 -144 20
-20 138 -13 138 8 0 4 -26 12 -57 16 l-58 9 0 40 c1 22 6 87 13 145 17 141 28
779 14 765 -6 -6 -14 -76 -18 -157 -4 -82 -11 -148 -15 -148 -5 0 -9 4 -9 9 0
6 -13 18 -29 27 l-30 17 6 161 c3 89 1 242 -5 340 -9 153 -13 183 -30 206 -13
17 -24 55 -30 107 -11 95 -36 153 -64 153 -14 0 -18 -5 -13 -19z m25 -60 c0
-16 -38 -56 -46 -49 -11 12 13 58 31 58 8 0 15 -4 15 -9z m-300 -41 c0 -21
-15 -27 -25 -10 -7 12 2 30 16 30 5 0 9 -9 9 -20z m-33 -32 c27 -30 54 -84 46
-92 -4 -3 -14 -6 -23 -6 -9 0 -25 -9 -35 -20 -29 -32 -36 -24 -29 30 5 40 3
54 -11 70 -9 10 -14 24 -10 29 11 18 40 12 62 -11z m163 -15 c0 -3 -18 -28
-41 -56 l-40 -51 3 49 c2 41 7 52 27 61 22 11 51 9 51 -3z m156 2 c15 -38 -55
-90 -146 -110 -32 -7 -33 -6 -20 9 7 10 30 26 50 36 22 11 42 31 50 49 9 23
19 31 37 31 13 0 26 -7 29 -15z m-190 -212 c-10 -10 -19 5 -10 18 6 11 8 11
12 0 2 -7 1 -15 -2 -18z m-86 -211 c5 -97 10 -223 10 -278 0 -93 2 -103 21
-116 19 -12 20 -17 10 -36 -13 -24 -69 -57 -79 -47 -12 11 -20 668 -9 689 9
18 11 18 24 -8 10 -19 17 -85 23 -204z m81 -117 c-9 -39 -9 -38 -10 25 0 36 2
110 7 165 l7 100 3 -125 c1 -69 -2 -144 -7 -165z m78 198 c0 -21 -4 -47 -9
-58 -6 -14 -9 -4 -9 38 -1 32 3 57 9 57 6 0 10 -17 9 -37z m-132 -5 c-3 -7 -5
-2 -5 12 0 14 2 19 5 13 2 -7 2 -19 0 -25z m120 -200 c-2 -13 -4 -5 -4 17 -1
22 1 32 4 23 2 -10 2 -28 0 -40z m-18 -171 c1 -16 -3 -26 -9 -22 -5 3 -10 25
-9 48 0 33 2 38 9 22 5 -11 9 -33 9 -48z m51 39 c0 -3 -4 -8 -10 -11 -5 -3
-10 -1 -10 4 0 6 5 11 10 11 6 0 10 -2 10 -4z m-74 -164 c-15 -15 -16 -15 -16
5 0 12 6 23 13 26 19 6 21 -13 3 -31z"/>
<path d="M11972 6279 c2 -7 10 -15 17 -17 8 -3 12 1 9 9 -2 7 -10 15 -17 17
-8 3 -12 -1 -9 -9z"/>
<path d="M9970 6271 c0 -5 7 -14 15 -21 13 -10 15 -9 15 9 0 12 -6 21 -15 21
-8 0 -15 -4 -15 -9z"/>
<path d="M11510 6269 c0 -5 5 -7 10 -4 6 3 10 8 10 11 0 2 -4 4 -10 4 -5 0
-10 -5 -10 -11z"/>
<path d="M3935 6240 c-21 -17 -51 -48 -67 -70 -28 -38 -29 -43 -22 -110 3 -38
10 -70 14 -70 4 0 12 11 18 25 10 21 9 32 -4 56 -15 31 -11 68 10 81 18 12 93
9 104 -4 5 -7 13 -42 17 -78 9 -77 12 -85 31 -69 10 9 13 24 8 58 -5 37 -2 51
13 69 16 20 21 21 46 10 28 -13 28 -14 21 -78 -8 -70 -7 -114 2 -143 5 -16 2
-18 -18 -11 -20 7 -69 7 -167 1 -14 -1 -28 6 -35 18 -6 11 -12 22 -14 25 -2 3
-10 -4 -18 -14 -21 -29 -17 -64 9 -77 32 -17 32 -17 9 -36 -13 -11 -35 -63
-59 -138 l-37 -120 -4 -274 c-2 -167 0 -271 6 -267 5 3 12 117 16 253 8 279
15 332 55 395 15 24 38 74 50 111 25 74 33 84 51 62 7 -8 18 -15 26 -15 13 0
26 -80 21 -132 -3 -35 -17 -37 -17 -4 0 14 -5 28 -11 32 -8 5 -9 -9 -4 -47 11
-82 39 -181 50 -180 6 0 14 19 18 43 5 24 17 50 27 58 12 10 23 37 29 76 14
90 62 178 114 210 58 37 111 84 120 107 9 25 21 14 37 -35 6 -21 16 -38 21
-38 16 0 9 60 -12 102 l-21 40 -36 -35 c-101 -96 -181 -87 -169 19 2 26 0 45
-6 47 -6 2 -1 13 11 25 29 29 30 56 2 57 -9 0 -14 7 -12 18 2 14 -5 17 -45 17
-72 0 -123 17 -123 40 0 27 -11 25 -55 -10z m145 -380 c0 -14 -14 -12 -28 2
-19 19 -14 30 8 18 11 -6 20 -15 20 -20z"/>
<path d="M9613 6255 c-3 -9 -3 -18 0 -21 9 -9 27 6 27 22 0 19 -19 18 -27 -1z"/>
<path d="M3405 6239 c-27 -4 -147 -18 -265 -29 -248 -24 -259 -27 -371 -79
-47 -22 -120 -50 -164 -62 -102 -27 -122 -38 -73 -39 68 0 242 63 309 112 21
16 51 22 150 28 68 4 135 12 149 17 14 6 102 13 195 17 176 7 220 0 220 -34 0
-25 -51 -41 -178 -56 -169 -19 -421 -77 -520 -119 -21 -8 -77 -25 -125 -36
-48 -12 -93 -25 -99 -31 -16 -13 -18 -286 -3 -338 9 -30 6 -47 -19 -115 -16
-44 -37 -120 -46 -170 -9 -49 -30 -121 -47 -160 l-30 -70 -5 -310 c-3 -170 -9
-316 -13 -324 -5 -10 -15 -6 -42 18 -49 43 -74 96 -59 128 6 13 11 31 11 40 0
30 -29 -7 -36 -46 -10 -59 -15 -71 -29 -71 -16 0 -111 -85 -126 -111 -15 -29
9 -57 83 -96 77 -41 153 -65 278 -88 88 -15 281 -68 375 -101 86 -30 182 -7
383 92 159 78 247 143 224 166 -6 6 -73 30 -149 54 -76 23 -167 53 -203 66
l-65 23 -5 140 c-4 91 -10 149 -19 165 -11 19 -13 56 -8 170 7 159 24 275 60
390 20 64 32 115 64 288 l4 24 24 -26 c24 -25 45 -33 58 -19 4 3 -11 22 -33
40 -54 46 -51 59 13 66 28 4 90 18 137 31 46 14 86 23 88 21 2 -2 -15 -27 -38
-54 -37 -44 -41 -53 -29 -67 7 -9 24 -20 37 -25 23 -9 24 -13 18 -67 -15 -135
-19 -292 -8 -292 17 0 55 79 58 120 1 19 12 57 23 83 30 71 26 108 -8 75 -10
-11 -11 -7 -5 17 8 36 22 55 39 55 21 0 25 -25 25 -148 0 -142 15 -242 38
-260 12 -9 18 -34 22 -95 9 -148 24 -63 31 183 5 182 11 246 24 284 15 43 15
55 4 89 -11 33 -10 49 4 106 41 161 36 195 -26 212 -54 14 -73 32 -82 77 -8
41 -57 114 -91 137 -25 16 -52 17 -129 4z m176 -164 c9 -43 10 -188 1 -201 -7
-11 -174 -68 -280 -94 -48 -13 -53 -12 -65 5 -12 15 -22 17 -65 11 -33 -4 -60
-2 -73 5 -16 8 -28 8 -47 0 -30 -14 -19 -30 30 -41 l33 -7 -40 -7 c-22 -4 -61
-16 -87 -27 -47 -19 -174 -27 -164 -10 3 4 28 11 56 15 54 7 67 23 23 28 -25
3 -28 7 -25 36 1 20 -2 32 -10 32 -22 -1 -123 -45 -156 -68 -40 -29 -44 -28
-40 10 3 30 6 32 69 48 73 18 149 49 149 61 0 4 -8 9 -17 11 -25 5 61 54 110
63 26 5 37 12 33 21 -4 10 16 14 82 17 101 4 257 53 226 70 -9 5 -37 7 -62 3
-32 -4 -43 -3 -36 4 6 6 51 15 100 21 49 6 109 14 134 19 25 4 61 7 80 7 30
-2 36 -6 41 -32z m125 -97 c7 -12 -57 -78 -76 -78 -11 0 -14 73 -3 83 11 12
71 8 79 -5z m-856 -47 c0 -9 -128 -26 -137 -18 -6 6 71 24 110 26 15 1 27 -3
27 -8z m318 -259 c2 -34 -2 -88 -7 -120 -15 -79 -65 -262 -72 -262 -6 0 -52
114 -64 158 -4 13 0 56 9 95 9 40 17 91 19 114 1 24 7 47 12 52 12 11 76 30
90 27 6 -2 11 -30 13 -64z m-508 -32 c0 -5 -4 -10 -9 -10 -6 0 -13 5 -16 10
-3 6 1 10 9 10 9 0 16 -4 16 -10z m164 -26 c26 -10 18 -74 -9 -74 -15 0 -25
22 -25 56 0 25 7 28 34 18z m72 -91 c-3 -27 -9 -67 -12 -90 -8 -55 12 -58 21
-4 3 22 12 47 20 57 14 20 15 16 31 -159 6 -70 18 -80 29 -24 13 65 15 69 31
56 45 -37 55 -125 41 -347 -10 -159 -9 -178 8 -224 14 -39 17 -67 12 -127 -9
-121 -9 -121 -113 -142 -144 -30 -130 -45 -140 144 -4 89 -7 176 -7 192 4 140
14 287 22 329 5 28 15 119 21 201 12 162 16 185 32 185 7 0 9 -16 4 -47z m-75
-216 c0 -126 -8 -178 -23 -155 -13 19 4 289 18 275 3 -2 5 -56 5 -120z m-85
-228 c-3 -20 -15 -56 -26 -80 -24 -54 -27 -163 -5 -216 19 -45 19 -66 -1 -132
-19 -66 -32 -57 -44 29 -10 72 -14 78 -40 62 -23 -14 -23 -14 -11 41 10 44 30
146 56 282 9 43 23 90 32 104 l16 25 14 -39 c8 -23 12 -56 9 -76z m44 -176 c0
-5 -5 -15 -10 -23 -8 -12 -10 -11 -10 8 0 12 5 22 10 22 6 0 10 -3 10 -7z
m-206 -200 c9 -67 23 -88 32 -45 10 48 21 39 34 -25 16 -82 16 -83 49 -83 34
0 91 -29 91 -47 0 -17 -45 -47 -117 -77 -73 -30 -109 -33 -122 -8 -10 19 8
332 19 332 4 0 10 -21 14 -47z m-64 -334 c0 -6 -4 -7 -10 -4 -5 3 -10 11 -10
16 0 6 5 7 10 4 6 -3 10 -11 10 -16z"/>
<path d="M3435 5999 c-4 -6 -4 -13 -1 -16 8 -8 36 5 36 17 0 13 -27 13 -35 -1z"/>
<path d="M3323 5985 c-34 -7 -71 -18 -82 -25 -41 -22 -20 -28 47 -13 85 20
112 30 112 43 0 12 2 12 -77 -5z"/>
<path d="M3068 5946 c-21 -8 -49 -21 -63 -30 -26 -17 -33 -36 -14 -36 16 0
129 63 129 72 0 11 -8 10 -52 -6z"/>
<path d="M3396 5944 c-89 -17 -197 -53 -216 -70 -21 -20 -3 -18 87 10 43 14
116 32 163 41 47 10 92 21 100 26 23 13 -54 9 -134 -7z"/>
<path d="M2980 5830 c0 -5 5 -10 10 -10 6 0 10 5 10 10 0 6 -4 10 -10 10 -5 0
-10 -4 -10 -10z"/>
<path d="M2910 4868 c-6 -24 -15 -58 -20 -77 -12 -45 -3 -54 12 -13 7 18 15
32 18 32 3 0 11 -43 18 -96 14 -110 22 -131 34 -89 15 53 23 269 10 261 -7 -4
-12 -22 -13 -39 0 -27 -2 -29 -9 -12 -5 11 -11 32 -14 48 -9 39 -24 33 -36
-15z"/>
<path d="M10970 6195 c-7 -9 -10 -18 -7 -22 8 -7 37 15 37 28 0 14 -16 11 -30
-6z"/>
<path d="M10193 6147 c-24 -61 -35 -159 -18 -167 12 -6 46 151 42 195 -2 27
-4 24 -24 -28z"/>
<path d="M10468 6098 c-4 -137 -2 -194 8 -215 5 -13 10 3 14 52 8 86 0 255
-11 255 -5 0 -10 -42 -11 -92z"/>
<path d="M7910 6166 c0 -8 5 -18 10 -21 6 -3 10 1 10 9 0 8 -4 18 -10 21 -5 3
-10 -1 -10 -9z"/>
<path d="M10301 6108 c0 -39 3 -48 9 -33 12 28 12 85 0 85 -5 0 -10 -24 -9
-52z"/>
<path d="M3105 6132 c-24 -11 -35 -21 -28 -25 16 -10 99 12 114 29 17 21 -36
18 -86 -4z"/>
<path d="M4444 6136 c-3 -7 2 -42 10 -78 11 -47 24 -75 50 -103 28 -30 33 -41
24 -52 -9 -11 -15 -11 -34 2 -39 25 -49 -8 -49 -166 0 -131 1 -137 28 -177 35
-53 50 -54 45 -2 -2 22 -1 40 2 40 10 0 70 -127 85 -180 26 -92 34 -176 41
-400 5 -162 11 -221 22 -237 16 -25 11 -72 -13 -120 -11 -22 -14 -68 -13 -188
1 -185 -25 -466 -48 -524 -17 -43 -23 -46 -96 -57 l-48 -6 0 43 c0 24 -5 51
-10 59 -7 11 -10 -2 -10 -43 l0 -57 -27 6 c-16 4 -38 11 -51 15 -32 12 -82 11
-82 -1 0 -5 9 -10 20 -10 27 0 95 -28 87 -36 -3 -4 -27 -10 -52 -15 -35 -7
-67 -25 -128 -74 -84 -66 -154 -102 -182 -92 -19 8 -20 64 -1 114 23 61 27
130 16 291 -20 274 -29 291 -23 41 l6 -237 -28 -91 c-16 -50 -31 -91 -35 -91
-4 0 -14 8 -23 18 -9 10 -51 35 -94 56 l-78 38 2 131 c2 133 -8 148 -21 32
-11 -94 -27 -165 -37 -165 -16 0 -69 -92 -69 -119 0 -24 7 -28 73 -47 39 -12
92 -29 117 -37 155 -52 145 -51 435 -58 435 -11 699 -29 786 -54 34 -10 59
-11 93 -3 40 8 52 17 88 66 23 30 55 72 72 91 36 41 147 195 164 227 22 42
-21 64 -128 64 -101 0 -347 -16 -460 -31 -70 -8 -99 -7 -159 5 -83 17 -86 19
-77 41 5 15 10 14 43 -7 33 -20 49 -23 123 -21 190 4 1136 156 1237 198 39 17
245 220 269 266 20 39 13 56 -31 75 -32 13 -47 12 -158 -7 -190 -32 -419 -59
-570 -66 l-139 -6 2 29 c6 90 -11 114 -31 42 -22 -86 -66 -155 -116 -184 -21
-13 -47 -35 -58 -48 -15 -19 -34 -26 -75 -32 l-55 -7 29 31 c15 17 41 36 57
42 32 14 52 60 40 93 -5 12 -5 31 0 42 4 11 8 39 8 62 1 33 10 53 45 100 52
68 42 80 -32 37 -58 -34 -154 -132 -150 -153 2 -9 19 -24 38 -33 29 -15 36
-25 41 -58 5 -40 5 -40 -56 -80 -34 -22 -64 -40 -68 -40 -4 0 -7 11 -7 23 0
13 -8 31 -18 40 -16 15 -20 15 -50 -3 -18 -11 -58 -46 -90 -77 -51 -51 -55
-57 -35 -61 21 -3 43 -45 43 -82 0 -26 -41 -73 -53 -61 -18 18 -20 142 -3 214
21 91 20 201 -4 382 -11 83 -23 231 -27 331 -6 167 -4 186 16 252 19 65 20 74
7 94 -8 13 -27 69 -42 126 l-26 103 17 67 c11 40 20 119 23 197 l4 131 -27 33
c-15 17 -33 49 -40 69 -17 47 -31 51 -39 10 -10 -56 -32 -78 -77 -78 -47 0
-74 23 -88 77 -5 21 -15 57 -21 81 -11 42 -35 57 -46 28z"/>
<path d="M7680 6126 c0 -9 5 -16 10 -16 6 0 10 4 10 9 0 6 -4 13 -10 16 -5 3
-10 -1 -10 -9z"/>
<path d="M11300 6100 c0 -5 7 -10 15 -10 8 0 15 5 15 10 0 6 -7 10 -15 10 -8
0 -15 -4 -15 -10z"/>
<path d="M11731 6101 c-7 -5 -11 -14 -7 -19 9 -15 36 -4 36 14 0 16 -9 18 -29
5z"/>
<path d="M9854 6079 c-3 -6 -1 -16 5 -22 8 -8 11 -5 11 11 0 24 -5 28 -16 11z"/>
<path d="M12297 6083 c-4 -3 -7 -11 -7 -17 0 -6 5 -5 12 2 6 6 9 14 7 17 -3 3
-9 2 -12 -2z"/>
<path d="M2513 5978 c-57 -19 -38 -31 37 -25 79 7 104 16 74 28 -26 10 -73 9
-111 -3z"/>
<path d="M8030 5921 c0 -40 5 -62 15 -71 9 -7 17 -11 20 -9 7 8 -19 139 -27
139 -4 0 -8 -26 -8 -59z"/>
<path d="M10292 5968 c3 -7 13 -15 22 -16 12 -3 17 1 14 10 -3 7 -13 15 -22
16 -12 3 -17 -1 -14 -10z"/>
<path d="M11380 5965 c0 -8 5 -15 10 -15 6 0 10 7 10 15 0 8 -4 15 -10 15 -5
0 -10 -7 -10 -15z"/>
<path d="M12014 5965 c-18 -15 -18 -15 10 -13 16 2 31 9 34 16 5 17 -20 15
-44 -3z"/>
<path d="M12222 5968 c-14 -14 -16 -38 -3 -38 10 0 26 39 19 46 -2 2 -10 -2
-16 -8z"/>
<path d="M8284 5949 c-10 -12 -26 -40 -34 -62 -12 -33 -25 -47 -57 -63 -23
-12 -39 -24 -36 -28 13 -13 61 -5 86 14 l26 21 15 -30 c24 -46 4 -56 -86 -43
-58 9 -78 16 -95 37 -28 31 -33 31 -33 0 0 -33 -23 -32 -49 3 -19 25 -20 25
-21 6 0 -12 6 -39 14 -61 11 -30 12 -52 4 -94 -11 -57 -6 -252 7 -282 10 -23
31 -16 27 9 -11 80 -13 227 -2 277 14 71 27 78 148 75 90 -2 161 10 187 32 19
16 10 30 -20 30 -27 0 -65 43 -65 74 0 11 9 35 20 51 11 17 20 36 20 43 0 19
-35 14 -56 -9z"/>
<path d="M9670 5960 c0 -5 5 -10 10 -10 6 0 10 5 10 10 0 6 -4 10 -10 10 -5 0
-10 -4 -10 -10z"/>
<path d="M4990 5933 c-16 -6 -30 -23 -30 -37 0 -4 7 -6 15 -2 11 4 15 -2 15
-25 0 -25 4 -30 21 -27 34 5 47 33 29 65 -16 29 -27 34 -50 26z"/>
<path d="M7765 5930 c3 -5 10 -10 16 -10 5 0 9 5 9 10 0 6 -7 10 -16 10 -8 0
-12 -4 -9 -10z"/>
<path d="M7910 5915 c0 -8 5 -15 10 -15 6 0 10 7 10 15 0 8 -4 15 -10 15 -5 0
-10 -7 -10 -15z"/>
<path d="M11164 5919 c-3 -6 -1 -16 5 -22 8 -8 11 -5 11 11 0 24 -5 28 -16 11z"/>
<path d="M4871 5896 c-15 -37 -39 -172 -47 -259 -10 -108 11 -100 26 11 18
123 29 143 29 54 1 -46 5 -71 11 -67 6 3 10 38 10 76 0 65 2 70 25 79 26 10
43 36 31 47 -3 3 -12 0 -21 -7 -20 -17 -26 -10 -32 39 -7 50 -20 61 -32 27z"/>
<path d="M7635 5901 c-10 -17 12 -21 25 -6 10 12 10 15 -3 15 -9 0 -18 -4 -22
-9z"/>
<path d="M7527 5882 c-21 -23 -13 -32 25 -32 29 0 33 6 22 34 -8 21 -27 20
-47 -2z"/>
<path d="M2518 5868 c-16 -28 -16 -166 -1 -193 11 -19 12 -19 23 10 7 17 14
58 17 92 9 98 -10 141 -39 91z"/>
<path d="M7740 5871 c0 -12 5 -21 10 -21 6 0 10 6 10 14 0 8 -4 18 -10 21 -5
3 -10 -3 -10 -14z"/>
<path d="M7804 5876 c-4 -9 -4 -20 0 -23 3 -4 12 -1 18 5 9 9 9 15 0 24 -9 9
-13 7 -18 -6z"/>
<path d="M9870 5862 c0 -16 6 -37 14 -48 13 -17 15 -17 21 -2 6 15 -19 78 -30
78 -3 0 -5 -13 -5 -28z"/>
<path d="M2443 5762 c2 -127 6 -140 51 -155 17 -6 -18 -96 -74 -189 -77 -125
-46 -113 41 16 60 91 78 182 40 208 -15 11 -21 31 -26 98 -4 47 -14 99 -21
115 -12 27 -13 17 -11 -93z"/>
<path d="M9586 5864 c-9 -25 -7 -34 8 -34 16 0 25 19 18 38 -6 17 -19 15 -26
-4z"/>
<path d="M11130 5871 c0 -21 13 -41 26 -41 17 0 18 22 2 38 -14 14 -28 16 -28
3z"/>
<path d="M9450 5861 c0 -6 5 -13 10 -16 6 -3 10 1 10 9 0 9 -4 16 -10 16 -5 0
-10 -4 -10 -9z"/>
<path d="M2092 5848 c3 -7 17 -15 33 -16 25 -3 27 -2 16 12 -16 19 -55 22 -49
4z"/>
<path d="M1415 5840 c3 -5 10 -10 16 -10 5 0 9 5 9 10 0 6 -7 10 -16 10 -8 0
-12 -4 -9 -10z"/>
<path d="M10915 5829 c-4 -12 -2 -26 4 -32 8 -8 11 -2 11 21 0 37 -6 41 -15
11z"/>
<path d="M9630 5830 c0 -5 5 -10 10 -10 6 0 10 5 10 10 0 6 -4 10 -10 10 -5 0
-10 -4 -10 -10z"/>
<path d="M10829 5824 c-12 -14 -11 -16 5 -13 11 2 21 10 24 17 5 17 -13 15
-29 -4z"/>
<path d="M12276 5821 c-4 -5 -2 -12 3 -15 5 -4 12 -2 15 3 4 5 2 12 -3 15 -5
4 -12 2 -15 -3z"/>
<path d="M7610 5806 c0 -15 18 -31 26 -23 7 7 -7 37 -17 37 -5 0 -9 -6 -9 -14z"/>
<path d="M7842 5798 c3 -7 13 -15 22 -16 12 -3 17 1 14 10 -3 7 -13 15 -22 16
-12 3 -17 -1 -14 -10z"/>
<path d="M10974 5795 c-4 -9 -2 -21 3 -26 14 -14 45 1 41 20 -4 22 -37 26 -44
6z"/>
<path d="M9821 5786 c-14 -17 -1 -28 19 -16 11 7 12 12 4 20 -8 8 -14 7 -23
-4z"/>
<path d="M9645 5780 c-4 -6 -3 -16 3 -22 6 -6 12 -6 17 2 4 6 3 16 -3 22 -6 6
-12 6 -17 -2z"/>
<path d="M9726 5782 c-2 -4 -1 -14 5 -22 7 -12 9 -10 9 8 0 23 -5 28 -14 14z"/>
<path d="M9446 5734 c-11 -27 -6 -64 7 -64 7 0 23 -11 35 -25 22 -25 42 -26
42 -1 0 7 -11 23 -24 35 -13 13 -27 34 -30 47 -7 27 -21 31 -30 8z"/>
<path d="M9607 5733 c-11 -10 -8 -43 3 -43 15 0 24 30 13 41 -5 5 -12 6 -16 2z"/>
<path d="M10147 5703 c-40 -64 -77 -141 -77 -162 0 -14 9 -23 25 -27 20 -5 36
4 91 55 37 34 69 59 71 57 2 -2 -6 -20 -18 -40 -11 -20 -17 -36 -12 -36 10 0
63 91 63 108 0 19 -35 1 -100 -49 -36 -27 -66 -45 -68 -39 -2 6 11 45 28 86
36 83 35 107 -3 47z"/>
<path d="M10815 5720 c-10 -16 43 -32 66 -19 11 5 17 14 14 20 -8 12 -72 12
-80 -1z"/>
<path d="M8710 5701 c0 -12 5 -43 12 -68 8 -36 8 -50 -1 -66 -17 -27 2 -48 25
-26 13 14 13 23 0 89 -16 75 -36 115 -36 71z"/>
<path d="M10984 5706 c-4 -10 -2 -22 4 -28 8 -8 13 -7 18 6 4 10 2 22 -4 28
-8 8 -13 7 -18 -6z"/>
<path d="M2281 5686 c-8 -9 -11 -19 -7 -23 9 -9 29 13 24 27 -2 8 -8 7 -17 -4z"/>
<path d="M9821 5672 c-9 -16 -8 -24 5 -36 20 -20 33 -20 41 0 3 9 -3 24 -15
36 l-20 20 -11 -20z"/>
<path d="M12062 5678 c5 -15 48 -18 48 -3 0 6 -11 11 -26 13 -18 3 -25 0 -22
-10z"/>
<path d="M5453 5655 c-38 -16 -46 -40 -10 -30 24 8 53 32 46 39 -2 2 -19 -2
-36 -9z"/>
<path d="M8580 5662 c0 -5 7 -31 15 -58 8 -27 15 -63 15 -81 0 -18 4 -42 9
-55 5 -13 12 -32 16 -43 6 -18 7 -19 16 -3 19 34 -29 236 -59 246 -6 2 -12 0
-12 -6z"/>
<path d="M9615 5660 c3 -5 12 -7 20 -3 21 7 19 13 -6 13 -11 0 -18 -4 -14 -10z"/>
<path d="M9734 5655 c-8 -21 10 -39 30 -32 22 9 20 24 -4 37 -16 9 -22 8 -26
-5z"/>
<path d="M1795 5636 c-83 -36 -133 -64 -170 -97 -72 -64 -21 -54 60 11 22 18
67 46 100 62 66 33 70 36 64 42 -2 2 -26 -6 -54 -18z"/>
<path d="M12152 5638 c6 -18 28 -21 28 -4 0 9 -7 16 -16 16 -9 0 -14 -5 -12
-12z"/>
<path d="M4941 5545 c-20 -147 -27 -177 -51 -195 l-21 -16 21 -19 c13 -11 24
-15 30 -9 16 16 41 190 38 266 l-3 73 -14 -100z"/>
<path d="M8123 5597 c-16 -58 -17 -156 -2 -194 15 -40 29 -12 29 62 l0 60 27
-47 c14 -27 29 -48 33 -48 4 0 -5 45 -19 101 -21 85 -27 98 -37 84 -11 -15
-13 -14 -16 6 -2 17 -6 11 -15 -24z"/>
<path d="M10870 5622 c-30 -20 -40 -33 -34 -44 7 -12 42 9 55 33 14 28 9 30
-21 11z"/>
<path d="M1925 5610 c6 -20 -21 -69 -39 -70 -20 0 -296 -236 -296 -252 0 -22
18 -10 197 125 73 54 135 108 138 118 8 25 17 24 46 -7 13 -15 39 -33 57 -40
34 -15 42 -46 22 -84 -23 -44 -276 -262 -364 -316 -78 -47 -169 -112 -282
-202 -16 -13 -21 -21 -11 -18 21 6 22 -12 3 -33 -8 -9 -18 -48 -22 -86 -4 -39
-11 -75 -16 -81 -11 -14 -74 -27 -88 -19 -6 4 -4 15 5 28 19 27 19 47 1 47 -7
0 -16 14 -20 31 -9 45 -8 49 12 49 10 0 27 7 38 14 18 14 18 15 -13 26 -38 14
-38 16 -18 93 19 75 19 89 -2 85 -14 -2 -18 4 -18 27 0 26 5 32 39 43 56 18
65 6 53 -64 -7 -42 -6 -58 3 -64 9 -5 9 -9 1 -14 -6 -4 -11 -24 -11 -44 l0
-37 20 31 c11 17 24 54 30 83 12 63 14 67 40 74 18 4 20 0 20 -34 0 -44 1 -45
38 -25 15 7 44 21 64 29 37 16 111 99 123 138 7 22 -5 43 -12 22 -2 -7 -11 -9
-19 -6 -10 4 -14 -3 -14 -22 0 -47 -95 -128 -114 -97 -3 5 1 30 9 57 20 66 19
75 -11 75 l-26 0 32 40 c17 22 26 40 20 40 -16 0 -194 -96 -242 -130 -20 -15
-58 -33 -84 -40 -43 -12 -48 -12 -60 5 -18 25 -18 45 2 73 21 30 0 28 -24 -3
-30 -38 -48 -88 -34 -93 19 -6 14 -30 -7 -37 -21 -6 -31 -33 -31 -88 0 -42 17
-84 55 -137 24 -32 25 -39 19 -120 -7 -92 -12 -106 -49 -146 -14 -15 -25 -35
-25 -45 0 -9 -10 -30 -23 -46 -22 -27 -75 -155 -113 -273 -12 -35 -18 -89 -19
-150 -1 -66 -6 -106 -18 -132 -19 -43 -23 -113 -5 -124 6 -4 19 4 29 18 17 23
22 24 73 17 41 -5 71 -18 121 -53 38 -26 71 -44 74 -40 6 6 -67 77 -109 106
l-25 17 29 27 29 26 34 -39 c21 -24 30 -29 23 -15 -7 13 -28 41 -47 63 -28 31
-42 39 -70 39 -33 0 -34 1 -19 22 20 29 21 68 1 68 -8 0 -15 2 -15 4 0 2 7 23
15 46 8 23 15 51 15 62 0 39 -29 -1 -36 -50 -9 -61 -20 -82 -44 -82 -17 0 -20
7 -20 44 0 139 85 352 184 462 31 34 67 65 81 68 41 10 84 -15 124 -74 26 -40
42 -55 59 -54 25 1 28 -8 9 -24 -7 -6 -24 -34 -37 -62 -20 -42 -22 -55 -12
-68 23 -32 24 -43 7 -62 -11 -12 -20 -46 -25 -88 -4 -39 -10 -74 -14 -80 -10
-16 -131 -26 -167 -13 -36 12 -80 -1 -46 -15 10 -4 30 -31 44 -61 34 -71 74
-113 107 -113 22 0 25 3 17 18 -5 9 -19 26 -30 36 l-21 19 40 18 c47 21 50 33
13 53 l-28 15 32 1 c18 0 41 -7 50 -16 10 -9 41 -30 68 -48 41 -26 50 -37 48
-59 -2 -29 6 -34 24 -16 18 18 49 1 87 -45 49 -60 194 -150 276 -171 70 -18
134 -50 164 -84 15 -17 16 -21 4 -21 -8 0 -43 -14 -76 -31 -84 -42 -109 -85
-123 -211 -15 -136 -29 -198 -46 -205 -40 -15 -277 93 -338 154 -22 22 -39 31
-50 27 -31 -12 49 -78 188 -154 32 -18 38 -25 33 -43 -19 -64 -27 -175 -36
-502 -9 -354 -10 -362 -40 -480 -40 -152 -48 -283 -26 -378 22 -93 21 -117 -4
-117 -31 0 -24 -14 31 -64 51 -46 69 -55 69 -36 0 18 21 11 61 -21 50 -39 67
-34 34 11 -42 57 -48 99 -41 282 5 136 3 186 -10 262 l-17 95 27 62 c15 35 31
98 37 143 6 45 15 101 21 126 10 44 15 91 38 370 6 74 15 146 21 159 9 21 14
23 62 19 34 -3 64 -12 84 -27 17 -13 48 -27 70 -31 21 -4 65 -15 98 -23 33 -8
76 -18 95 -21 19 -3 50 -15 68 -26 31 -19 32 -21 32 -93 0 -50 5 -80 16 -95
22 -32 30 -254 14 -392 -7 -58 -15 -290 -19 -516 -6 -364 -9 -414 -24 -437
-25 -38 -70 -43 -143 -17 -32 12 -78 28 -102 36 -23 7 -50 20 -58 29 -9 8 -27
15 -40 15 -14 0 -47 11 -74 25 -51 26 -90 32 -90 15 0 -5 9 -10 20 -10 10 0
35 -14 54 -31 32 -27 40 -30 79 -24 l44 7 26 -56 c34 -72 102 -141 148 -150
19 -4 75 -13 124 -21 50 -7 110 -20 134 -29 60 -23 157 -42 281 -55 152 -17
219 -30 261 -51 29 -15 63 -20 167 -22 l130 -3 31 29 c43 41 129 48 203 16 41
-18 66 -21 122 -18 61 3 85 10 168 51 63 32 110 62 134 89 l37 41 -6 111 c-10
182 -46 707 -53 761 -3 28 -16 113 -29 190 -13 77 -26 162 -30 188 -5 38 -16
59 -52 99 -59 67 -83 122 -90 209 -5 55 -12 78 -30 100 -40 47 -62 31 -24 -17
13 -16 22 -48 26 -92 9 -105 34 -170 77 -205 21 -16 42 -44 47 -61 17 -55 70
-368 80 -476 12 -122 44 -639 45 -720 1 -55 1 -55 -31 -58 -32 -3 -44 10 -22
24 6 3 8 17 5 30 -3 12 -2 53 4 91 7 55 6 72 -6 90 -12 20 -13 27 0 51 16 31
7 64 -26 99 -21 22 -21 26 -8 110 9 61 10 88 2 91 -6 2 -9 9 -6 17 3 7 1 23
-6 34 -8 16 -7 28 5 50 18 35 24 84 10 91 -5 3 -20 -10 -32 -29 -27 -39 -30
-21 -7 35 13 32 15 59 10 144 -11 185 -16 211 -36 205 -15 -5 -18 3 -22 45 -6
63 -20 80 -46 57 -17 -15 -18 -14 -19 25 -2 48 -7 55 -28 38 -18 -15 -19 -7
-5 21 15 27 2 86 -26 116 -18 19 -24 38 -24 72 0 67 -10 77 -51 56 -19 -10
-42 -25 -52 -34 -11 -9 -39 -20 -64 -26 -55 -12 -57 -28 -4 -37 73 -12 83 -24
131 -150 12 -31 46 -100 76 -153 54 -94 55 -95 39 -123 -9 -15 -32 -38 -51
-51 -31 -21 -52 -56 -41 -67 10 -11 59 22 73 48 19 37 40 35 60 -4 15 -28 15
-38 1 -107 -9 -43 -15 -128 -15 -196 0 -98 -4 -130 -21 -173 -13 -32 -21 -77
-22 -115 -1 -70 -11 -103 -53 -164 -15 -23 -26 -49 -23 -56 3 -7 24 -19 47
-26 54 -16 70 -52 70 -158 0 -89 -11 -111 -64 -137 -50 -24 -99 -21 -134 9
-26 21 -40 25 -100 25 -54 0 -79 5 -106 21 -29 17 -44 19 -95 13 l-61 -7 -1
99 c0 82 -2 94 -11 69 -6 -16 -17 -37 -24 -46 -18 -20 -18 -49 1 -75 8 -12 11
-24 8 -28 -12 -12 -118 -6 -143 9 -14 8 -40 21 -57 30 -37 17 -40 31 -16 73
16 28 16 34 0 103 -12 51 -17 115 -17 209 0 74 -5 295 -12 490 -12 354 -12
355 10 419 12 36 22 81 22 101 0 53 18 71 80 81 29 5 82 18 118 29 46 15 68
18 75 11 14 -14 53 -14 80 0 12 7 51 31 87 54 36 23 93 53 127 65 35 12 68 29
75 37 21 26 41 86 45 141 6 61 -26 179 -54 204 -10 8 -45 18 -78 21 -77 8
-174 33 -248 63 -37 16 -93 28 -156 34 -54 5 -118 14 -142 19 -24 5 -78 12
-119 16 -41 4 -101 18 -132 30 -31 13 -76 26 -100 30 -130 21 -246 48 -287 66
-25 11 -64 26 -86 33 -22 7 -81 40 -131 73 -51 33 -106 63 -123 66 -18 4 -30
11 -27 16 3 4 -15 11 -40 14 -95 10 -259 121 -252 170 3 21 9 22 98 24 106 2
173 14 222 39 59 30 157 105 196 149 36 41 39 50 51 142 7 55 12 148 10 208
-2 106 15 266 42 387 12 52 11 66 -14 165 -14 59 -31 134 -37 167 -7 32 -21
84 -31 115 -13 35 -19 78 -18 118 2 68 -10 93 -46 93 -17 0 -24 9 -34 39 -8
28 -22 45 -47 60 -35 21 -35 21 -29 1z m-495 -441 c0 -15 -33 -69 -42 -69 -14
0 -8 43 9 62 18 20 33 24 33 7z m-226 -134 c6 -17 -2 -45 -14 -45 -16 0 -39
31 -34 45 8 19 40 19 48 0z m-94 -80 c0 -25 -4 -45 -10 -45 -11 0 -14 73 -3
83 11 12 13 8 13 -38z m118 -57 c25 -25 14 -39 -30 -36 -44 3 -56 20 -18 26
11 2 20 8 20 13 0 13 14 11 28 -3z m252 -182 c0 -3 -4 -8 -10 -11 -5 -3 -10
-1 -10 4 0 6 5 11 10 11 6 0 10 -2 10 -4z m236 -133 c-10 -10 -19 5 -10 18 6
11 8 11 12 0 2 -7 1 -15 -2 -18z m-311 -3 c10 -11 24 -20 32 -20 23 0 14 -20
-14 -31 -34 -13 -53 -5 -53 21 0 13 -7 20 -20 20 -11 0 -20 4 -20 8 0 28 50
29 75 2z m395 -110 c-6 -11 -15 -20 -21 -20 -6 0 -6 7 1 20 6 11 15 20 21 20
6 0 6 -7 -1 -20z m-240 -170 c0 -5 -8 -10 -17 -10 -15 0 -16 2 -3 10 19 12 20
12 20 0z m10 -109 c-15 -29 -30 -35 -30 -13 0 22 8 32 27 32 10 0 11 -5 3 -19z
m10 -61 c0 -5 -4 -10 -10 -10 -5 0 -10 5 -10 10 0 6 5 10 10 10 6 0 10 -4 10
-10z m-350 -105 c0 -22 -24 -29 -51 -14 -23 12 -23 12 -4 20 33 13 55 10 55
-6z m1001 -525 c49 -17 113 -34 142 -37 28 -3 57 -9 62 -14 6 -4 38 -12 72
-18 34 -5 71 -14 82 -20 10 -6 72 -20 138 -30 65 -11 153 -27 196 -36 43 -8
94 -15 112 -15 18 0 66 -13 107 -29 40 -16 94 -32 121 -36 26 -4 47 -11 47
-15 0 -4 -20 -15 -45 -25 -38 -14 -144 -85 -202 -135 -19 -16 -17 -87 3 -94
12 -5 15 -14 11 -35 -4 -20 -2 -31 8 -35 19 -7 19 -26 1 -26 -11 0 -13 -9 -9
-37 9 -58 9 -66 -4 -70 -7 -3 -16 18 -23 54 -7 32 -17 67 -24 78 -6 11 -18 40
-26 65 l-15 45 -65 7 c-36 4 -90 12 -120 18 -30 5 -119 16 -197 25 -115 12
-149 19 -172 36 -25 18 -39 21 -101 17 -61 -3 -75 -8 -91 -27 -23 -28 -25 -67
-4 -75 17 -6 20 -52 4 -61 -16 -11 -114 4 -135 20 -15 11 -17 18 -8 31 14 24
34 29 34 10 0 -9 4 -16 9 -16 15 0 24 77 17 144 l-7 61 118 -6 c65 -3 131 -11
148 -18 16 -7 98 -15 183 -18 84 -3 155 -9 157 -13 7 -12 -72 -29 -175 -39
-87 -8 -79 -9 100 -9 107 0 213 -5 235 -11 86 -23 141 -6 96 30 -31 26 -107
45 -267 68 -170 25 -322 62 -368 90 -29 18 -49 21 -118 20 -46 -1 -96 4 -111
10 -16 6 -40 11 -55 11 l-27 0 30 25 c22 18 26 24 13 25 -19 0 -88 68 -88 87
0 7 10 21 22 33 31 28 84 26 189 -10z m-237 -88 c11 -18 -12 -35 -38 -28 -19
5 -26 3 -26 -9 0 -23 39 -42 100 -50 68 -8 120 -24 120 -36 0 -5 -29 -9 -64
-9 -61 0 -89 -11 -66 -25 5 -3 10 -31 10 -60 l0 -55 -25 12 c-14 6 -28 22 -30
35 -3 13 -7 34 -10 48 -4 17 -12 25 -25 25 -23 0 -24 -1 -9 -34 14 -30 4 -76
-16 -76 -10 0 -15 11 -15 33 l0 32 -30 -50 c-30 -51 -39 -50 -19 2 6 15 15 69
20 118 13 112 26 135 79 135 21 0 41 -4 44 -8z m336 -122 c18 -6 8 -8 -40 -9
-45 0 -60 2 -50 9 18 11 55 11 90 0z m-135 -31 c-8 -12 -45 -12 -45 0 0 10 30
20 43 14 4 -3 5 -9 2 -14z m-78 -78 c12 -50 12 -55 -9 -92 -24 -43 -48 -51
-49 -16 -6 156 29 221 58 108z m1288 10 c-3 -6 -11 -11 -17 -11 -6 0 -6 6 2
15 14 17 26 13 15 -4z m81 -16 c16 -39 12 -57 -11 -48 -10 3 -15 19 -15 44 0
48 7 49 26 4z m-546 -25 c12 -8 10 -10 -10 -10 -14 0 -32 5 -40 10 -12 8 -10
10 10 10 14 0 32 -5 40 -10z m-543 -36 c-3 -3 -12 -4 -19 -1 -8 3 -5 6 6 6 11
1 17 -2 13 -5z m-366 -49 c23 -52 18 -71 -14 -53 -12 6 -37 14 -56 17 -19 4
-36 12 -39 20 -3 10 2 12 20 8 20 -5 26 -1 35 23 16 42 31 37 54 -15z m439 10
c69 -8 148 -15 177 -15 28 0 54 -3 56 -7 2 -5 -1 -32 -6 -60 l-9 -53 -57 0
c-36 0 -65 6 -79 16 -30 21 -35 14 -42 -48 -6 -60 -32 -86 -55 -54 -8 10 -16
23 -17 28 -2 5 -24 11 -49 13 -26 3 -62 12 -80 20 l-34 16 47 -4 c39 -4 47 -1
51 14 3 11 14 19 26 19 25 0 26 12 5 46 -32 48 -104 68 -104 29 0 -9 -4 -13
-10 -10 -5 3 -10 22 -10 42 0 35 1 35 33 29 17 -4 88 -13 157 -21z m626 -31
c-3 -8 -10 -12 -16 -9 -7 4 -6 14 2 28 12 24 24 8 14 -19z m-326 -20 c0 -14
-3 -14 -15 -4 -8 7 -15 14 -15 16 0 2 7 4 15 4 8 0 15 -7 15 -16z m210 -20
c13 -34 13 -124 0 -124 -6 0 -13 7 -16 15 -8 20 -21 19 -27 -2 -3 -12 -5 -8
-6 9 0 15 4 30 10 34 7 4 9 22 4 50 -5 36 -3 44 10 44 8 0 20 -12 25 -26z
m-623 -6 c-3 -8 -6 -5 -6 6 -1 11 2 17 5 13 3 -3 4 -12 1 -19z m418 -18 c7 0
15 9 18 20 5 20 32 26 53 12 18 -13 54 -92 54 -120 0 -47 10 -68 41 -86 46
-27 34 -35 -29 -21 -88 21 -117 34 -104 47 8 8 18 6 38 -7 l27 -17 -5 52 c-3
29 -9 55 -14 59 -5 3 -15 18 -21 34 -13 28 -33 37 -33 13 0 -7 -7 -19 -15 -26
-8 -7 -15 -28 -15 -46 0 -57 -16 -38 -33 38 -17 77 -12 105 11 70 8 -12 20
-22 27 -22z m139 24 c25 -24 19 -36 -9 -18 -14 9 -22 20 -19 25 7 12 10 11 28
-7z m256 -54 c0 -17 12 -21 63 -21 33 0 62 -38 52 -68 -6 -20 -71 -71 -107
-84 -15 -5 -18 -1 -18 23 0 20 -5 30 -15 30 -12 0 -15 15 -15 73 0 41 3 77 7
80 9 10 33 -13 33 -33z m-509 -117 c-8 -15 -10 -10 -11 23 0 22 3 44 8 48 11
12 14 -52 3 -71z m-124 35 c-3 -8 -6 -5 -6 6 -1 11 2 17 5 13 3 -3 4 -12 1
-19z m493 -3 c0 -14 -4 -25 -10 -25 -5 0 -10 11 -10 25 0 14 5 25 10 25 6 0
10 -11 10 -25z m-715 5 c3 -5 2 -10 -4 -10 -5 0 -13 5 -16 10 -3 6 -2 10 4 10
5 0 13 -4 16 -10z m96 -110 c4 -18 17 -41 28 -49 19 -15 23 -32 31 -156 6 -77
15 -167 20 -201 6 -39 7 -72 1 -86 -5 -14 -6 -40 -1 -59 7 -28 8 -30 9 -9 2
34 39 112 40 84 1 -11 4 -24 8 -28 12 -11 32 -98 33 -138 0 -20 5 -40 10 -43
6 -3 10 -28 10 -54 0 -38 -5 -52 -21 -62 -17 -12 -19 -18 -10 -42 14 -37 14
-126 0 -182 -12 -49 -4 -131 11 -104 5 8 14 71 20 139 6 69 13 127 16 129 2 2
4 -1 4 -8 0 -7 6 -11 14 -8 14 6 26 -49 26 -119 0 -21 6 -37 17 -42 16 -9 16
-14 0 -80 -9 -38 -17 -88 -17 -110 0 -22 -6 -44 -13 -50 -7 -6 -44 -14 -82
-17 -43 -4 -92 -16 -128 -33 -47 -21 -60 -24 -66 -13 -7 11 -11 9 -20 -5 -14
-26 -13 -9 3 54 14 50 13 55 -5 73 -11 11 -17 24 -14 29 3 5 1 11 -5 15 -6 4
-4 19 6 43 9 20 18 43 21 50 3 7 -2 12 -12 12 -14 0 -13 4 6 31 16 24 20 36
12 48 -7 11 -5 27 8 56 14 33 16 59 12 153 -3 61 -9 112 -14 112 -4 0 -19 -15
-33 -32 -37 -48 -32 -16 11 64 29 52 35 72 27 85 -11 18 -3 72 32 206 15 60
19 87 11 84 -12 -3 -41 -54 -52 -91 -4 -15 -8 -17 -17 -8 -9 9 -9 31 0 89 6
43 15 128 18 188 4 61 9 114 11 118 10 17 28 -1 34 -33z m407 9 c34 -6 62 -13
62 -15 0 -3 -11 -17 -24 -31 -17 -18 -26 -43 -31 -82 -4 -31 -14 -72 -22 -91
-11 -24 -17 -87 -22 -205 l-6 -170 -64 135 c-36 74 -79 176 -97 225 -17 50
-44 121 -58 158 -40 105 -44 101 87 93 61 -3 140 -11 175 -17z m-488 -613 c0
-8 -7 -19 -15 -26 -13 -10 -15 -9 -15 12 0 14 3 28 6 31 9 9 24 -2 24 -17z
m1385 -195 c-3 -6 -11 -11 -17 -11 -6 0 -6 6 2 15 14 17 26 13 15 -4z m-35
-224 c0 -18 -36 -51 -44 -39 -6 10 21 52 35 52 5 0 9 -6 9 -13z m70 -102 c-7
-9 -15 -13 -17 -11 -7 7 7 26 19 26 6 0 6 -6 -2 -15z m-955 -85 c3 -5 3 -15
-1 -21 -6 -11 -23 6 -24 24 0 10 18 9 25 -3z m1005 -317 c0 -5 -7 -17 -15 -27
-15 -20 -20 -10 -9 18 6 16 24 22 24 9z m-115 -93 c-10 -11 -20 -18 -23 -15
-7 6 18 35 31 35 5 0 2 -9 -8 -20z"/>
<path d="M2460 2981 c0 -11 5 -23 10 -26 6 -3 10 3 10 14 0 11 -4 23 -10 26
-5 3 -10 -3 -10 -14z"/>
<path d="M2447 2106 c-13 -91 -1 -528 14 -476 9 31 9 372 0 460 l-6 65 -8 -49z"/>
<path d="M3348 5603 c-15 -16 -33 -46 -42 -68 -22 -60 -92 -374 -111 -505 -17
-113 -17 -118 4 -213 12 -53 21 -128 21 -167 0 -68 1 -72 39 -112 35 -38 42
-41 87 -40 71 1 233 -17 254 -28 10 -6 49 -13 87 -18 l68 -7 -2 -150 c-2 -155
7 -173 26 -54 13 78 15 609 2 609 -14 0 -21 -27 -21 -80 0 -27 -5 -61 -11 -77
-17 -47 -29 -8 -29 102 0 96 -10 139 -27 121 -4 -4 -8 -65 -9 -134 l-1 -127
-79 -48 c-80 -48 -141 -71 -225 -82 -40 -6 -50 -4 -75 19 -20 17 -24 25 -13
26 8 0 20 -5 27 -12 9 -9 19 -5 45 20 22 22 39 30 50 26 9 -3 17 -2 17 3 0 14
-35 44 -42 37 -12 -11 -21 111 -15 201 l6 91 -32 -4 c-33 -4 -33 -3 -29 32 3
28 1 36 -12 36 -13 0 -11 10 14 60 34 66 40 101 15 80 -12 -10 -15 -9 -15 6
-1 17 -3 16 -20 -5 -33 -39 -24 0 25 113 49 112 55 137 30 116 -26 -22 -18 7
27 90 41 75 42 79 25 97 -9 11 -17 32 -17 46 0 34 -10 34 -42 0z"/>
<path d="M9593 5618 c2 -7 12 -13 22 -13 10 0 20 6 23 13 2 7 -6 12 -23 12
-17 0 -25 -5 -22 -12z"/>
<path d="M12190 5603 c1 -29 58 -63 106 -63 32 0 30 14 -3 38 -30 20 -103 38
-103 25z"/>
<path d="M5334 5565 c-3 -14 -3 -46 1 -71 5 -35 10 -44 23 -42 14 3 16 13 14
55 -2 30 1 54 7 58 16 9 4 25 -19 25 -13 0 -22 -9 -26 -25z"/>
<path d="M5480 5581 c-16 -4 -26 -15 -28 -30 l-4 -24 33 19 c18 11 34 25 37
32 4 13 0 14 -38 3z"/>
<path d="M12380 5575 c0 -8 5 -15 10 -15 6 0 10 7 10 15 0 8 -4 15 -10 15 -5
0 -10 -7 -10 -15z"/>
<path d="M8550 5518 c0 -2 6 -23 14 -48 13 -43 14 -44 21 -18 10 37 3 62 -18
66 -9 2 -17 2 -17 0z"/>
<path d="M4056 5467 c-3 -14 -10 -80 -16 -148 -6 -68 -15 -155 -20 -194 -5
-38 -8 -97 -7 -130 1 -33 -6 -114 -16 -179 -22 -136 -28 -349 -11 -366 8 -8
13 38 17 167 3 102 13 212 22 258 9 44 20 114 25 155 4 41 13 95 20 120 16 64
28 226 21 284 -7 54 -25 71 -35 33z"/>
<path d="M12367 5454 c-11 -12 3 -24 28 -24 13 0 26 4 29 9 10 15 -43 29 -57
15z"/>
<path d="M1829 5395 c-7 -10 -59 -171 -59 -181 0 -2 4 -4 9 -4 17 0 62 119 59
158 -2 20 -6 33 -9 27z"/>
<path d="M12547 5393 c-4 -3 -7 -13 -7 -21 0 -12 3 -12 15 -2 8 7 15 16 15 21
0 11 -14 12 -23 2z"/>
<path d="M4431 5365 c0 -11 8 -56 18 -100 32 -134 61 -285 61 -321 0 -36 -8
-42 -28 -22 -9 9 -12 7 -12 -8 0 -25 34 -59 49 -49 17 10 13 125 -9 237 -21
109 -77 297 -79 263z"/>
<path d="M8632 5355 c0 -16 2 -22 5 -12 2 9 2 23 0 30 -3 6 -5 -1 -5 -18z"/>
<path d="M1375 5361 c-6 -6 -35 -23 -65 -39 -29 -16 -56 -35 -58 -42 -3 -7 28
5 69 27 40 22 75 45 77 52 4 13 -10 15 -23 2z"/>
<path d="M5125 5340 c-19 -37 -19 -62 0 -36 22 29 19 5 -9 -94 -25 -86 -44
-190 -33 -180 13 12 79 238 84 288 5 43 3 52 -10 52 -9 0 -23 -13 -32 -30z"/>
<path d="M8087 5350 c-3 -14 -11 -88 -16 -165 -6 -77 -16 -187 -23 -245 -7
-58 -11 -148 -11 -201 l1 -96 -45 -7 c-79 -11 -83 -9 -83 27 0 57 -10 73 -68
111 -52 34 -62 37 -113 34 -68 -5 -200 -65 -224 -102 -12 -18 -15 -36 -11 -61
10 -51 -10 -111 -53 -158 -21 -23 -64 -89 -97 -147 l-59 -105 0 -207 c0 -125
4 -211 10 -217 6 -6 28 -8 49 -4 30 5 43 14 62 45 14 21 50 55 82 75 73 46
129 94 254 216 55 53 103 95 107 92 15 -8 111 45 157 87 24 22 46 39 48 37 2
-2 8 -44 13 -94 8 -76 11 -86 20 -65 7 16 7 76 2 175 -22 419 -22 492 0 710
15 146 19 222 13 250 -8 36 -10 37 -15 15z m-302 -584 c31 -13 35 -19 35 -50
0 -36 -21 -68 -150 -229 -42 -53 -68 -75 -115 -97 -55 -27 -116 -77 -189 -159
-47 -53 -53 -23 -12 60 20 40 36 78 36 84 0 5 19 33 43 60 84 98 91 112 89
184 -1 39 3 70 11 79 20 25 149 82 185 82 18 0 48 -7 67 -14z m95 -181 c0 -44
-4 -96 -10 -115 -7 -24 -7 -45 1 -68 11 -34 4 -57 -10 -33 -5 8 -14 41 -21 75
-7 33 -15 65 -18 70 -10 18 -20 -20 -27 -101 -4 -47 -11 -99 -16 -116 -7 -26
-6 -34 8 -45 14 -10 15 -16 7 -30 -13 -20 -124 -112 -136 -112 -4 0 -8 15 -8
32 0 31 -1 31 -14 12 -8 -11 -19 -38 -25 -61 -12 -45 -53 -84 -168 -162 l-63
-42 0 83 c1 79 1 82 16 56 29 -55 74 -26 119 77 17 41 34 64 52 72 19 9 29 10
34 2 13 -22 20 10 19 84 -1 39 -1 82 -1 93 1 23 20 50 130 182 35 42 75 94 89
115 33 49 42 35 42 -68z m-310 -276 c0 -21 -4 -39 -10 -39 -11 0 -24 65 -15
80 12 20 25 -1 25 -41z m267 -9 c-11 -19 -27 -27 -27 -14 0 15 22 44 30 39 6
-4 5 -14 -3 -25z m-343 -178 c-19 -50 -30 -47 -39 10 -7 39 -8 41 -22 22 -12
-17 -14 -12 -11 51 3 67 4 70 38 93 l35 23 7 -78 c6 -60 4 -88 -8 -121z"/>
<path d="M7653 4671 c1 -27 -7 -51 -27 -81 -15 -23 -26 -46 -24 -52 5 -15 78
51 101 91 18 30 18 31 -1 31 -13 0 -22 9 -26 25 -10 39 -25 30 -23 -14z"/>
<path d="M7670 4345 c0 -66 4 -97 16 -113 25 -35 34 -17 34 68 0 70 -3 82 -25
107 l-24 28 -1 -90z"/>
<path d="M12436 5361 c-4 -7 -5 -15 -2 -18 9 -9 19 4 14 18 -4 11 -6 11 -12 0z"/>
<path d="M3557 5301 c-4 -19 -7 -106 -7 -194 0 -154 1 -160 18 -144 15 16 17
36 14 174 -4 165 -13 225 -25 164z"/>
<path d="M8246 5272 c-9 -39 2 -115 15 -106 11 6 11 91 0 119 -7 17 -9 16 -15
-13z"/>
<path d="M12627 5236 c-6 -16 2 -28 14 -20 12 7 11 34 0 34 -5 0 -11 -6 -14
-14z"/>
<path d="M12550 5225 c0 -10 7 -15 18 -13 21 4 19 22 -2 26 -10 2 -16 -3 -16
-13z"/>
<path d="M3471 5035 c-1 -165 9 -234 23 -165 10 53 5 232 -9 285 -12 47 -13
39 -14 -120z"/>
<path d="M12547 5174 c-4 -4 -7 -14 -7 -23 0 -11 3 -12 11 -4 6 6 10 16 7 23
-2 6 -7 8 -11 4z"/>
<path d="M5161 5129 c-1 -24 7 -45 23 -64 14 -16 28 -40 31 -54 4 -14 13 -41
22 -60 l16 -36 7 30 c4 17 8 52 9 79 1 47 0 49 -15 30 -11 -14 -17 -16 -21 -6
-3 7 -16 26 -29 41 -13 16 -28 39 -33 52 -9 22 -10 21 -10 -12z"/>
<path d="M2340 5061 c0 -39 5 -73 10 -76 6 -4 10 22 10 69 0 44 -4 76 -10 76
-6 0 -10 -30 -10 -69z"/>
<path d="M12562 5078 c-15 -15 -16 -38 -2 -38 12 0 23 25 18 40 -2 7 -7 7 -16
-2z"/>
<path d="M0 5049 c0 -5 5 -7 10 -4 5 3 10 8 10 11 0 2 -4 4 -10 4 -5 0 -10 -5
-10 -11z"/>
<path d="M12651 5014 c0 -11 3 -14 6 -6 3 7 2 16 -1 19 -3 4 -6 -2 -5 -13z"/>
<path d="M12575 5009 c-10 -15 3 -25 16 -12 7 7 7 13 1 17 -6 3 -14 1 -17 -5z"/>
<path d="M4414 4938 c9 -54 25 -84 26 -47 0 42 -12 89 -23 89 -6 0 -7 -16 -3
-42z"/>
<path d="M11230 4928 c-7 -29 -14 -83 -17 -120 -8 -98 12 -86 26 15 6 45 14
99 17 120 9 57 -13 45 -26 -15z"/>
<path d="M4992 4866 c4 -63 21 -102 40 -90 5 4 5 10 0 17 -6 7 -13 40 -17 75
-9 83 -29 82 -23 -2z"/>
<path d="M4227 4775 c-3 -44 -10 -127 -14 -185 -6 -89 -8 -99 -14 -65 -5 22
-7 85 -6 140 1 55 -2 106 -6 113 -14 21 -57 14 -66 -10 -9 -25 4 -102 24 -139
18 -33 31 -92 45 -204 6 -49 13 -99 17 -109 5 -19 6 -19 16 0 6 11 12 116 15
259 5 253 0 334 -11 200z"/>
<path d="M6787 4750 c-202 -95 -223 -108 -208 -123 5 -5 25 0 53 16 81 47 345
157 376 157 18 0 42 -10 59 -24 l28 -24 -21 -28 c-30 -41 -209 -153 -294 -184
-30 -11 -74 -27 -96 -36 -23 -8 -54 -28 -70 -44 -38 -38 -44 -37 -44 5 0 23
-5 35 -14 35 -16 0 -51 -67 -61 -118 -4 -21 -15 -36 -29 -42 -13 -5 -42 -43
-71 -96 l-50 -89 -3 72 c-2 48 2 84 13 109 21 52 18 63 -10 32 -42 -49 -51
-120 -31 -271 20 -157 35 -662 25 -827 -4 -63 -4 -155 1 -205 5 -49 14 -175
20 -280 11 -198 24 -305 41 -336 26 -49 264 -72 459 -45 62 9 153 12 265 8
120 -3 210 0 305 12 74 8 216 23 315 31 194 17 317 35 435 65 87 22 219 36
415 45 77 4 183 10 235 15 124 12 406 64 454 84 21 9 49 16 63 16 33 0 83 51
83 84 0 35 -16 40 -175 60 -72 10 -197 28 -280 42 -221 36 -474 63 -700 74
-129 6 -234 17 -295 30 -185 40 -335 60 -450 60 -138 0 -154 4 -170 38 -6 15
-40 72 -74 127 -70 111 -89 161 -111 283 -36 205 -77 1043 -56 1140 15 73 14
143 -4 169 -14 20 -91 53 -124 53 -9 0 -101 -40 -204 -90z m125 -233 c-20 -21
-30 -57 -16 -57 3 0 19 11 36 25 16 14 34 25 39 25 5 0 9 -21 9 -47 0 -27 7
-56 15 -67 24 -31 28 -98 12 -182 -9 -45 -18 -168 -21 -284 -6 -184 -5 -203 9
-186 8 11 15 34 15 50 0 40 12 58 33 50 24 -9 35 -60 47 -219 18 -237 51 -437
84 -517 29 -68 13 -173 -42 -286 -31 -64 -171 -215 -215 -231 -16 -6 -50 -11
-76 -11 -26 0 -70 -7 -97 -15 -27 -8 -50 -15 -50 -15 -1 0 -4 28 -8 63 -3 34
-20 131 -36 215 -43 220 -49 286 -60 682 -16 596 -19 657 -43 754 l-21 89 27
23 c15 13 57 32 93 43 35 12 85 34 109 51 58 40 124 70 154 70 l24 0 -21 -23z
m-411 -199 c0 -2 7 -57 15 -123 26 -221 27 -265 10 -360 -18 -102 -21 -164 -7
-149 5 5 14 25 19 44 7 26 11 -14 16 -165 10 -308 25 -474 57 -665 16 -96 32
-216 36 -266 6 -90 6 -91 -18 -97 -36 -10 -107 -8 -113 2 -4 6 -21 5 -42 -1
-49 -13 -60 0 -74 87 -16 97 -29 447 -30 780 -1 154 -5 375 -9 490 -8 191 -7
212 9 235 10 14 30 50 45 80 34 67 63 110 76 110 5 0 9 -1 10 -2z"/>
<path d="M6782 4368 c-14 -14 -16 -58 -4 -58 9 0 32 44 32 60 0 14 -14 12 -28
-2z"/>
<path d="M6760 4174 c0 -3 16 -38 35 -78 19 -40 38 -88 42 -107 3 -19 14 -50
24 -69 10 -19 23 -67 29 -107 10 -62 9 -76 -6 -105 -21 -42 -152 -205 -170
-212 -16 -6 -19 -62 -4 -71 5 -3 26 20 47 52 20 32 63 93 95 135 32 42 63 87
69 101 13 30 -1 142 -31 232 -11 33 -26 85 -35 116 -10 37 -26 67 -47 88 -30
29 -48 39 -48 25z"/>
<path d="M6730 3985 c0 -20 7 -50 17 -68 9 -18 22 -52 28 -77 12 -45 12 -45
20 -16 5 17 3 40 -3 55 -6 14 -19 52 -29 83 -21 66 -33 74 -33 23z"/>
<path d="M6974 3078 c21 -77 46 -115 46 -69 0 27 -50 151 -60 151 -5 0 2 -37
14 -82z"/>
<path d="M6796 3142 c-9 -15 13 -169 38 -267 l24 -90 -3 130 c-2 96 -7 142
-20 175 -21 53 -30 65 -39 52z"/>
<path d="M6451 3273 c-11 -21 -31 -127 -30 -157 0 -16 5 -13 17 14 16 35 17
33 25 -130 14 -298 15 -308 48 -343 30 -34 39 -22 14 17 -12 18 -18 80 -25
282 -6 143 -13 273 -16 291 -6 39 -20 50 -33 26z"/>
<path d="M12600 4824 c0 -8 5 -12 10 -9 6 3 10 10 10 16 0 5 -4 9 -10 9 -5 0
-10 -7 -10 -16z"/>
<path d="M2286 4801 c-10 -11 -13 -22 -8 -25 5 -3 17 3 26 13 10 11 13 22 8
25 -5 3 -17 -3 -26 -13z"/>
<path d="M2350 4764 c0 -34 4 -53 10 -49 6 3 10 28 10 56 0 27 -4 49 -10 49
-5 0 -10 -25 -10 -56z"/>
<path d="M12663 4795 c-8 -22 6 -33 17 -15 13 20 12 30 0 30 -6 0 -13 -7 -17
-15z"/>
<path d="M2196 4722 c-3 -6 -1 -14 5 -17 15 -10 25 3 12 16 -7 7 -13 7 -17 1z"/>
<path d="M6441 4596 c-20 -21 -47 -93 -39 -102 3 -2 19 17 37 42 30 43 35 46
64 39 120 -24 146 -11 44 24 -79 26 -79 26 -106 -3z"/>
<path d="M10948 4594 c-5 -4 -8 -32 -8 -63 1 -43 3 -52 11 -38 11 19 8 113 -3
101z"/>
<path d="M4437 4538 c-10 -81 -8 -218 3 -191 9 23 16 230 8 239 -3 2 -8 -19
-11 -48z"/>
<path d="M4491 4433 c-1 -122 1 -143 14 -143 26 0 29 28 15 139 -19 162 -29
163 -29 4z"/>
<path d="M8286 4505 c-3 -33 -3 -80 2 -105 l9 -45 7 55 c4 30 3 78 -1 105 l-9
50 -8 -60z"/>
<path d="M12626 4542 c-3 -6 -1 -14 5 -17 15 -10 25 3 12 16 -7 7 -13 7 -17 1z"/>
<path d="M556 4503 c-11 -11 -6 -23 9 -23 8 0 15 4 15 9 0 13 -16 22 -24 14z"/>
<path d="M1095 4398 c-25 -56 -48 -158 -35 -158 9 0 14 10 51 119 33 98 32 91
18 91 -5 0 -21 -24 -34 -52z"/>
<path d="M1191 4359 c-15 -43 -14 -56 3 -39 17 19 30 70 17 70 -5 0 -14 -14
-20 -31z"/>
<path d="M4438 4284 c-10 -10 -9 -93 1 -119 7 -17 9 -16 12 10 5 41 -4 119
-13 109z"/>
<path d="M692 4159 c2 -6 8 -10 13 -10 5 0 11 4 13 10 2 6 -4 11 -13 11 -9 0
-15 -5 -13 -11z"/>
<path d="M8080 4140 c0 -5 5 -10 11 -10 5 0 7 5 4 10 -3 6 -8 10 -11 10 -2 0
-4 -4 -4 -10z"/>
<path d="M460 4035 c0 -8 7 -15 15 -15 8 0 15 7 15 15 0 8 -7 15 -15 15 -8 0
-15 -7 -15 -15z"/>
<path d="M10966 4019 c-9 -47 -7 -59 8 -53 9 4 15 -7 20 -38 9 -59 48 -176 54
-160 2 7 -3 43 -11 80 -9 37 -19 90 -22 117 -11 83 -37 112 -49 54z"/>
<path d="M4231 3923 c-1 -36 3 -63 9 -63 12 0 12 64 0 100 -6 19 -8 9 -9 -37z"/>
<path d="M244 3846 c-8 -22 3 -33 18 -18 9 9 9 15 0 24 -9 9 -13 7 -18 -6z"/>
<path d="M816 3678 c-15 -57 -34 -121 -42 -143 -12 -35 -19 -79 -41 -270 -6
-57 11 -28 39 64 19 64 23 70 30 50 16 -43 28 0 28 100 0 110 16 215 35 231
10 9 26 -5 70 -60 31 -39 65 -76 76 -83 26 -16 24 -29 -9 -59 -28 -24 -29 -30
-36 -143 -3 -65 -4 -121 0 -124 3 -3 14 5 25 18 25 31 25 30 -12 -219 -22
-147 -31 -253 -34 -375 -3 -168 -18 -315 -32 -338 -14 -22 -18 65 -9 194 10
141 2 237 -17 204 -6 -12 -12 -106 -15 -230 -4 -178 -2 -219 13 -268 9 -33 21
-55 26 -50 12 12 57 135 70 191 6 26 17 184 24 352 12 262 17 320 39 410 28
113 32 203 15 294 -12 66 -8 77 21 51 35 -32 31 -11 -8 37 -158 198 -216 268
-222 268 -4 0 -19 -46 -34 -102z"/>
<path d="M1291 3704 c34 -38 138 -114 155 -114 12 0 11 5 -2 25 -16 24 -15 25
6 25 32 0 80 -33 115 -80 31 -40 53 -55 64 -44 10 10 -107 111 -156 134 -25
12 -52 19 -61 15 -9 -3 -40 10 -73 30 -68 42 -81 44 -48 9z"/>
<path d="M1700 3512 c0 -10 43 -42 56 -42 10 0 -17 30 -38 41 -10 6 -18 6 -18
1z"/>
<path d="M1397 3486 c20 -36 146 -156 170 -162 43 -11 39 7 -12 52 -68 61
-170 131 -158 110z"/>
<path d="M1645 3448 c63 -57 78 -65 73 -42 -3 17 -91 84 -110 84 -6 0 11 -19
37 -42z"/>
<path d="M11455 3422 c6 -6 62 -15 125 -22 63 -6 143 -16 176 -22 65 -12 88
-9 229 31 l70 19 -80 1 c-56 0 -86 -4 -99 -14 -22 -17 -89 -19 -186 -6 -121
17 -246 23 -235 13z"/>
<path d="M12042 3380 c-6 -11 -29 -28 -49 -39 -33 -17 -92 -74 -219 -212 -38
-41 -88 -59 -165 -59 -30 0 -90 -7 -134 -14 -44 -8 -134 -20 -200 -25 -66 -6
-168 -16 -228 -22 -59 -7 -110 -9 -114 -6 -3 4 11 25 31 48 57 63 94 127 102
175 4 26 18 59 36 82 47 58 53 82 9 32 -22 -24 -46 -58 -54 -75 -8 -16 -26
-55 -40 -85 -43 -94 -84 -132 -184 -170 -54 -21 -102 -33 -125 -32 -21 1 -50
3 -65 4 -16 1 -62 -2 -103 -6 l-75 -8 25 27 c14 15 44 38 68 52 45 27 54 43
23 43 -10 0 -63 -38 -118 -84 -54 -45 -109 -88 -120 -95 -12 -6 -89 -18 -170
-26 -81 -8 -184 -24 -228 -35 -91 -22 -115 -24 -115 -10 0 6 70 83 155 172 85
89 153 164 150 166 -15 16 -345 -325 -345 -357 0 -13 16 -20 63 -31 149 -33
430 -49 524 -29 32 6 75 14 96 16 20 3 37 9 37 14 0 5 11 7 25 3 21 -5 25 -3
25 14 0 12 -4 23 -9 26 -4 3 -11 19 -15 36 -6 33 -26 32 -26 -1 0 -30 -17 -22
-23 11 -9 44 -24 37 -51 -24 -23 -53 -27 -56 -80 -71 -76 -22 -90 -18 -94 27
-3 34 0 39 37 58 22 11 49 20 60 20 11 0 36 11 56 25 24 16 58 27 98 31 34 4
64 8 67 8 2 1 8 -19 13 -43 12 -60 35 -94 60 -87 11 2 26 -2 34 -10 19 -19
160 -18 268 1 101 18 95 19 95 -5 0 -11 6 -22 13 -25 6 -2 82 -9 167 -14 238
-17 445 -38 555 -57 175 -32 167 -33 585 108 l239 80 39 61 c51 82 72 138 72
192 0 38 -3 45 -22 50 -89 20 -186 27 -415 32 -145 3 -263 8 -263 11 0 2 14
20 31 39 24 28 29 43 27 71 -3 41 -18 50 -36 22z m-297 -387 l-7 -58 -15 29
-15 28 -19 -31 c-16 -26 -25 -31 -59 -31 -28 0 -40 4 -40 15 0 7 -8 19 -17 24
-17 9 -16 11 4 26 13 9 20 22 17 30 -5 12 4 15 42 16 27 1 63 4 79 8 17 4 32
6 34 5 2 -2 0 -29 -4 -61z m-200 -3 c-23 -45 -28 -49 -46 -39 -19 10 -19 12
-5 34 9 14 16 31 16 40 0 10 10 15 30 15 l30 0 -25 -50z m-105 -20 c0 -56 -18
-73 -73 -68 -29 3 -32 7 -35 39 -2 21 2 40 10 46 11 10 67 29 91 32 4 1 7 -21
7 -49z m-535 31 c-6 -5 -21 -12 -35 -15 -24 -7 -24 -6 -6 8 21 17 57 23 41 7z
m346 -11 c39 -22 8 -100 -40 -100 -21 0 -31 18 -32 58 0 23 -3 20 -17 -18 -13
-32 -24 -46 -40 -48 -18 -3 -22 1 -22 24 0 21 -3 24 -14 15 -11 -9 -15 -6 -20
14 -9 37 -26 21 -26 -25 0 -41 -11 -50 -60 -50 -29 0 -49 28 -35 50 7 12 -12
40 -26 40 -5 0 -14 -12 -20 -27 -9 -24 -12 -26 -20 -11 -6 10 -6 26 0 41 9 23
16 26 98 32 48 3 99 7 113 9 61 7 143 5 161 -4z m-404 -53 c-2 -7 -13 -13 -25
-15 -20 -3 -38 -21 -69 -68 -12 -18 -13 -18 -28 0 -8 11 -15 34 -15 52 0 33
15 43 85 57 26 5 57 -11 52 -26z m-197 13 c0 -5 -2 -10 -4 -10 -3 0 -8 5 -11
10 -3 6 -1 10 4 10 6 0 11 -4 11 -10z m906 -27 c-10 -10 -19 5 -10 18 6 11 8
11 12 0 2 -7 1 -15 -2 -18z m241 -9 c-5 -5 -119 -33 -139 -34 -5 0 -8 4 -8 9
0 5 26 13 58 19 72 12 97 14 89 6z m-1147 -40 c0 -8 -4 -14 -10 -14 -5 0 -10
9 -10 21 0 11 5 17 10 14 6 -3 10 -13 10 -21z m-507 -21 c9 -9 -13 -34 -24
-27 -14 8 -11 34 4 34 8 0 17 -3 20 -7z m77 -3 c0 -5 -9 -10 -20 -10 -11 0
-20 5 -20 10 0 6 9 10 20 10 11 0 20 -4 20 -10z m0 -50 c0 -5 -12 -10 -26 -10
-14 0 -23 4 -19 10 3 6 15 10 26 10 10 0 19 -4 19 -10z"/>
<path d="M10535 3330 c-184 -46 -259 -72 -299 -104 -37 -30 -6 -28 41 2 61 38
114 56 233 77 118 21 230 53 230 65 0 13 16 16 -205 -40z"/>
<path d="M927 3230 c-3 -8 -8 -58 -11 -110 -2 -52 -9 -118 -14 -146 -12 -59
-3 -119 18 -119 23 0 33 123 23 267 -5 68 -12 116 -16 108z"/>
<path d="M1220 3203 c0 -16 -3 -51 -6 -77 -6 -39 -4 -46 8 -41 12 5 17 -3 22
-29 4 -20 12 -36 17 -36 6 0 8 12 5 28 -3 15 -10 59 -16 97 -12 75 -30 111
-30 58z"/>
<path d="M71 3174 c0 -11 3 -14 6 -6 3 7 2 16 -1 19 -3 4 -6 -2 -5 -13z"/>
<path d="M470 3046 c0 -9 5 -16 10 -16 6 0 10 4 10 9 0 6 -4 13 -10 16 -5 3
-10 -1 -10 -9z"/>
<path d="M559 2961 c-13 -11 -20 -23 -16 -27 4 -4 17 2 29 14 28 28 18 38 -13
13z"/>
<path d="M717 2946 c-3 -8 -11 -82 -17 -163 -12 -157 -7 -251 17 -321 22 -67
103 -236 109 -230 9 10 -16 87 -57 179 -36 80 -40 97 -45 196 -3 59 -1 160 4
223 8 105 3 154 -11 116z"/>
<path d="M495 2909 c-4 -6 -5 -13 -2 -16 7 -7 27 6 27 18 0 12 -17 12 -25 -2z"/>
<path d="M2026 2869 c-10 -53 -7 -134 4 -123 15 15 26 154 13 154 -6 0 -13
-14 -17 -31z"/>
<path d="M2206 2737 c-7 -159 2 -427 16 -427 4 0 8 128 8 285 0 157 -4 285 -8
285 -5 0 -12 -64 -16 -143z"/>
<path d="M480 2816 c0 -9 5 -16 10 -16 6 0 10 4 10 9 0 6 -4 13 -10 16 -5 3
-10 -1 -10 -9z"/>
<path d="M1272 2795 c0 -16 2 -22 5 -12 2 9 2 23 0 30 -3 6 -5 -1 -5 -18z"/>
<path d="M5600 2783 c-40 -8 -163 -68 -189 -93 -93 -90 -113 -369 -46 -644
l27 -109 -26 -112 c-22 -96 -49 -320 -58 -475 l-3 -45 -73 -7 c-41 -3 -88 -9
-106 -12 -22 -4 -37 -2 -44 7 -35 42 -74 355 -70 557 3 138 2 148 -22 195 -23
47 -25 61 -26 210 0 88 -6 181 -12 207 -7 26 -9 60 -6 76 15 73 -59 140 -165
149 -47 4 -80 -1 -162 -25 -57 -17 -130 -33 -162 -36 -87 -9 -118 -30 -228
-152 -15 -16 -41 -40 -59 -53 -33 -25 -65 -84 -55 -101 4 -6 15 -10 26 -10 23
0 23 -3 4 -41 -9 -16 -20 -76 -25 -132 -5 -57 -14 -116 -20 -131 -8 -22 -7
-48 5 -108 21 -99 16 -126 -48 -298 -46 -123 -50 -143 -52 -230 -2 -103 -4
-113 -41 -208 -29 -74 -25 -97 21 -112 19 -6 53 -27 76 -46 28 -23 51 -34 73
-34 18 0 68 -9 111 -20 43 -11 92 -20 109 -20 17 0 49 -10 71 -22 35 -20 61
-23 215 -29 96 -4 215 -14 265 -23 55 -10 222 -22 430 -31 311 -14 561 -31
576 -41 11 -7 172 24 319 60 275 69 313 84 398 161 80 72 107 139 60 149 -103
23 -209 36 -283 36 l-88 0 7 54 c4 37 2 62 -8 82 -8 16 -24 97 -35 180 -11 83
-27 184 -35 225 -9 41 -22 137 -30 214 -11 113 -19 149 -39 187 -15 28 -32 88
-42 145 -35 207 -48 260 -79 328 -37 80 -52 95 -104 106 -20 4 -62 16 -92 27
-148 53 -183 59 -260 45z m178 -42 c37 -11 81 -24 97 -30 17 -6 49 -16 72 -21
29 -7 50 -21 67 -43 31 -41 78 -205 74 -254 -4 -41 -6 -39 -38 48 -11 31 -34
76 -51 98 -39 55 -115 104 -149 96 -41 -9 -80 -27 -80 -36 0 -5 12 -4 26 1 43
17 75 11 125 -20 54 -35 69 -64 93 -185 24 -126 36 -261 36 -432 1 -105 5
-171 14 -195 11 -32 11 -40 -2 -59 -19 -27 -26 -198 -14 -334 9 -97 9 -94 11
93 0 120 5 192 11 192 11 0 14 -45 11 -170 -1 -47 5 -123 13 -170 28 -156 23
-168 -101 -219 -40 -16 -93 -44 -118 -61 -33 -23 -49 -28 -62 -22 -10 5 -58
12 -108 16 -127 10 -272 34 -305 51 -34 18 -40 32 -40 98 0 28 -7 77 -16 109
-15 54 -15 70 -1 206 9 81 19 176 23 211 4 36 15 89 25 120 25 72 24 113 -6
231 -42 165 -55 376 -25 395 5 3 13 -9 19 -27 10 -31 30 -194 31 -246 0 -13 4
-20 10 -17 6 3 10 23 10 44 0 21 7 58 15 81 16 45 19 97 9 149 -9 46 -24 27
-25 -32 -1 -45 -2 -48 -9 -22 -4 17 -10 60 -13 98 -4 60 -3 69 15 78 34 18
123 12 168 -11 42 -21 85 -24 85 -5 0 6 -11 11 -25 13 -14 2 -51 12 -83 24
-56 20 -98 21 -166 2 -22 -7 -23 -5 -17 22 12 48 34 72 89 100 109 56 196 66
305 35z m-964 -89 c28 -16 -34 -144 -113 -234 l-41 -46 27 -47 c21 -38 26 -61
26 -109 -1 -54 21 -208 102 -721 29 -183 40 -325 30 -396 -6 -41 -14 -60 -39
-83 l-31 -29 -120 6 c-113 6 -121 8 -142 32 -27 30 -29 61 -8 85 9 10 17 30
18 46 2 23 -2 30 -21 32 -32 5 -60 -23 -73 -70 -12 -48 -6 -70 23 -83 13 -6
24 -17 26 -26 4 -23 -31 -30 -63 -13 -24 12 -26 11 -35 -11 -5 -14 -14 -25
-19 -25 -5 0 -67 14 -138 31 -85 21 -141 41 -168 59 -22 15 -50 30 -62 34 -30
9 -29 29 4 96 22 46 27 75 34 180 6 114 11 136 54 255 49 134 54 177 47 359
-3 58 26 109 65 117 35 7 113 50 133 73 7 10 28 16 52 16 27 0 38 4 36 13 -9
26 -50 17 -121 -26 -41 -25 -83 -47 -93 -51 -52 -16 -72 60 -39 146 14 38 25
50 55 62 21 8 47 26 58 40 26 33 38 33 73 -5 25 -27 34 -30 75 -27 26 2 49 8
51 15 3 8 -8 10 -35 6 -34 -5 -42 -1 -65 26 -33 40 -79 42 -117 6 -33 -31
-100 -46 -100 -22 0 17 57 65 108 91 22 11 44 15 67 10 51 -9 44 13 -7 24
l-43 9 44 41 c45 43 107 70 135 59 9 -4 13 -13 10 -21 -9 -24 15 -59 37 -53
11 3 32 -1 47 -9 31 -16 78 -19 86 -5 8 12 -12 63 -27 73 -7 4 -25 8 -42 8
l-30 1 35 15 c119 52 196 68 234 46z m80 -44 c8 -13 19 -64 25 -115 5 -51 14
-100 19 -110 6 -11 6 -40 0 -78 -14 -88 -4 -189 27 -265 38 -92 33 -158 -22
-271 l-41 -84 -1 63 c-1 49 -4 62 -17 62 -12 0 -13 6 -8 23 10 29 12 127 3
127 -4 0 -21 -25 -38 -55 -17 -30 -36 -55 -41 -55 -15 0 -12 17 11 61 11 22
29 75 40 116 17 70 18 77 2 88 -13 10 -15 22 -9 64 4 28 9 59 12 69 8 24 -47
-37 -70 -79 -25 -45 -32 -22 -12 38 24 76 39 170 34 211 -4 24 0 45 8 57 8 10
14 34 14 52 0 39 24 103 39 103 6 0 17 -10 25 -22z m-339 -40 c26 -7 45 -18
45 -26 0 -11 -7 -13 -27 -8 -16 4 -40 10 -55 13 -16 3 -28 12 -28 19 0 17 7
17 65 2z m217 -240 c-7 -7 -12 -8 -12 -2 0 14 12 26 19 19 2 -3 -1 -11 -7 -17z
m1382 -218 c23 -43 29 -69 36 -168 5 -64 13 -139 20 -166 25 -112 51 -319 40
-330 -19 -19 -33 12 -39 91 -4 56 -12 88 -29 114 -17 29 -22 51 -22 106 0 38
-5 74 -11 80 -6 6 -15 73 -20 149 -5 77 -11 147 -13 157 -8 33 11 17 38 -33z
m-1374 -100 c0 -5 -4 -10 -10 -10 -5 0 -10 5 -10 10 0 6 5 10 10 10 6 0 10 -4
10 -10z m229 -563 c1 -75 -16 -121 -48 -130 -11 -2 -29 -24 -42 -48 -37 -72
-33 -28 7 73 35 90 37 98 41 248 2 85 7 162 10 170 8 18 31 -214 32 -313z
m-168 60 c-8 -8 -11 1 -11 29 0 53 14 67 18 19 2 -21 -1 -42 -7 -48z m1437
-290 c6 -50 -34 -91 -45 -46 -4 14 -12 19 -29 17 -37 -5 -31 15 12 39 47 27
58 25 62 -10z m-1236 6 c-7 -3 -18 -16 -23 -30 -12 -32 -24 -23 -15 12 5 18
13 25 29 24 12 0 16 -3 9 -6z m-552 -82 c0 -5 -7 -11 -15 -15 -15 -5 -20 5 -8
17 9 10 23 9 23 -2z m1725 -44 c-37 -22 -75 -36 -75 -28 0 10 83 51 90 45 2
-3 -4 -11 -15 -17z"/>
<path d="M5690 2640 c20 -13 50 -13 50 0 0 6 -15 10 -32 10 -25 0 -29 -3 -18
-10z"/>
<path d="M5664 2355 c-3 -14 -4 -37 -1 -51 10 -54 -40 -192 -89 -244 l-23 -25
25 -79 c13 -43 22 -87 19 -97 -3 -9 -19 -21 -35 -24 -47 -10 -50 -29 -5 -22
68 11 72 22 50 132 l-18 95 21 23 c41 44 64 116 70 220 5 94 -1 123 -14 72z"/>
<path d="M5850 2216 c0 -21 17 -72 40 -122 38 -83 40 -91 40 -186 0 -81 3
-100 16 -105 9 -3 24 3 36 15 20 20 20 21 3 109 -11 55 -28 105 -45 134 -28
47 -60 128 -60 153 0 8 -7 19 -15 26 -13 11 -15 7 -15 -24z"/>
<path d="M5810 1868 c0 -36 30 -138 41 -138 4 0 1 24 -7 53 -7 28 -14 67 -14
85 0 17 -4 32 -10 32 -5 0 -10 -14 -10 -32z"/>
<path d="M5760 1845 c0 -8 5 -15 10 -15 6 0 10 7 10 15 0 8 -4 15 -10 15 -5 0
-10 -7 -10 -15z"/>
<path d="M5707 1800 c-9 -60 -37 -433 -37 -509 0 -108 17 -73 23 47 3 64 11
171 17 237 6 66 10 154 8 195 -3 71 -3 73 -11 30z"/>
<path d="M5760 1685 c0 -143 9 -255 22 -255 11 0 -1 339 -13 360 -5 9 -8 -35
-9 -105z"/>
<path d="M5420 1480 c0 -5 5 -10 10 -10 6 0 10 5 10 10 0 6 -4 10 -10 10 -5 0
-10 -4 -10 -10z"/>
<path d="M5432 1400 c0 -19 2 -27 5 -17 2 9 2 25 0 35 -3 9 -5 1 -5 -18z"/>
<path d="M4522 2439 c-13 -16 -21 -29 -17 -29 16 0 72 29 84 43 12 15 10 17
-15 16 -20 0 -37 -10 -52 -30z"/>
<path d="M4583 2378 c-38 -10 -44 -28 -10 -28 26 0 65 24 51 32 -5 3 -24 1
-41 -4z"/>
<path d="M4405 1973 c-16 -9 -61 -29 -100 -44 -38 -15 -71 -32 -73 -38 -6 -19
22 -12 119 30 93 40 95 41 180 34 56 -5 89 -3 93 3 10 16 -3 20 -99 26 -74 5
-95 3 -120 -11z"/>
<path d="M4270 1826 c-10 -28 -40 -151 -40 -167 0 -16 18 -10 25 9 10 26 35
175 30 180 -2 3 -9 -7 -15 -22z"/>
<path d="M4645 1830 c21 -86 36 -223 51 -439 8 -135 18 -248 20 -250 23 -24
20 169 -6 384 -24 201 -37 271 -57 305 l-14 25 6 -25z"/>
<path d="M4167 1615 c-10 -55 -27 -121 -38 -147 -10 -26 -19 -55 -19 -64 0
-36 47 26 68 89 17 51 19 76 13 142 l-7 80 -17 -100z"/>
<path d="M4555 1677 c-9 -21 0 -167 14 -212 7 -24 9 -15 9 45 0 104 -12 191
-23 167z"/>
<path d="M4248 1577 c-5 -10 -8 -42 -8 -70 1 -40 3 -48 11 -34 5 9 9 41 7 70
-2 35 -5 46 -10 34z"/>
<path d="M4640 1449 c0 -5 5 -7 10 -4 6 3 10 8 10 11 0 2 -4 4 -10 4 -5 0 -10
-5 -10 -11z"/>
<path d="M4327 1343 c-4 -3 -7 -11 -7 -17 0 -6 5 -5 12 2 6 6 9 14 7 17 -3 3
-9 2 -12 -2z"/>
<path d="M4975 1400 c-10 -11 -13 -20 -8 -20 13 0 38 29 31 35 -3 3 -13 -4
-23 -15z"/>
<path d="M1267 2723 c-4 -3 -6 -34 -6 -67 l2 -61 8 65 c8 65 8 75 -4 63z"/>
<path d="M555 2640 c-3 -5 3 -10 14 -10 11 0 23 5 26 10 3 6 -3 10 -14 10 -11
0 -23 -4 -26 -10z"/>
<path d="M451 2616 c-9 -10 -9 -16 -1 -21 17 -10 37 12 24 25 -8 8 -15 6 -23
-4z"/>
<path d="M3357 2583 c-11 -10 -8 -101 3 -108 7 -4 8 -24 4 -52 -5 -36 -4 -45
7 -41 20 7 22 29 14 125 -6 78 -12 93 -28 76z"/>
<path d="M2035 2502 c-4 -40 -12 -75 -16 -78 -11 -6 -2 -24 11 -24 13 0 40 60
40 89 -1 14 -7 40 -14 56 -13 29 -14 28 -21 -43z"/>
<path d="M499 2534 c-12 -14 -11 -16 5 -13 11 2 21 10 24 17 5 17 -13 15 -29
-4z"/>
<path d="M2986 2476 c-14 -30 -26 -60 -26 -65 0 -21 20 -11 34 17 15 30 32
102 23 102 -3 0 -17 -24 -31 -54z"/>
<path d="M3205 2493 c3 -16 9 -73 14 -128 12 -130 5 -145 -68 -160 -49 -9 -59
-16 -119 -82 -54 -61 -61 -73 -43 -73 14 0 33 17 57 50 45 63 62 72 127 69
l52 -3 13 49 c17 68 -5 305 -29 305 -5 0 -6 -12 -4 -27z"/>
<path d="M2938 2504 c-5 -4 -8 -16 -8 -26 0 -10 -18 -55 -40 -99 -44 -87 -56
-151 -29 -157 18 -3 37 36 69 145 20 67 25 155 8 137z"/>
<path d="M1911 2419 c-2 -48 12 -119 22 -119 11 0 2 86 -13 123 -9 21 -9 21
-9 -4z"/>
<path d="M9410 2380 c-201 -35 -299 -59 -348 -84 -43 -22 -125 -95 -173 -153
-26 -32 -214 -73 -334 -72 -125 0 -245 -25 -245 -53 0 -11 9 -10 71 9 39 13
91 18 184 19 107 0 146 5 221 26 110 30 106 28 173 101 30 32 72 69 95 82 45
26 209 73 296 85 30 4 84 13 118 20 89 17 207 1 287 -39 74 -37 328 -121 366
-121 15 0 31 -4 34 -10 3 -5 -4 -10 -15 -10 -12 0 -45 -6 -73 -14 -84 -23
-167 -29 -167 -12 0 10 -16 16 -52 19 -83 9 -175 24 -187 31 -11 7 -110 18
-163 19 -38 0 -77 -28 -93 -67 -8 -18 -30 -47 -49 -64 -49 -43 -185 -108 -253
-122 -32 -6 -114 -26 -183 -45 -148 -39 -508 -112 -600 -120 -36 -4 -88 -13
-116 -21 -49 -13 -52 -16 -109 -109 -33 -52 -61 -95 -65 -95 -11 1 -60 79 -60
97 0 10 -7 27 -15 37 -27 36 -19 84 20 123 39 39 45 58 16 48 -28 -9 -35 11
-11 35 35 35 76 21 115 -42 17 -28 17 -28 -10 -28 -29 0 -30 -16 -2 -34 13 -8
20 -6 31 9 21 27 20 49 -4 87 -11 18 -20 36 -20 40 0 3 31 18 70 33 73 28 96
45 60 45 -35 0 -266 -79 -293 -100 -21 -17 -24 -26 -20 -59 3 -22 0 -68 -6
-103 -15 -75 -9 -94 48 -163 22 -27 41 -56 41 -63 0 -13 47 -62 85 -88 12 -7
57 -20 100 -29 71 -14 95 -14 215 -1 74 8 171 18 215 21 53 5 104 17 150 35
128 53 186 63 405 70 203 6 326 24 600 86 36 8 75 14 88 14 22 0 30 -14 13
-24 -11 -7 -329 -73 -421 -87 -36 -6 -99 -17 -140 -25 -41 -8 -114 -17 -162
-20 -94 -7 -123 -17 -98 -34 20 -13 97 -13 162 1 40 9 100 9 248 -1 185 -12
251 -24 289 -54 8 -6 41 -18 75 -27 34 -10 71 -20 82 -24 23 -7 146 71 326
208 47 36 119 84 160 107 40 23 107 63 148 89 41 25 100 57 130 72 83 39 173
151 157 194 -9 21 -55 40 -149 59 -85 18 -239 21 -267 7 -15 -9 -17 -4 -17 35
l1 45 -60 26 c-40 17 -90 28 -150 34 -96 8 -298 67 -410 119 -55 26 -172 51
-227 49 -13 0 -70 -9 -128 -19z m130 -216 c0 -8 -4 -12 -10 -9 -5 3 -10 13
-10 21 0 8 5 12 10 9 6 -3 10 -13 10 -21z m820 -38 c0 -8 -9 -24 -20 -37 l-19
-24 -1 26 c0 24 16 49 32 49 4 0 8 -6 8 -14z m-778 -84 c9 -18 38 -46 65 -64
80 -56 148 -125 173 -178 19 -40 21 -53 11 -63 -20 -20 -63 12 -90 67 -17 33
-34 52 -56 62 -17 7 -37 20 -45 28 -7 9 -18 16 -24 16 -6 0 -35 11 -63 25
l-53 24 0 55 c0 30 5 67 11 83 l11 28 21 -26 c12 -15 30 -40 39 -57z m408 28
c0 -5 -6 -10 -14 -10 -8 0 -18 5 -21 10 -3 6 3 10 14 10 12 0 21 -4 21 -10z
m-340 -25 c7 -8 18 -15 25 -15 7 0 15 -7 18 -15 9 -23 69 -35 89 -18 12 11 18
11 23 2 8 -12 -30 -48 -50 -49 -15 0 -145 91 -145 101 0 14 26 10 40 -6z m693
-56 c-21 -63 -38 -72 -48 -27 -7 28 -4 35 26 60 18 15 34 26 36 24 2 -2 -4
-27 -14 -57z m-509 -53 c-5 -14 45 -46 73 -46 7 0 13 -7 13 -16 0 -9 9 -36 21
-59 20 -41 20 -43 4 -69 -10 -14 -21 -26 -25 -26 -13 0 -45 45 -80 113 -25 47
-31 70 -26 90 3 15 11 27 16 27 5 0 7 -6 4 -14z m-755 -45 c18 -11 6 -31 -64
-108 -38 -43 -53 -53 -78 -53 -38 0 -113 -20 -185 -49 -60 -24 -62 -24 -62
-12 0 5 36 35 80 66 68 48 79 60 74 79 -4 19 1 25 35 41 43 19 132 43 166 44
11 0 26 -3 34 -8z m-304 -107 c-16 -13 -62 -46 -102 -72 -54 -35 -79 -59 -99
-95 -14 -26 -51 -73 -81 -104 l-55 -57 -83 -4 c-52 -3 -85 0 -89 6 -4 6 7 35
23 64 16 29 35 74 42 101 15 61 3 77 -57 77 -24 0 -44 5 -44 10 0 6 -6 10 -14
10 -14 0 -21 -16 -77 -167 -24 -65 -37 -85 -50 -77 -37 23 62 248 123 280 41
21 61 18 53 -7 -7 -20 -4 -21 26 -15 127 24 138 20 119 -40 -7 -19 -9 -38 -6
-42 4 -3 28 15 54 40 53 50 89 69 177 91 74 19 102 24 140 25 l30 1 -30 -25z
m1426 -12 c-14 -26 -28 -35 -90 -60 -34 -14 -58 -19 -64 -13 -15 15 2 31 32
31 15 0 45 13 67 30 46 34 70 40 55 12z m-1094 -37 c8 -23 -20 -49 -97 -89
-89 -47 -107 -46 -61 3 20 21 46 53 59 70 18 24 31 31 58 31 22 0 37 -6 41
-15z m206 8 c-7 -2 -19 -2 -25 0 -7 3 -2 5 12 5 14 0 19 -2 13 -5z m554 -55
c-3 -8 -6 -5 -6 6 -1 11 2 17 5 13 3 -3 4 -12 1 -19z m-977 -29 c-13 -44 -23
-53 -93 -83 -34 -15 -91 -42 -127 -60 -71 -36 -119 -49 -139 -37 -9 6 16 29
81 73 132 92 158 104 158 73 0 -26 19 -16 22 12 3 31 37 53 80 53 25 0 26 -2
18 -31z m1072 0 c-56 -22 -73 -20 -52 6 8 10 29 15 59 14 l46 0 -53 -20z
m-1648 -43 c-3 -9 -10 -16 -15 -16 -6 0 -5 9 1 21 13 24 24 20 14 -5z m324 8
c-4 -20 -34 -41 -44 -31 -8 8 24 47 38 47 5 0 8 -7 6 -16z m-393 -75 c-30 -88
-39 -99 -70 -91 -31 9 -31 11 1 75 32 64 52 87 75 87 16 0 16 -5 -6 -71z"/>
<path d="M237 2313 c-4 -3 -7 -10 -7 -14 0 -9 39 1 46 12 6 10 -29 12 -39 2z"/>
<path d="M1066 2277 c-9 -59 3 -192 15 -162 9 24 9 138 0 180 -7 28 -8 27 -15
-18z"/>
<path d="M365 2300 c-3 -5 1 -10 9 -10 9 0 16 5 16 10 0 6 -4 10 -9 10 -6 0
-13 -4 -16 -10z"/>
<path d="M457 2246 c10 -14 22 -21 27 -16 14 14 -2 40 -24 40 -20 0 -20 -1 -3
-24z"/>
<path d="M2207 2175 c-8 -114 3 -290 14 -240 9 42 9 296 0 320 -5 12 -10 -18
-14 -80z"/>
<path d="M1859 2190 c-3 -30 -3 -82 1 -115 6 -60 6 -60 14 -22 5 21 4 72 -1
115 l-8 77 -6 -55z"/>
<path d="M836 2183 c7 -31 21 -50 30 -41 6 6 -23 68 -31 68 -3 0 -2 -12 1 -27z"/>
<path d="M310 2190 c0 -5 5 -10 10 -10 6 0 10 5 10 10 0 6 -4 10 -10 10 -5 0
-10 -4 -10 -10z"/>
<path d="M3418 2070 c-4 -68 -5 -126 -3 -129 13 -12 15 16 13 130 l-3 124 -7
-125z"/>
<path d="M9103 2178 c-28 -13 -29 -24 -4 -31 13 -3 20 -18 25 -51 8 -49 22
-60 31 -23 7 29 -7 110 -20 113 -6 1 -20 -2 -32 -8z"/>
<path d="M12575 2170 c-3 -5 -1 -10 4 -10 6 0 11 5 11 10 0 6 -2 10 -4 10 -3
0 -8 -4 -11 -10z"/>
<path d="M383 2153 c-7 -2 -13 -13 -13 -24 0 -17 3 -18 20 -9 11 6 20 17 20
25 0 15 -6 17 -27 8z"/>
<path d="M3515 2130 c-20 -33 -25 -532 -5 -553 6 -7 21 553 15 561 -2 2 -6 -2
-10 -8z"/>
<path d="M957 2124 c-9 -9 -9 -76 -1 -98 3 -9 12 -16 19 -16 7 0 27 -16 45
-36 17 -20 34 -33 37 -30 6 6 -55 136 -79 169 -8 10 -17 15 -21 11z"/>
<path d="M175 2070 c4 -6 11 -8 16 -5 14 9 11 15 -7 15 -8 0 -12 -5 -9 -10z"/>
<path d="M3368 1918 c-3 -68 -4 -125 -2 -127 2 -2 8 8 14 23 12 33 14 226 1
226 -4 0 -11 -55 -13 -122z"/>
<path d="M442 1998 c-17 -17 5 -43 24 -27 8 6 14 18 14 25 0 17 -22 18 -38 2z"/>
<path d="M2148 1951 c-5 -35 -7 -118 -7 -185 1 -111 2 -116 10 -61 5 33 8 116
7 185 -3 113 -4 119 -10 61z"/>
<path d="M8363 1954 c-55 -26 -80 -49 -65 -58 11 -7 125 49 142 69 20 24 -16
18 -77 -11z"/>
<path d="M12780 1954 c0 -8 5 -12 10 -9 6 3 10 10 10 16 0 5 -4 9 -10 9 -5 0
-10 -7 -10 -16z"/>
<path d="M3254 1915 c-12 -25 -16 -44 -10 -42 15 5 38 54 34 73 -2 8 -12 -6
-24 -31z"/>
<path d="M580 1930 c0 -5 5 -10 11 -10 5 0 7 5 4 10 -3 6 -8 10 -11 10 -2 0
-4 -4 -4 -10z"/>
<path d="M312 1918 c5 -14 58 -30 58 -17 0 10 -33 29 -50 29 -6 0 -10 -5 -8
-12z"/>
<path d="M75 1869 c-4 -6 -5 -13 -2 -16 7 -7 27 6 27 18 0 12 -17 12 -25 -2z"/>
<path d="M2217 1773 c-10 -143 -8 -256 4 -218 13 46 24 315 12 315 -6 0 -13
-43 -16 -97z"/>
<path d="M1145 1819 c51 -52 186 -161 192 -155 10 10 -35 58 -118 126 -95 77
-136 93 -74 29z"/>
<path d="M12665 1831 c-7 -12 12 -24 25 -16 11 7 4 25 -10 25 -5 0 -11 -4 -15
-9z"/>
<path d="M430 1810 c0 -5 7 -10 16 -10 8 0 12 5 9 10 -3 6 -10 10 -16 10 -5 0
-9 -4 -9 -10z"/>
<path d="M12215 1811 c-6 -11 9 -23 19 -14 9 9 7 23 -3 23 -6 0 -12 -4 -16 -9z"/>
<path d="M385 1790 c-3 -5 -1 -10 4 -10 6 0 11 5 11 10 0 6 -2 10 -4 10 -3 0
-8 -4 -11 -10z"/>
<path d="M3232 1752 c-36 -46 -144 -102 -195 -102 -32 0 -89 -32 -77 -43 11
-11 111 13 166 39 82 39 171 123 145 138 -4 3 -22 -12 -39 -32z"/>
<path d="M12091 1746 c-9 -10 -9 -16 -1 -21 12 -7 40 11 40 26 0 14 -26 10
-39 -5z"/>
<path d="M680 1740 c0 -5 4 -10 9 -10 6 0 13 5 16 10 3 6 -1 10 -9 10 -9 0
-16 -4 -16 -10z"/>
<path d="M12040 1715 c0 -8 5 -15 10 -15 6 0 10 7 10 15 0 8 -4 15 -10 15 -5
0 -10 -7 -10 -15z"/>
<path d="M415 1680 c-3 -5 3 -10 14 -10 12 0 21 5 21 10 0 6 -6 10 -14 10 -8
0 -18 -4 -21 -10z"/>
<path d="M3317 1683 c-2 -5 -12 -31 -21 -59 -9 -29 -35 -81 -56 -117 -44 -73
-48 -92 -23 -101 19 -8 85 51 109 96 25 47 16 225 -9 181z"/>
<path d="M11577 1634 c-10 -11 3 -24 22 -24 10 0 24 7 31 15 11 13 8 15 -17
15 -16 0 -33 -3 -36 -6z"/>
<path d="M11610 1575 c-10 -12 -10 -15 4 -15 9 0 16 7 16 15 0 8 -2 15 -4 15
-2 0 -9 -7 -16 -15z"/>
<path d="M12571 1561 c-43 -12 -35 -29 16 -33 26 -3 49 -3 51 -2 2 1 -3 11
-10 23 -14 22 -18 23 -57 12z"/>
<path d="M790 1537 c0 -8 7 -21 16 -28 14 -11 15 -10 12 11 -3 26 -28 41 -28
17z"/>
<path d="M11980 1535 c0 -8 5 -15 10 -15 6 0 10 7 10 15 0 8 -4 15 -10 15 -5
0 -10 -7 -10 -15z"/>
<path d="M2976 1524 c-11 -28 -7 -139 4 -128 15 15 26 144 13 144 -6 0 -14 -7
-17 -16z"/>
<path d="M12185 1520 c-10 -11 -13 -20 -7 -20 6 0 16 9 22 20 6 11 9 20 7 20
-2 0 -12 -9 -22 -20z"/>
<path d="M640 1514 c0 -8 5 -12 10 -9 6 3 10 10 10 16 0 5 -4 9 -10 9 -5 0
-10 -7 -10 -16z"/>
<path d="M915 1510 c-10 -16 4 -30 31 -30 17 0 24 5 24 20 0 15 -7 20 -24 20
-14 0 -28 -4 -31 -10z"/>
<path d="M11399 1481 c-13 -11 -20 -23 -16 -27 4 -4 20 4 35 19 30 31 16 37
-19 8z"/>
<path d="M11740 1490 c0 -5 5 -10 10 -10 6 0 10 5 10 10 0 6 -4 10 -10 10 -5
0 -10 -4 -10 -10z"/>
<path d="M12670 1445 c-16 -19 0 -19 26 0 16 12 16 14 3 15 -9 0 -22 -7 -29
-15z"/>
<path d="M1080 1436 c0 -8 5 -18 10 -21 6 -3 10 1 10 9 0 8 -4 18 -10 21 -5 3
-10 -1 -10 -9z"/>
<path d="M12410 1415 c-7 -8 -8 -15 -2 -15 5 0 15 7 22 15 7 8 8 15 2 15 -5 0
-15 -7 -22 -15z"/>
<path d="M11225 1356 c-22 -16 -14 -46 14 -46 30 0 55 29 40 46 -14 18 -30 18
-54 0z"/>
<path d="M12690 1350 c0 -5 5 -10 10 -10 6 0 10 5 10 10 0 6 -4 10 -10 10 -5
0 -10 -4 -10 -10z"/>
<path d="M1280 1320 c0 -5 7 -10 15 -10 8 0 15 5 15 10 0 6 -7 10 -15 10 -8 0
-15 -4 -15 -10z"/>
<path d="M11075 1320 c-3 -5 1 -10 9 -10 9 0 16 5 16 10 0 6 -4 10 -9 10 -6 0
-13 -4 -16 -10z"/>
<path d="M11135 1249 c-9 -17 -14 -34 -10 -37 8 -9 45 36 45 54 0 24 -19 15
-35 -17z"/>
<path d="M1320 1261 c0 -12 29 -35 36 -28 11 10 -5 37 -21 37 -8 0 -15 -4 -15
-9z"/>
<path d="M10910 1230 c0 -5 7 -10 16 -10 8 0 12 5 9 10 -3 6 -10 10 -16 10 -5
0 -9 -4 -9 -10z"/>
<path d="M1102 1188 c5 -15 35 -34 43 -27 3 4 3 14 -1 23 -7 18 -48 23 -42 4z"/>
<path d="M1450 1190 c0 -5 4 -10 9 -10 6 0 13 5 16 10 3 6 -1 10 -9 10 -9 0
-16 -4 -16 -10z"/>
<path d="M10987 1165 c-19 -39 -23 -85 -8 -85 16 0 25 22 31 72 8 57 0 61 -23
13z"/>
<path d="M12230 1174 c0 -8 5 -12 10 -9 6 4 8 11 5 16 -9 14 -15 11 -15 -7z"/>
<path d="M12275 1180 c-3 -5 1 -10 9 -10 9 0 16 5 16 10 0 6 -4 10 -9 10 -6 0
-13 -4 -16 -10z"/>
<path d="M1300 1129 c0 -5 5 -7 10 -4 6 3 10 8 10 11 0 2 -4 4 -10 4 -5 0 -10
-5 -10 -11z"/>
<path d="M1500 1120 c0 -5 5 -10 11 -10 5 0 7 5 4 10 -3 6 -8 10 -11 10 -2 0
-4 -4 -4 -10z"/>
<path d="M11805 1099 c-10 -15 1 -23 20 -15 9 3 13 10 10 16 -8 13 -22 13 -30
-1z"/>
<path d="M1690 1090 c0 -5 5 -10 10 -10 6 0 10 5 10 10 0 6 -4 10 -10 10 -5 0
-10 -4 -10 -10z"/>
<path d="M1310 1059 c0 -5 5 -7 10 -4 6 3 10 8 10 11 0 2 -4 4 -10 4 -5 0 -10
-5 -10 -11z"/>
<path d="M1610 1060 c0 -5 5 -10 11 -10 5 0 7 5 4 10 -3 6 -8 10 -11 10 -2 0
-4 -4 -4 -10z"/>
<path d="M1540 1050 c0 -5 5 -10 10 -10 6 0 10 5 10 10 0 6 -4 10 -10 10 -5 0
-10 -4 -10 -10z"/>
<path d="M10890 1049 c0 -5 5 -7 10 -4 6 3 10 8 10 11 0 2 -4 4 -10 4 -5 0
-10 -5 -10 -11z"/>
<path d="M11328 1043 c7 -3 16 -2 19 1 4 3 -2 6 -13 5 -11 0 -14 -3 -6 -6z"/>
<path d="M11858 1021 c-18 -17 -28 -31 -23 -31 16 0 71 47 63 55 -3 3 -21 -7
-40 -24z"/>
<path d="M1792 1018 c-22 -22 -13 -28 31 -22 80 10 92 14 76 25 -20 13 -93 11
-107 -3z"/>
<path d="M10805 1010 c3 -5 15 -10 26 -10 10 0 19 5 19 10 0 6 -12 10 -26 10
-14 0 -23 -4 -19 -10z"/>
<path d="M12645 1010 c-3 -5 -2 -10 4 -10 5 0 13 5 16 10 3 6 2 10 -4 10 -5 0
-13 -4 -16 -10z"/>
<path d="M1865 970 c3 -5 11 -10 16 -10 6 0 7 5 4 10 -3 6 -11 10 -16 10 -6 0
-7 -4 -4 -10z"/>
<path d="M2000 960 c0 -5 5 -10 10 -10 6 0 10 5 10 10 0 6 -4 10 -10 10 -5 0
-10 -4 -10 -10z"/>
<path d="M2090 956 c0 -15 24 -28 34 -19 7 7 -13 33 -25 33 -5 0 -9 -6 -9 -14z"/>
<path d="M11905 960 c-3 -5 1 -10 9 -10 9 0 16 5 16 10 0 6 -4 10 -9 10 -6 0
-13 -4 -16 -10z"/>
<path d="M1817 953 c-4 -3 -7 -11 -7 -17 0 -6 5 -5 12 2 6 6 9 14 7 17 -3 3
-9 2 -12 -2z"/>
<path d="M12203 935 c-8 -22 6 -33 17 -15 13 20 12 30 0 30 -6 0 -13 -7 -17
-15z"/>
<path d="M1355 931 c-6 -11 9 -23 19 -14 9 9 7 23 -3 23 -6 0 -12 -4 -16 -9z"/>
<path d="M1615 919 c-4 -6 -5 -13 -2 -16 7 -7 27 6 27 18 0 12 -17 12 -25 -2z"/>
<path d="M10980 920 c0 -5 7 -10 16 -10 8 0 12 5 9 10 -3 6 -10 10 -16 10 -5
0 -9 -4 -9 -10z"/>
<path d="M11040 884 c0 -40 2 -45 18 -39 9 4 35 12 57 18 48 12 89 44 43 33
-19 -4 -38 0 -60 14 -50 30 -58 26 -58 -26z"/>
<path d="M12470 920 c0 -5 5 -10 10 -10 6 0 10 5 10 10 0 6 -4 10 -10 10 -5 0
-10 -4 -10 -10z"/>
<path d="M1456 911 c-4 -5 -2 -12 3 -15 5 -4 12 -2 15 3 4 5 2 12 -3 15 -5 4
-12 2 -15 -3z"/>
<path d="M1870 900 c0 -19 3 -21 12 -12 9 9 9 15 0 24 -9 9 -12 7 -12 -12z"/>
<path d="M10810 912 c0 -14 11 -21 26 -15 8 3 11 9 8 14 -7 11 -34 12 -34 1z"/>
<path d="M11590 910 c0 -5 7 -10 15 -10 8 0 15 5 15 10 0 6 -7 10 -15 10 -8 0
-15 -4 -15 -10z"/>
<path d="M2160 875 c0 -8 7 -15 15 -15 8 0 15 7 15 15 0 8 -7 15 -15 15 -8 0
-15 -7 -15 -15z"/>
<path d="M1610 870 c0 -5 7 -10 15 -10 8 0 15 5 15 10 0 6 -7 10 -15 10 -8 0
-15 -4 -15 -10z"/>
<path d="M2205 870 c-4 -6 5 -10 19 -10 14 0 26 5 26 10 0 6 -9 10 -19 10 -11
0 -23 -4 -26 -10z"/>
<path d="M965 840 c3 -5 10 -10 16 -10 5 0 9 5 9 10 0 6 -7 10 -16 10 -8 0
-12 -4 -9 -10z"/>
<path d="M10875 830 c-3 -5 1 -10 9 -10 9 0 16 5 16 10 0 6 -4 10 -9 10 -6 0
-13 -4 -16 -10z"/>
<path d="M1025 820 c-3 -5 -1 -10 4 -10 6 0 11 5 11 10 0 6 -2 10 -4 10 -3 0
-8 -4 -11 -10z"/>
<path d="M2620 815 c0 -8 5 -15 10 -15 6 0 10 7 10 15 0 8 -4 15 -10 15 -5 0
-10 -7 -10 -15z"/>
<path d="M11280 820 c0 -5 5 -10 10 -10 6 0 10 5 10 10 0 6 -4 10 -10 10 -5 0
-10 -4 -10 -10z"/>
<path d="M2325 809 c-12 -18 1 -20 31 -4 l29 15 -27 0 c-15 0 -30 -5 -33 -11z"/>
<path d="M2445 810 c3 -5 13 -10 21 -10 8 0 12 5 9 10 -3 6 -13 10 -21 10 -8
0 -12 -4 -9 -10z"/>
<path d="M12433 809 c-7 -7 -13 -22 -13 -33 0 -19 1 -19 16 -4 9 8 14 23 12
32 -2 14 -5 15 -15 5z"/>
<path d="M10936 751 c-4 -5 -2 -12 3 -15 5 -4 12 -2 15 3 4 5 2 12 -3 15 -5 4
-12 2 -15 -3z"/>
<path d="M1180 740 c0 -5 5 -10 10 -10 6 0 10 5 10 10 0 6 -4 10 -10 10 -5 0
-10 -4 -10 -10z"/>
<path d="M1661 736 c-8 -9 -11 -19 -7 -23 9 -9 29 13 24 27 -2 8 -8 7 -17 -4z"/>
<path d="M6395 731 c-7 -12 12 -24 25 -16 11 7 4 25 -10 25 -5 0 -11 -4 -15
-9z"/>
<path d="M6755 731 c-7 -12 12 -24 25 -16 11 7 4 25 -10 25 -5 0 -11 -4 -15
-9z"/>
<path d="M6910 728 c1 -20 25 -48 42 -48 15 0 38 19 38 32 0 4 -9 8 -19 8 -11
0 -23 5 -26 10 -9 14 -35 12 -35 -2z"/>
<path d="M7337 733 c-4 -3 -7 -11 -7 -17 0 -6 5 -5 12 2 6 6 9 14 7 17 -3 3
-9 2 -12 -2z"/>
<path d="M2363 715 c-17 -13 -16 -14 9 -15 30 0 46 15 24 23 -8 3 -22 -1 -33
-8z"/>
<path d="M2522 718 c6 -18 28 -21 28 -4 0 9 -7 16 -16 16 -9 0 -14 -5 -12 -12z"/>
<path d="M2855 719 c-10 -15 3 -25 16 -12 7 7 7 13 1 17 -6 3 -14 1 -17 -5z"/>
<path d="M6606 723 c-3 -3 -6 -17 -6 -30 0 -27 26 -41 42 -25 8 8 7 13 -5 17
-9 4 -13 13 -11 20 6 14 -9 28 -20 18z"/>
<path d="M3020 710 c0 -5 5 -10 10 -10 6 0 10 5 10 10 0 6 -4 10 -10 10 -5 0
-10 -4 -10 -10z"/>
<path d="M7086 703 c-12 -12 -6 -41 10 -47 25 -9 64 -7 64 4 0 6 -7 10 -15 10
-8 0 -24 9 -34 19 -11 11 -22 17 -25 14z"/>
<path d="M7250 700 c0 -5 5 -10 11 -10 5 0 7 5 4 10 -3 6 -8 10 -11 10 -2 0
-4 -4 -4 -10z"/>
<path d="M12690 700 c-13 -8 -13 -10 2 -10 9 0 20 5 23 10 8 13 -5 13 -25 0z"/>
<path d="M7415 690 c-7 -12 41 -44 55 -35 18 11 11 32 -12 39 -31 8 -36 8 -43
-4z"/>
<path d="M6405 681 c-7 -12 12 -24 25 -16 11 7 4 25 -10 25 -5 0 -11 -4 -15
-9z"/>
<path d="M3610 650 c0 -18 4 -29 10 -25 6 3 10 15 10 25 0 10 -4 22 -10 25 -6
4 -10 -7 -10 -25z"/>
<path d="M11195 656 c-9 -14 -15 -37 -13 -53 3 -28 3 -27 26 15 12 23 22 47
22 52 0 18 -19 10 -35 -14z"/>
<path d="M3102 658 c3 -7 15 -15 28 -16 21 -3 22 -2 11 12 -16 19 -44 21 -39
4z"/>
<path d="M3270 665 c0 -3 5 -15 10 -26 9 -16 14 -17 31 -8 12 6 17 14 13 19
-12 11 -54 23 -54 15z"/>
<path d="M6500 654 c0 -17 22 -14 28 4 2 7 -3 12 -12 12 -9 0 -16 -7 -16 -16z"/>
<path d="M7312 658 c-19 -19 -14 -30 8 -18 11 6 20 15 20 20 0 14 -14 12 -28
-2z"/>
<path d="M6788 638 c-41 -20 -46 -29 -24 -47 19 -16 62 2 71 29 10 33 -6 39
-47 18z"/>
<path d="M12135 650 c-3 -5 1 -10 9 -10 9 0 16 5 16 10 0 6 -4 10 -9 10 -6 0
-13 -4 -16 -10z"/>
<path d="M5315 640 c-3 -5 -1 -10 4 -10 6 0 11 5 11 10 0 6 -2 10 -4 10 -3 0
-8 -4 -11 -10z"/>
<path d="M7018 623 c30 -21 28 -31 -10 -41 -35 -9 -50 -32 -21 -32 10 0 52 9
93 20 85 22 160 26 178 8 9 -9 15 -9 24 0 21 21 -10 32 -95 32 -56 0 -83 4
-93 15 -9 9 -33 15 -57 14 -41 0 -42 0 -19 -16z"/>
<path d="M11415 633 c-11 -3 -24 -9 -29 -14 -15 -13 23 -10 64 6 30 12 31 13
10 13 -14 0 -34 -2 -45 -5z"/>
<path d="M2010 620 c0 -5 5 -10 10 -10 6 0 10 5 10 10 0 6 -4 10 -10 10 -5 0
-10 -4 -10 -10z"/>
<path d="M3060 615 c0 -8 5 -15 10 -15 6 0 10 7 10 15 0 8 -4 15 -10 15 -5 0
-10 -7 -10 -15z"/>
<path d="M3940 621 c0 -5 5 -13 10 -16 6 -3 10 -2 10 4 0 5 -4 13 -10 16 -5 3
-10 2 -10 -4z"/>
<path d="M6630 620 c0 -5 4 -10 9 -10 6 0 13 5 16 10 3 6 -1 10 -9 10 -9 0
-16 -4 -16 -10z"/>
<path d="M1915 610 c-3 -5 1 -10 10 -10 9 0 13 5 10 10 -3 6 -8 10 -10 10 -2
0 -7 -4 -10 -10z"/>
<path d="M3376 593 c8 -34 15 -42 21 -25 3 6 11 12 19 12 8 0 14 4 14 8 0 14
-23 32 -42 32 -15 0 -17 -5 -12 -27z"/>
<path d="M1806 601 c-4 -5 -2 -12 3 -15 5 -4 12 -2 15 3 4 5 2 12 -3 15 -5 4
-12 2 -15 -3z"/>
<path d="M3986 603 c-11 -11 -6 -23 9 -23 8 0 15 4 15 9 0 13 -16 22 -24 14z"/>
<path d="M4255 600 c-4 -6 -3 -16 3 -22 6 -6 12 -6 17 2 4 6 3 16 -3 22 -6 6
-12 6 -17 -2z"/>
<path d="M4500 600 c0 -5 5 -10 10 -10 6 0 10 5 10 10 0 6 -4 10 -10 10 -5 0
-10 -4 -10 -10z"/>
<path d="M6092 594 c-25 -17 -29 -34 -9 -34 18 0 51 36 39 44 -5 3 -18 -2 -30
-10z"/>
<path d="M2790 576 c0 -14 5 -26 10 -26 6 0 10 9 10 19 0 11 -4 23 -10 26 -6
4 -10 -5 -10 -19z"/>
<path d="M4450 577 c0 -27 13 -36 26 -16 3 6 -1 18 -10 27 -15 15 -16 14 -16
-11z"/>
<path d="M4955 590 c3 -5 8 -10 11 -10 2 0 4 5 4 10 0 6 -5 10 -11 10 -5 0 -7
-4 -4 -10z"/>
<path d="M6565 591 c-3 -5 -1 -12 5 -16 5 -3 10 1 10 9 0 18 -6 21 -15 7z"/>
<path d="M6885 590 c3 -5 8 -10 11 -10 2 0 4 5 4 10 0 6 -5 10 -11 10 -5 0 -7
-4 -4 -10z"/>
<path d="M7333 593 c-32 -12 -10 -31 43 -37 63 -7 80 -2 41 13 -14 5 -28 15
-32 20 -6 11 -31 13 -52 4z"/>
<path d="M11437 593 c-12 -11 -8 -23 7 -23 7 0 19 7 26 15 10 12 9 15 -7 15
-11 0 -23 -3 -26 -7z"/>
<path d="M2425 580 c3 -5 11 -10 16 -10 6 0 7 5 4 10 -3 6 -11 10 -16 10 -6 0
-7 -4 -4 -10z"/>
<path d="M3270 579 c0 -5 5 -7 10 -4 6 3 10 8 10 11 0 2 -4 4 -10 4 -5 0 -10
-5 -10 -11z"/>
<path d="M5200 580 c0 -5 5 -10 10 -10 6 0 10 5 10 10 0 6 -4 10 -10 10 -5 0
-10 -4 -10 -10z"/>
<path d="M3055 570 c-3 -5 -1 -10 4 -10 6 0 11 5 11 10 0 6 -2 10 -4 10 -3 0
-8 -4 -11 -10z"/>
<path d="M11070 570 c0 -5 5 -10 10 -10 6 0 10 5 10 10 0 6 -4 10 -10 10 -5 0
-10 -4 -10 -10z"/>
<path d="M4050 560 c0 -5 5 -10 10 -10 6 0 10 5 10 10 0 6 -4 10 -10 10 -5 0
-10 -4 -10 -10z"/>
<path d="M5485 560 c-3 -5 -1 -10 4 -10 6 0 11 5 11 10 0 6 -2 10 -4 10 -3 0
-8 -4 -11 -10z"/>
<path d="M7580 544 c-59 -42 -56 -43 42 -8 26 9 45 20 42 25 -9 16 -48 8 -84
-17z"/>
<path d="M7925 560 c-3 -5 -1 -10 4 -10 6 0 11 5 11 10 0 6 -2 10 -4 10 -3 0
-8 -4 -11 -10z"/>
<path d="M3220 551 c0 -5 5 -13 10 -16 6 -3 10 -2 10 4 0 5 -4 13 -10 16 -5 3
-10 2 -10 -4z"/>
<path d="M5395 550 c3 -5 8 -10 11 -10 2 0 4 5 4 10 0 6 -5 10 -11 10 -5 0 -7
-4 -4 -10z"/>
<path d="M6653 545 c-3 -9 -3 -18 0 -21 9 -9 27 6 27 22 0 19 -19 18 -27 -1z"/>
<path d="M3776 535 c4 -9 13 -15 21 -13 23 5 20 23 -4 26 -18 3 -21 0 -17 -13z"/>
<path d="M4200 540 c0 -5 5 -10 10 -10 6 0 10 5 10 10 0 6 -4 10 -10 10 -5 0
-10 -4 -10 -10z"/>
<path d="M3886 523 c-4 -9 -2 -21 4 -27 7 -7 10 -2 10 17 0 31 -5 34 -14 10z"/>
<path d="M6840 530 c0 -5 7 -10 16 -10 8 0 12 5 9 10 -3 6 -10 10 -16 10 -5 0
-9 -4 -9 -10z"/>
<path d="M7050 530 c0 -5 7 -10 15 -10 8 0 15 5 15 10 0 6 -7 10 -15 10 -8 0
-15 -4 -15 -10z"/>
<path d="M12060 530 c0 -5 5 -10 10 -10 6 0 10 5 10 10 0 6 -4 10 -10 10 -5 0
-10 -4 -10 -10z"/>
<path d="M2625 520 c3 -5 10 -10 16 -10 5 0 9 5 9 10 0 6 -7 10 -16 10 -8 0
-12 -4 -9 -10z"/>
<path d="M4130 522 c0 -12 19 -26 26 -19 2 2 -2 10 -11 17 -9 8 -15 8 -15 2z"/>
<path d="M4905 520 c-3 -5 -1 -10 4 -10 6 0 11 5 11 10 0 6 -2 10 -4 10 -3 0
-8 -4 -11 -10z"/>
<path d="M6395 520 c-3 -5 -1 -10 4 -10 6 0 11 5 11 10 0 6 -2 10 -4 10 -3 0
-8 -4 -11 -10z"/>
<path d="M7183 517 c-13 -5 -23 -14 -23 -19 0 -10 39 -1 53 12 15 13 -7 18
-30 7z"/>
<path d="M8160 520 c0 -5 7 -10 15 -10 8 0 15 5 15 10 0 6 -7 10 -15 10 -8 0
-15 -4 -15 -10z"/>
<path d="M2987 513 c-4 -3 -7 -11 -7 -17 0 -6 5 -5 12 2 6 6 9 14 7 17 -3 3
-9 2 -12 -2z"/>
<path d="M7347 513 c-4 -3 -7 -11 -7 -17 0 -6 5 -5 12 2 6 6 9 14 7 17 -3 3
-9 2 -12 -2z"/>
<path d="M7815 510 c-3 -5 -1 -10 4 -10 6 0 11 5 11 10 0 6 -2 10 -4 10 -3 0
-8 -4 -11 -10z"/>
<path d="M3180 481 c-16 -30 -12 -36 10 -16 21 19 26 35 10 35 -5 0 -14 -9
-20 -19z"/>
<path d="M4360 490 c0 -5 4 -10 9 -10 6 0 13 5 16 10 3 6 -1 10 -9 10 -9 0
-16 -4 -16 -10z"/>
<path d="M11447 493 c-14 -13 -6 -24 15 -21 27 4 36 28 11 28 -11 0 -23 -3
-26 -7z"/>
<path d="M5810 474 c0 -17 22 -14 28 4 2 7 -3 12 -12 12 -9 0 -16 -7 -16 -16z"/>
<path d="M6240 465 c-20 -24 -6 -28 15 -5 10 11 13 20 8 20 -6 0 -16 -7 -23
-15z"/>
<path d="M11360 455 c0 -15 4 -24 10 -20 6 3 10 12 10 20 0 8 -4 17 -10 20 -6
4 -10 -5 -10 -20z"/>
<path d="M3995 461 c-7 -12 12 -24 25 -16 11 7 4 25 -10 25 -5 0 -11 -4 -15
-9z"/>
<path d="M4711 454 c0 -11 3 -14 6 -6 3 7 2 16 -1 19 -3 4 -6 -2 -5 -13z"/>
<path d="M12480 455 c-10 -12 -10 -15 3 -15 8 0 20 7 27 15 10 12 10 15 -3 15
-8 0 -20 -7 -27 -15z"/>
<path d="M8020 441 c0 -11 5 -23 10 -26 6 -4 10 5 10 19 0 14 -4 26 -10 26 -5
0 -10 -9 -10 -19z"/>
<path d="M12580 449 c0 -5 5 -7 10 -4 6 3 10 8 10 11 0 2 -4 4 -10 4 -5 0 -10
-5 -10 -11z"/>
<path d="M3401 434 c0 -11 3 -14 6 -6 3 7 2 16 -1 19 -3 4 -6 -2 -5 -13z"/>
<path d="M6725 439 c-4 -6 -5 -13 -2 -16 7 -7 27 6 27 18 0 12 -17 12 -25 -2z"/>
<path d="M8075 430 c-3 -5 1 -10 9 -10 9 0 16 5 16 10 0 6 -4 10 -9 10 -6 0
-13 -4 -16 -10z"/>
<path d="M3140 414 c0 -8 5 -12 10 -9 6 3 10 10 10 16 0 5 -4 9 -10 9 -5 0
-10 -7 -10 -16z"/>
<path d="M4450 416 c0 -9 5 -16 10 -16 6 0 10 4 10 9 0 6 -4 13 -10 16 -5 3
-10 -1 -10 -9z"/>
<path d="M8445 420 c3 -5 10 -10 16 -10 5 0 9 5 9 10 0 6 -7 10 -16 10 -8 0
-12 -4 -9 -10z"/>
<path d="M12158 418 c-27 -9 -39 -28 -18 -28 16 0 60 23 60 32 0 10 -7 9 -42
-4z"/>
<path d="M7600 410 c0 -5 7 -10 15 -10 8 0 15 5 15 10 0 6 -7 10 -15 10 -8 0
-15 -4 -15 -10z"/>
<path d="M8255 383 c8 -43 13 -53 25 -53 5 0 2 20 -7 45 -18 55 -28 59 -18 8z"/>
<path d="M3810 395 c0 -8 5 -15 10 -15 6 0 10 7 10 15 0 8 -4 15 -10 15 -5 0
-10 -7 -10 -15z"/>
<path d="M7510 400 c0 -5 5 -10 10 -10 6 0 10 5 10 10 0 6 -4 10 -10 10 -5 0
-10 -4 -10 -10z"/>
<path d="M7860 400 c0 -5 7 -10 15 -10 8 0 15 5 15 10 0 6 -7 10 -15 10 -8 0
-15 -4 -15 -10z"/>
<path d="M5070 390 c0 -5 5 -10 10 -10 6 0 10 5 10 10 0 6 -4 10 -10 10 -5 0
-10 -4 -10 -10z"/>
<path d="M11685 370 c-18 -34 -18 -40 -5 -40 8 0 40 51 40 65 0 16 -22 1 -35
-25z"/>
<path d="M11764 375 c-4 -14 -3 -29 0 -33 9 -8 26 18 26 41 0 26 -19 20 -26
-8z"/>
<path d="M7130 381 c0 -6 5 -13 10 -16 6 -3 10 1 10 9 0 9 -4 16 -10 16 -5 0
-10 -4 -10 -9z"/>
<path d="M11590 349 c0 -5 5 -7 10 -4 6 3 10 8 10 11 0 2 -4 4 -10 4 -5 0 -10
-5 -10 -11z"/>
<path d="M4227 343 c-4 -3 -7 -11 -7 -17 0 -6 5 -5 12 2 6 6 9 14 7 17 -3 3
-9 2 -12 -2z"/>
<path d="M3800 310 c0 -5 5 -10 10 -10 6 0 10 5 10 10 0 6 -4 10 -10 10 -5 0
-10 -4 -10 -10z"/>
<path d="M6730 310 c0 -5 5 -10 10 -10 6 0 10 5 10 10 0 6 -4 10 -10 10 -5 0
-10 -4 -10 -10z"/>
<path d="M8570 304 c0 -8 5 -12 10 -9 6 4 8 11 5 16 -9 14 -15 11 -15 -7z"/>
<path d="M3090 300 c0 -5 4 -10 9 -10 6 0 13 5 16 10 3 6 -1 10 -9 10 -9 0
-16 -4 -16 -10z"/>
<path d="M3140 300 c0 -5 5 -10 10 -10 6 0 10 5 10 10 0 6 -4 10 -10 10 -5 0
-10 -4 -10 -10z"/>
<path d="M8970 300 c0 -5 5 -10 10 -10 6 0 10 5 10 10 0 6 -4 10 -10 10 -5 0
-10 -4 -10 -10z"/>
<path d="M7086 272 c-3 -6 -1 -14 5 -17 15 -10 25 3 12 16 -7 7 -13 7 -17 1z"/>
<path d="M7310 260 c0 -5 5 -10 11 -10 5 0 7 5 4 10 -3 6 -8 10 -11 10 -2 0
-4 -4 -4 -10z"/>
<path d="M8865 250 c10 -11 20 -18 23 -16 5 6 -23 36 -34 36 -4 0 1 -9 11 -20z"/>
<path d="M12540 260 c0 -5 4 -10 9 -10 6 0 13 5 16 10 3 6 -1 10 -9 10 -9 0
-16 -4 -16 -10z"/>
<path d="M8245 240 c3 -5 8 -10 11 -10 2 0 4 5 4 10 0 6 -5 10 -11 10 -5 0 -7
-4 -4 -10z"/>
<path d="M9025 239 c-10 -15 3 -25 16 -12 7 7 7 13 1 17 -6 3 -14 1 -17 -5z"/>
<path d="M11770 230 c0 -5 5 -10 10 -10 6 0 10 5 10 10 0 6 -4 10 -10 10 -5 0
-10 -4 -10 -10z"/>
<path d="M12390 216 c0 -32 16 -42 29 -18 7 13 7 22 -1 30 -19 19 -28 14 -28
-12z"/>
<path d="M6570 220 c0 -5 9 -10 20 -10 11 0 20 5 20 10 0 6 -9 10 -20 10 -11
0 -20 -4 -20 -10z"/>
<path d="M8665 220 c-3 -5 -1 -10 4 -10 6 0 11 5 11 10 0 6 -2 10 -4 10 -3 0
-8 -4 -11 -10z"/>
<path d="M9206 221 c-4 -7 -5 -15 -2 -18 9 -9 19 4 14 18 -4 11 -6 11 -12 0z"/>
<path d="M9373 223 c-28 -5 -29 -19 -4 -32 14 -8 22 -6 35 8 27 30 22 34 -31
24z"/>
<path d="M11596 222 c-3 -6 -1 -14 5 -17 15 -10 25 3 12 16 -7 7 -13 7 -17 1z"/>
<path d="M9070 201 c0 -25 6 -27 13 -6 4 8 2 17 -3 20 -6 4 -10 -3 -10 -14z"/>
<path d="M7680 201 c0 -5 5 -13 10 -16 6 -3 10 -2 10 4 0 5 -4 13 -10 16 -5 3
-10 2 -10 -4z"/>
<path d="M12076 186 c14 -47 20 -49 43 -18 11 17 21 32 21 35 0 3 -16 5 -35 4
-31 -1 -34 -4 -29 -21z"/>
<path d="M8400 180 c0 -5 5 -10 10 -10 6 0 10 5 10 10 0 6 -4 10 -10 10 -5 0
-10 -4 -10 -10z"/>
<path d="M9160 169 c0 -5 5 -7 10 -4 6 3 10 8 10 11 0 2 -4 4 -10 4 -5 0 -10
-5 -10 -11z"/>
<path d="M11810 155 c0 -8 5 -15 10 -15 6 0 10 7 10 15 0 8 -4 15 -10 15 -5 0
-10 -7 -10 -15z"/>
<path d="M7525 140 c3 -5 8 -10 11 -10 2 0 4 5 4 10 0 6 -5 10 -11 10 -5 0 -7
-4 -4 -10z"/>
<path d="M3268 133 c7 -3 16 -2 19 1 4 3 -2 6 -13 5 -11 0 -14 -3 -6 -6z"/>
<path d="M9394 126 c-7 -20 2 -46 16 -46 13 0 13 47 0 55 -6 3 -13 -1 -16 -9z"/>
<path d="M7637 106 c-3 -8 -2 -18 3 -21 13 -8 24 15 12 27 -6 6 -11 4 -15 -6z"/>
<path d="M9452 99 c2 -6 8 -10 13 -10 5 0 11 4 13 10 2 6 -4 11 -13 11 -9 0
-15 -5 -13 -11z"/>
<path d="M9552 21 c4 -13 18 -16 19 -4 0 4 -5 9 -11 12 -7 2 -11 -2 -8 -8z"/>
</g>
</svg>
