<svg height="512pt" viewBox="-89 0 512 512" width="512pt" xmlns="http://www.w3.org/2000/svg"><path d="m62.089844 360.335938c-22.484375 0-40.714844-18.230469-40.714844-40.71875v-106.371094c0-12.648438 10.253906-22.902344 22.902344-22.902344 12.648437 0 22.902344 10.253906 22.902344 22.902344v96.191406c0 2.8125 2.28125 5.089844 5.089843 5.089844h56.492188v45.804687h-66.671875zm0 0" fill="#538e44"/><path d="m272.796875 314.527344c22.484375 0 40.714844-18.226563 40.714844-40.714844v-126.726562c0-12.648438-10.253907-22.902344-22.902344-22.902344s-22.90625 10.253906-22.90625 22.902344v116.546874c0 2.8125-2.277344 5.089844-5.085937 5.089844h-60.058594v45.804688zm0 0" fill="#4a7a38"/><path d="m167.441406 31.554688c-4.214844 0-7.632812-3.417969-7.632812-7.632813v-16.289063c0-4.214843 3.417968-7.632812 7.632812-7.632812 4.21875 0 7.636719 3.417969 7.636719 7.632812v16.289063c0 4.214844-3.417969 7.632813-7.636719 7.632813zm0 0" fill="#b6ce7c"/><path d="m210.703125 466.195312h-86.519531v-399.523437c0-23.890625 19.367187-43.261719 43.257812-43.261719 23.894532 0 43.261719 19.371094 43.261719 43.261719zm0 0" fill="#68a55e"/><path d="m210.703125 66.671875v399.523437h-30.539063v-399.523437c0-11.949219-4.84375-22.761719-12.671874-30.585937-4.304688-4.308594-9.515626-7.707032-15.316407-9.894532 4.742188-1.804687 9.890625-2.78125 15.265625-2.78125 11.949219 0 22.761719 4.847656 30.589844 12.675782 7.828125 7.824218 12.671875 18.636718 12.671875 30.585937zm0 0" fill="#518e40"/><g fill="#b6ce7c"><path d="m327.253906 233.605469h-23.414062c-4.214844 0-7.632813-3.417969-7.632813-7.632813 0-4.21875 3.417969-7.632812 7.632813-7.632812h23.414062c4.214844 0 7.632813 3.414062 7.632813 7.632812 0 4.214844-3.417969 7.632813-7.632813 7.632813zm0 0"/><path d="m290.609375 133.851562c-4.21875 0-7.636719-3.414062-7.636719-7.632812v-20.867188c0-4.214843 3.417969-7.632812 7.636719-7.632812 4.214844 0 7.632813 3.417969 7.632813 7.632812v20.867188c0 4.214844-3.417969 7.632812-7.632813 7.632812zm0 0"/><path d="m244.804688 339.976562c-4.21875 0-7.636719-3.417968-7.636719-7.632812v-17.816406c0-4.214844 3.417969-7.632813 7.636719-7.632813 4.214843 0 7.632812 3.417969 7.632812 7.632813v17.816406c0 4.214844-3.417969 7.632812-7.632812 7.632812zm0 0"/><path d="m279.410156 181.695312h-26.464844c-4.214843 0-7.632812-3.417968-7.632812-7.636718 0-4.214844 3.417969-7.632813 7.632812-7.632813h26.464844c4.21875 0 7.636719 3.417969 7.636719 7.632813 0 4.21875-3.417969 7.636718-7.636719 7.636718zm0 0"/><path d="m228.515625 383.238281h-17.300781c-4.21875 0-7.636719-3.417969-7.636719-7.636719 0-4.214843 3.417969-7.632812 7.636719-7.632812h17.300781c4.21875 0 7.636719 3.417969 7.636719 7.632812 0 4.21875-3.417969 7.636719-7.636719 7.636719zm0 0"/><path d="m166.425781 318.089844h-10.179687c-4.214844 0-7.632813-3.417969-7.632813-7.632813 0-4.21875 3.417969-7.632812 7.632813-7.632812h10.179687c4.214844 0 7.632813 3.417969 7.632813 7.632812 0 4.21875-3.417969 7.632813-7.632813 7.632813zm0 0"/><path d="m210.195312 224.445312h-21.378906c-4.214844 0-7.632812-3.417968-7.632812-7.632812 0-4.21875 3.417968-7.636719 7.632812-7.636719h21.378906c4.214844 0 7.632813 3.417969 7.632813 7.636719 0 4.214844-3.417969 7.632812-7.632813 7.632812zm0 0"/><path d="m160.996094 136.738281c-4.214844 0-7.632813-3.417969-7.632813-7.636719v-17.300781c0-4.21875 3.417969-7.636719 7.632813-7.636719s7.632812 3.417969 7.632812 7.636719v17.300781c0 4.21875-3.417968 7.636719-7.632812 7.636719zm0 0"/><path d="m123.675781 197.980469h-17.304687c-4.21875 0-7.636719-3.417969-7.636719-7.632813 0-4.21875 3.417969-7.636718 7.636719-7.636718h17.304687c4.214844 0 7.632813 3.417968 7.632813 7.636718 0 4.214844-3.417969 7.632813-7.632813 7.632813zm0 0"/><path d="m228.515625 120.621094h-16.285156c-4.214844 0-7.632813-3.417969-7.632813-7.636719 0-4.214844 3.417969-7.632813 7.632813-7.632813h16.285156c4.21875 0 7.636719 3.417969 7.636719 7.632813 0 4.21875-3.417969 7.636719-7.636719 7.636719zm0 0"/><path d="m125.703125 61.117188c-1.394531 0-2.800781-.378907-4.066406-1.175782l-15.605469-9.839844c-3.566406-2.25-4.636719-6.964843-2.386719-10.53125 2.246094-3.566406 6.960938-4.636718 10.527344-2.386718l15.609375 9.839844c3.566406 2.25 4.632812 6.960937 2.386719 10.53125-1.453125 2.300781-3.929688 3.5625-6.464844 3.5625zm0 0"/><path d="m34.097656 284.5h-26.464844c-4.214843 0-7.632812-3.417969-7.632812-7.632812 0-4.214844 3.417969-7.632813 7.632812-7.632813h26.464844c4.21875 0 7.636719 3.414063 7.636719 7.632813s-3.417969 7.632812-7.636719 7.632812zm0 0"/><path d="m43.769531 209.6875c-4.214843 0-7.632812-3.417969-7.632812-7.636719v-26.464843c0-4.214844 3.417969-7.632813 7.632812-7.632813 4.214844 0 7.632813 3.417969 7.632813 7.632813v26.464843c0 4.21875-3.417969 7.636719-7.632813 7.636719zm0 0"/><path d="m90.59375 379.675781c-4.21875 0-7.636719-3.417969-7.636719-7.636719v-24.429687c0-4.214844 3.417969-7.632813 7.636719-7.632813 4.214844 0 7.632812 3.417969 7.632812 7.632813v24.429687c0 4.21875-3.417968 7.636719-7.632812 7.636719zm0 0"/><path d="m160.828125 423.441406c-4.21875 0-7.636719-3.414062-7.636719-7.632812v-15.269532c0-4.214843 3.417969-7.632812 7.636719-7.632812 4.214844 0 7.632813 3.417969 7.632813 7.632812v15.269532c0 4.21875-3.417969 7.632812-7.632813 7.632812zm0 0"/></g><path d="m267.703125 476.375v-25.449219c0-5.621093-4.554687-10.179687-10.175781-10.179687h-180.167969c-5.621094 0-10.179687 4.558594-10.179687 10.179687v25.449219zm0 0" fill="#e8ba5d"/><path d="m267.703125 450.925781v25.445313h-30.535156v-25.445313c0-5.617187-4.558594-10.179687-10.179688-10.179687h30.539063c5.617187 0 10.175781 4.5625 10.175781 10.179687zm0 0" fill="#d69941"/><path d="m278.191406 466.195312c9.765625 0 17.023438 9.042969 14.902344 18.582032l-3.390625 15.265625c-1.554687 6.988281-7.75 11.957031-14.90625 11.957031h-214.707031c-7.15625 0-13.355469-4.96875-14.90625-11.957031l-3.394532-15.265625c-2.117187-9.535156 5.136719-18.582032 14.90625-18.582032zm0 0" fill="#9e7f56"/><path d="m293.09375 484.769531-3.390625 15.269531c-1.546875 6.992188-7.746094 11.960938-14.902344 11.960938h-30.539062c7.15625 0 13.355469-4.96875 14.902343-11.960938l3.390626-15.269531c.652343-2.929687.417968-5.808593-.5-8.398437-2.066407-5.832032-7.632813-10.175782-14.402344-10.175782h30.539062c9.769532 0 17.027344 9.046876 14.902344 18.574219zm0 0" fill="#87613c"/></svg>