<?xml version="1.0" standalone="no"?>
<!DOCTYPE svg PUBLIC "-//W3C//DTD SVG 20010904//EN"
 "http://www.w3.org/TR/2001/REC-SVG-20010904/DTD/svg10.dtd">
<svg version="1.0" xmlns="http://www.w3.org/2000/svg"
 width="1219.000000pt" height="1280.000000pt" viewBox="0 0 1219.000000 1280.000000"
 preserveAspectRatio="xMidYMid meet">
<metadata>
Created by potrace 1.15, written by Peter Selinger 2001-2017
</metadata>
<g transform="translate(0.000000,1280.000000) scale(0.100000,-0.100000)"
fill="#000000" stroke="none">
<path d="M5848 12715 c-4 -22 -8 -58 -8 -81 0 -23 -3 -62 -6 -86 -6 -43 -9
-46 -46 -57 -37 -11 -78 -42 -78 -58 0 -8 279 -7 287 0 9 10 -60 57 -91 62
l-33 7 -9 126 c-7 102 -10 119 -16 87z"/>
<path d="M5680 12410 c-147 -19 -281 -62 -317 -102 -18 -20 -18 -21 22 -14 76
11 691 18 825 8 74 -5 137 -7 140 -5 9 8 -45 43 -96 62 -92 35 -204 53 -359
56 -82 2 -179 0 -215 -5z"/>
<path d="M5480 12290 c-164 -11 -200 -17 -206 -34 -5 -13 149 -239 178 -263 9
-8 76 -9 218 -4 113 4 286 4 385 1 99 -3 186 -4 193 -2 7 2 53 63 103 134 68
97 89 132 80 141 -6 6 -39 15 -74 19 -100 12 -730 17 -877 8z"/>
<path d="M4250 12269 c0 -8 14 -66 30 -129 27 -106 28 -116 13 -132 -11 -12
-12 -18 -4 -18 7 0 10 -4 6 -9 -3 -5 2 -16 11 -25 14 -14 14 -26 -1 -123 -8
-60 -17 -117 -19 -129 -3 -21 -2 -21 31 2 50 34 99 47 154 42 35 -4 47 -2 41
6 -5 6 -41 52 -81 103 -59 76 -71 96 -65 117 5 21 2 26 -12 27 -13 0 -15 2 -5
6 11 4 9 9 -7 22 -13 11 -31 54 -52 131 -32 114 -40 137 -40 109z"/>
<path d="M3860 12175 c0 -5 18 -66 40 -135 25 -80 36 -128 30 -134 -17 -17
-11 -28 13 -21 l22 6 -23 -14 c-22 -13 -22 -14 -5 -30 16 -14 18 -26 11 -99
-3 -46 -7 -105 -7 -132 l-1 -50 28 26 c40 37 66 49 133 56 l59 7 -82 94 c-62
70 -82 100 -80 117 2 15 -2 24 -10 24 -10 0 -10 2 0 8 9 6 6 11 -11 19 -17 8
-30 33 -52 94 -39 113 -64 176 -65 164z"/>
<path d="M5715 11953 c2 -16 7 -148 10 -295 5 -252 4 -268 -12 -268 -16 0 -18
12 -21 83 -4 89 -15 111 -61 122 -18 4 -32 19 -46 48 -14 30 -32 48 -62 62
l-41 20 -7 75 c-9 104 -8 102 -28 114 -28 18 -36 -9 -30 -100 l6 -82 -46 -43
c-31 -31 -47 -55 -52 -81 -5 -27 -12 -38 -25 -38 -10 0 -28 -12 -39 -27 -18
-22 -20 -35 -15 -77 3 -28 10 -66 14 -83 8 -33 8 -33 -30 -33 -47 0 -62 -16
-51 -56 l8 -29 94 2 c93 1 93 1 30 -7 -35 -5 -67 -13 -70 -18 -3 -4 -61 -16
-128 -26 -67 -10 -172 -28 -232 -40 l-111 -22 -11 39 c-10 38 -11 39 -47 33
-99 -15 -626 -175 -678 -205 -8 -4 2 -41 31 -116 l43 -110 -77 -12 c-114 -18
-186 -40 -287 -89 -94 -46 -256 -167 -262 -195 -2 -12 135 -278 164 -317 1 -2
21 6 44 18 23 12 39 17 36 12 -3 -5 -19 -15 -36 -22 -16 -7 -30 -17 -30 -23 0
-6 35 -74 79 -151 43 -78 244 -438 446 -801 202 -363 371 -664 376 -669 5 -5
37 6 76 26 246 129 543 224 838 270 116 18 184 22 390 22 262 0 412 -16 610
-63 44 -11 81 -19 82 -17 1 1 105 388 231 861 156 586 225 862 218 867 -7 5
-4 8 7 8 9 0 17 -6 17 -13 0 -7 -103 -397 -230 -867 -126 -470 -227 -857 -222
-861 4 -3 41 -16 82 -29 41 -12 115 -37 164 -56 49 -19 90 -33 91 -32 1 2 158
370 349 818 191 448 352 819 358 825 15 14 40 73 -347 -828 -190 -445 -345
-812 -343 -817 2 -5 62 -38 133 -74 263 -131 473 -283 686 -496 156 -155 242
-258 343 -410 266 -399 411 -827 447 -1316 6 -87 13 -161 15 -163 8 -8 1388
-6 1426 2 l37 8 -6 127 c-3 70 -8 162 -12 205 -4 42 -3 77 1 77 4 0 8 -10 8
-22 0 -54 21 -402 24 -406 6 -6 166 20 171 27 5 9 -13 376 -20 407 -4 20 3 21
168 38 94 10 175 20 179 22 12 8 221 275 217 278 -2 1 -139 -19 -304 -45 -165
-26 -301 -47 -302 -46 -1 1 -5 25 -9 54 l-6 51 53 11 c30 6 118 22 197 37
l143 26 -5 47 c-5 39 -4 41 3 13 5 -18 11 -35 14 -38 5 -6 374 61 424 77 69
22 93 151 53 280 -25 81 -52 126 -90 147 -36 20 -38 30 -7 34 19 3 22 10 25
56 8 133 -54 338 -141 469 -72 108 -70 107 -147 73 -82 -37 -90 -37 -90 -1 0
50 -47 215 -83 293 -56 122 -178 289 -246 337 l-27 19 -54 -33 -54 -33 -79
121 c-69 107 -228 324 -300 412 -25 30 -25 30 -46 11 -13 -12 -25 -16 -30 -10
-4 5 -41 47 -82 94 -41 47 -116 129 -167 182 l-94 97 36 15 c45 19 76 68 77
126 1 37 2 40 8 17 l6 -28 34 35 c34 35 34 36 15 58 -11 13 -5 11 14 -6 17
-16 34 -28 36 -25 2 2 61 90 130 196 l127 192 -16 31 c-26 50 -11 92 63 179
l65 76 -71 -69 c-80 -78 -126 -101 -163 -80 -13 7 -29 13 -34 14 -9 0 -193
-141 -351 -269 l-29 -23 100 -97 c55 -53 82 -80 60 -61 -22 19 -64 57 -93 85
l-53 50 -29 -35 c-16 -19 -30 -38 -30 -41 0 -4 -13 -12 -29 -19 -46 -19 -82
-63 -88 -110 -3 -23 -9 -37 -12 -31 -4 6 -23 -8 -45 -35 l-38 -46 33 -36 c33
-36 33 -36 -9 3 l-43 40 -44 -50 c-24 -27 -45 -48 -48 -45 -3 3 -7 36 -8 73
l-2 68 169 206 c93 114 172 211 176 217 6 10 -39 306 -48 315 -5 5 22 41 -219
-284 -235 -318 -221 -300 -228 -288 -4 6 39 71 93 145 55 75 100 138 100 140
0 5 -155 118 -162 118 -2 0 -47 -63 -99 -140 -52 -77 -96 -140 -99 -140 -3 0
-12 4 -20 9 -11 8 5 38 83 155 l96 145 -86 55 -87 55 -89 -145 c-49 -79 -95
-144 -102 -144 -7 0 -50 -63 -96 -140 -46 -77 -88 -140 -92 -140 -14 0 -2 24
78 157 41 68 75 127 75 131 0 4 -34 26 -76 49 l-75 42 -17 -28 c-9 -16 -44
-79 -77 -140 -55 -101 -75 -125 -89 -103 -3 4 29 71 70 147 41 77 74 140 74
141 0 4 -113 65 -136 74 -23 9 -26 5 -70 -83 -26 -50 -48 -94 -49 -95 -2 -2
-31 9 -64 24 -34 15 -59 29 -57 31 2 3 18 -3 36 -12 17 -9 36 -15 41 -13 5 2
34 55 64 118 59 123 63 149 23 183 -22 19 -69 22 -97 8 -10 -6 -41 -65 -71
-131 -43 -99 -50 -124 -39 -131 20 -13 4 -11 -26 3 -14 6 -25 15 -25 19 0 4
38 97 85 205 47 109 85 202 85 206 0 4 -20 10 -45 14 -25 3 -44 8 -42 11 3 2
42 -1 87 -7 45 -6 84 -9 87 -6 3 3 -12 12 -34 21 l-40 16 14 42 c31 88 -2 201
-83 282 -159 158 -441 151 -545 -14 -30 -47 -37 -81 -17 -81 6 0 9 -2 7 -5 -3
-2 -28 2 -57 9 -29 8 -52 12 -52 10 0 -2 18 -16 40 -30 22 -15 37 -30 34 -35
-2 -5 -29 -100 -60 -211 -30 -112 -56 -208 -58 -214 -3 -6 -16 -9 -30 -7 -20
4 -23 8 -16 22 6 9 24 69 40 133 33 124 31 143 -9 176 -14 11 -14 11 2 6 20
-7 20 -8 7 35 -5 18 -6 41 -1 50 4 9 5 27 0 41 -4 16 -7 19 -8 8 -1 -10 -5
-18 -11 -18 -5 0 -10 -10 -10 -23 0 -13 -12 -34 -26 -48 l-26 -24 29 -6 28 -7
-32 -1 c-18 0 -41 -9 -52 -20 -17 -17 -51 -138 -67 -241 l-6 -38 43 -7 c24 -5
39 -10 32 -12 -22 -8 -93 17 -93 33 0 8 25 130 56 271 30 140 53 258 50 261
-6 5 -251 -96 -287 -118 -9 -6 -27 -86 -54 -252 l-40 -242 -75 -42 c-41 -23
-77 -38 -80 -34 -6 10 -317 40 -408 40 l-53 0 6 173 c8 239 25 1043 25 1171
l0 106 -140 0 -139 0 4 -27z m-87 -570 c-27 -2 -69 -2 -95 0 -27 2 -5 3 47 3
52 0 74 -1 48 -3z m-170 -10 c-15 -2 -42 -2 -60 0 -18 2 -6 4 27 4 33 0 48 -2
33 -4z m-115 -10 c-13 -2 -33 -2 -45 0 -13 2 -3 4 22 4 25 0 35 -2 23 -4z
m380 -70 c-7 -2 -19 -2 -25 0 -7 3 -2 5 12 5 14 0 19 -2 13 -5z m-90 -10 c-23
-2 -64 -2 -90 0 -26 2 -7 3 42 3 50 0 71 -1 48 -3z m-165 -10 c-15 -2 -42 -2
-60 0 -18 2 -6 4 27 4 33 0 48 -2 33 -4z m1808 -301 c-5 -4 -66 26 -66 33 0 3
16 -3 35 -12 19 -9 33 -18 31 -21z m-2006 -2 c0 -5 -13 -10 -28 -10 -34 0
-312 -46 -362 -60 -44 -12 -57 -13 -44 -1 9 9 168 39 339 65 50 8 91 14 93 15
1 1 2 -3 2 -9z m2440 -70 c8 -5 11 -10 5 -10 -5 0 -17 5 -25 10 -8 5 -10 10
-5 10 6 0 17 -5 25 -10z m50 -20 c8 -5 11 -10 5 -10 -5 0 -17 5 -25 10 -8 5
-10 10 -5 10 6 0 17 -5 25 -10z m-83 -46 c-3 -3 -12 -4 -19 -1 -8 3 -5 6 6 6
11 1 17 -2 13 -5z m40 -10 c-3 -3 -12 -4 -19 -1 -8 3 -5 6 6 6 11 1 17 -2 13
-5z m-730 -220 c-3 -3 -12 -4 -19 -1 -8 3 -5 6 6 6 11 1 17 -2 13 -5z m-124
-51 c-7 -2 -19 -2 -25 0 -7 3 -2 5 12 5 14 0 19 -2 13 -5z m44 -9 c-3 -3 -12
-4 -19 -1 -8 3 -5 6 6 6 11 1 17 -2 13 -5z m40 -10 c-3 -3 -12 -4 -19 -1 -8 3
-5 6 6 6 11 1 17 -2 13 -5z m40 -10 c-3 -3 -12 -4 -19 -1 -8 3 -5 6 6 6 11 1
17 -2 13 -5z m-2812 -104 c-22 -10 -44 -18 -50 -18 -5 0 8 8 30 19 22 10 45
18 50 18 6 0 -8 -9 -30 -19z m-85 -35 c-14 -8 -29 -14 -35 -14 -5 0 1 6 15 14
14 8 30 14 35 14 6 0 -1 -6 -15 -14z m-90 -40 c-25 -13 -49 -24 -55 -24 -5 0
10 11 35 24 25 13 50 24 55 24 6 0 -10 -11 -35 -24z m2248 -27 c78 -6 145 -15
148 -20 3 -5 -5 -6 -18 -4 -39 9 -249 26 -323 26 -38 0 -77 5 -85 10 -16 10
19 8 278 -12z m-2339 -12 c-10 -9 -169 -86 -169 -81 0 6 151 84 164 85 5 0 7
-2 5 -4z m3771 -21 c14 -8 21 -14 15 -14 -5 0 -21 6 -35 14 -14 8 -20 14 -15
14 6 0 21 -6 35 -14z m93 -41 c63 -32 59 -28 51 -48 -8 -22 -27 -21 -20 2 5
14 -6 24 -46 44 -29 15 -49 27 -45 27 4 1 31 -11 60 -25z m1464 -210 c-3 -3
-12 -4 -19 -1 -8 3 -5 6 6 6 11 1 17 -2 13 -5z m78 -24 c3 -6 -1 -7 -9 -4 -18
7 -21 14 -7 14 6 0 13 -4 16 -10z m77 -75 c11 -21 10 -20 -37 35 l-30 35 28
-25 c16 -14 33 -34 39 -45z m-251 -181 c13 -12 33 -26 44 -32 11 -6 15 -12 8
-12 -31 0 -113 96 -113 132 0 7 9 -5 19 -27 10 -22 29 -50 42 -61z m74 -144
c13 11 19 10 37 -6 36 -33 257 -275 289 -318 17 -23 3 -9 -32 29 -35 39 -110
118 -168 177 -82 85 -109 106 -125 102 -16 -4 -35 10 -81 58 l-60 63 62 -59
c53 -51 64 -57 78 -46z m736 -1105 c55 -97 216 -420 233 -468 3 -11 2 -16 -4
-12 -6 3 -10 11 -10 16 0 19 -168 355 -239 479 -39 69 -65 118 -57 110 8 -8
42 -64 77 -125z m479 -470 c0 -5 -5 -3 -10 5 -5 8 -10 20 -10 25 0 6 5 3 10
-5 5 -8 10 -19 10 -25z m20 -50 c0 -5 -5 -3 -10 5 -5 8 -10 20 -10 25 0 6 5 3
10 -5 5 -8 10 -19 10 -25z m24 -65 c5 -17 4 -20 -2 -10 -5 8 -13 26 -16 40 -5
17 -4 20 2 10 5 -8 13 -26 16 -40z m40 -110 c5 -20 3 -19 -8 5 -7 17 -16 41
-20 55 -5 20 -3 19 8 -5 7 -16 16 -41 20 -55z m64 -200 c0 -8 -8 8 -18 35 -10
28 -18 57 -18 65 0 8 8 -7 18 -35 10 -27 18 -57 18 -65z m21 -70 c0 -9 -4 -8
-9 5 -5 11 -9 27 -9 35 0 9 4 8 9 -5 5 -11 9 -27 9 -35z m-124 -220 c19 -79
35 -151 34 -159 0 -15 -77 282 -79 303 -1 30 14 -17 45 -144z m-490 -63 c10
-37 16 -69 14 -72 -3 -2 -14 32 -26 77 -12 44 -18 76 -13 72 4 -5 15 -39 25
-77z m44 -191 c11 -49 16 -85 12 -80 -8 9 -42 161 -40 179 1 17 8 -7 28 -99z"/>
<path d="M7748 11691 c-36 -79 -37 -81 -72 -81 -36 0 -56 -14 -34 -23 8 -3 5
-6 -5 -6 -14 -1 -17 -6 -12 -23 4 -13 9 -31 12 -41 3 -12 -26 -47 -103 -120
l-107 -102 80 -6 c88 -7 171 -38 236 -90 44 -36 44 -41 16 132 l-21 131 36 33
c20 18 36 37 36 43 0 6 -13 22 -28 37 l-29 27 19 76 c10 43 17 81 15 86 -1 4
-19 -28 -39 -73z m-61 -117 c-3 -3 -12 -4 -19 -1 -8 3 -5 6 6 6 11 1 17 -2 13
-5z m63 -20 c23 -9 39 -18 37 -20 -2 -3 -24 4 -48 15 -54 24 -45 27 11 5z"/>
<path d="M4400 11731 c-76 -25 -125 -71 -135 -128 -5 -24 53 -245 68 -260 5
-4 265 62 298 75 15 6 14 19 -11 122 -29 126 -40 150 -81 174 -33 19 -105 28
-139 17z"/>
<path d="M4064 11631 c-73 -18 -144 -92 -144 -150 0 -15 75 -233 85 -249 1 -1
72 21 157 50 l154 52 -34 115 c-32 108 -56 152 -92 171 -25 13 -93 19 -126 11z"/>
<path d="M4750 11473 c0 -11 7 -56 16 -98 9 -42 13 -86 10 -98 -6 -23 12 -107
23 -107 3 0 22 4 41 9 19 5 52 12 74 16 l38 6 -7 47 c-4 26 -9 50 -11 53 -2 3
-28 1 -59 -4 -30 -6 -57 -8 -60 -5 -3 2 -12 43 -21 89 -16 82 -44 140 -44 92z"/>
<path d="M4480 11364 c-140 -38 -487 -149 -499 -160 -4 -4 50 -153 58 -158 3
-2 92 24 196 59 105 34 256 80 338 100 89 23 147 43 147 50 0 7 -7 45 -16 84
-14 61 -19 71 -38 70 -11 0 -95 -20 -186 -45z"/>
<path d="M7301 11333 c5 -14 7 -39 4 -55 -4 -15 -5 -28 -3 -28 2 0 25 9 53 19
l50 19 -37 15 c-20 9 -43 25 -50 36 -18 30 -29 26 -17 -6z"/>
<path d="M7193 11258 c15 -21 27 -41 26 -45 -5 -31 4 -33 35 -6 42 34 44 43
10 43 -15 0 -43 10 -63 22 l-36 22 28 -36z"/>
<path d="M7110 11160 c14 -11 28 -20 31 -20 3 0 11 -12 18 -26 l12 -27 19 39
c11 21 20 39 20 40 0 2 -15 2 -32 1 -18 -1 -46 2 -63 6 l-30 8 25 -21z"/>
<path d="M7802 11143 c14 -30 44 -73 51 -73 5 0 11 8 14 18 2 10 18 26 34 36
38 22 34 27 -13 17 -20 -5 -42 -5 -49 0 -17 11 -42 12 -37 2z"/>
<path d="M6212 11049 c-12 -21 -22 -40 -22 -42 0 -3 18 -7 40 -9 22 -2 40 -1
40 3 0 4 -8 25 -18 47 l-18 40 -22 -39z"/>
<path d="M7863 11005 c11 -46 23 -57 33 -30 3 8 21 17 40 21 39 7 36 24 -4 24
-15 0 -36 7 -46 15 -31 23 -34 18 -23 -30z"/>
<path d="M6155 10959 c-46 -40 -106 -165 -139 -289 -14 -52 -26 -102 -26 -110
0 -13 30 -18 183 -28 100 -7 192 -15 205 -18 20 -6 22 -3 22 32 0 22 -7 82
-15 134 -40 264 -127 369 -230 279z"/>
<path d="M7867 10903 c-4 -20 -5 -38 -4 -38 1 -1 26 1 56 4 l54 6 -37 17 c-20
10 -39 25 -42 33 -10 26 -21 17 -27 -22z"/>
<path d="M7928 10735 c-10 -13 -18 -28 -18 -34 0 -5 -17 -20 -37 -32 l-37 -23
32 -7 c17 -3 38 -12 46 -18 11 -10 15 -4 19 31 3 24 8 58 11 76 7 38 6 38 -16
7z"/>
<path d="M1835 10458 c42 -54 63 -88 58 -98 -3 -8 -8 -31 -11 -50 l-4 -35 68
65 c38 36 71 68 72 73 5 10 -46 9 -66 -2 -14 -7 -33 5 -92 59 -41 38 -78 69
-83 70 -4 0 22 -37 58 -82z"/>
<path d="M2492 10498 c13 -18 55 -73 91 -122 41 -54 65 -96 62 -105 -3 -10 28
-58 83 -126 83 -105 89 -110 132 -116 25 -4 46 -5 48 -4 2 2 -43 63 -100 137
-64 81 -112 134 -125 136 -11 2 -58 50 -113 117 -50 63 -94 115 -97 115 -3 0
6 -15 19 -32z"/>
<path d="M1961 10342 c-34 -32 -61 -62 -61 -68 0 -6 20 -17 45 -24 39 -11 46
-17 59 -54 68 -186 108 -291 116 -305 8 -14 9 -14 10 2 1 79 150 226 255 251
l30 8 -30 13 c-16 7 -95 42 -175 77 l-145 64 -13 47 c-7 26 -17 47 -22 47 -5
0 -36 -26 -69 -58z"/>
<path d="M3210 10221 c0 -48 8 -56 33 -34 16 14 15 11 -4 -15 -43 -59 -25
-182 53 -369 17 -40 34 -73 37 -73 4 0 70 42 147 93 78 50 150 97 160 103 17
10 10 21 -81 110 -107 106 -197 164 -256 164 -19 0 -29 4 -22 8 7 5 -2 15 -28
29 l-39 21 0 -37z"/>
<path d="M2367 10126 c-113 -41 -227 -172 -227 -261 0 -37 -10 -44 -30 -20
-17 21 -24 19 -83 -18 -129 -84 -245 -210 -310 -340 -59 -118 -59 -117 17
-173 l66 -48 -32 -25 c-164 -126 -294 -313 -353 -507 -35 -113 -34 -117 29
-153 l54 -31 -48 -93 c-56 -106 -122 -251 -191 -420 l-48 -118 25 -9 c13 -5
24 -13 24 -18 0 -4 -18 -62 -40 -127 -22 -66 -54 -167 -71 -225 -16 -58 -32
-111 -34 -118 -4 -10 -11 -9 -32 6 -62 43 -131 34 -189 -26 -30 -30 -34 -32
-19 -9 10 15 26 32 37 38 27 14 14 27 -36 34 -30 5 -46 13 -49 24 -4 15 -30
19 -203 29 -271 16 -262 17 -276 -14 -7 -14 -27 -32 -46 -40 -31 -12 -45 -12
-119 2 -47 8 -87 14 -89 11 -2 -2 33 -12 78 -22 96 -22 135 -51 140 -105 l3
-35 215 -87 c162 -65 217 -83 225 -74 6 7 21 9 40 5 17 -4 40 -7 53 -8 22 -1
22 0 8 21 -9 12 -16 29 -16 37 0 8 10 -5 23 -29 59 -113 196 -103 259 19 15
29 28 47 28 39 0 -21 -57 -108 -76 -115 -24 -9 2 -21 63 -29 28 -3 54 -12 57
-19 3 -8 29 -16 60 -20 31 -4 56 -11 56 -15 0 -14 -105 -80 -126 -80 -12 0
-130 18 -263 40 -133 22 -250 40 -261 40 -10 0 -72 -44 -136 -97 -98 -81 -114
-98 -98 -104 10 -4 163 -24 339 -43 352 -40 372 -43 359 -56 -5 -4 -82 0 -173
11 -90 11 -166 18 -168 15 -8 -8 -23 -190 -16 -197 5 -3 82 -11 172 -18 90 -6
166 -13 169 -15 2 -3 2 -13 -2 -22 -6 -17 -13 -17 -267 2 l-76 6 -7 -32 c-3
-18 -6 -66 -6 -106 l0 -74 170 0 c142 0 172 -2 176 -15 5 -12 34 -15 170 -15
103 0 164 -4 164 -10 0 -6 -62 -10 -165 -10 l-165 0 0 -90 0 -91 165 7 c161 7
165 7 165 -13 0 -19 -8 -20 -160 -25 -89 -3 -162 -7 -164 -9 -3 -2 -2 -43 1
-91 l6 -86 108 5 109 6 0 -25 c0 -17 -5 -24 -17 -24 -33 2 -246 -16 -260 -21
-7 -3 -20 -17 -28 -32 -8 -14 -14 -20 -15 -13 0 9 -9 7 -29 -7 -16 -12 -40
-21 -54 -21 -31 0 -60 -29 -31 -32 11 0 29 0 41 1 13 1 37 -6 54 -14 31 -16
31 -16 25 7 -6 20 -5 19 9 -4 8 -15 27 -31 41 -34 42 -11 257 16 272 34 10 13
12 11 12 -19 l0 -34 -221 -26 c-121 -15 -222 -29 -225 -32 -3 -3 2 -22 10 -42
9 -21 16 -43 16 -49 -1 -6 -15 24 -33 66 -40 95 -47 102 -47 50 0 -37 -3 -42
-22 -42 -98 -1 -212 -132 -225 -257 -3 -29 -9 -55 -13 -58 -3 -2 -3 22 1 53 4
31 7 57 6 59 -2 1 -56 -41 -120 -93 -118 -94 -118 -94 -147 -79 -38 20 -50 19
-51 -2 0 -15 -2 -15 -9 2 -7 19 -8 19 -18 -5 -5 -14 -11 -33 -13 -43 -3 -14
-28 -27 -89 -47 l-85 -28 90 5 90 5 23 -31 c12 -17 27 -31 32 -31 5 0 25 14
45 31 l36 32 117 -36 c64 -20 129 -39 143 -42 l26 -6 -35 70 c-23 47 -36 88
-38 123 l-3 53 8 -51 c19 -119 99 -232 197 -280 48 -23 63 -26 123 -22 l69 5
7 -33 c11 -61 25 -36 27 49 1 61 3 72 7 41 l6 -40 215 58 c118 31 216 58 217
58 6 1 24 -72 19 -77 -3 -4 -6 1 -6 10 0 22 -5 22 -139 -14 -122 -32 -151 -49
-151 -83 0 -14 -3 -17 -8 -8 -6 9 -16 4 -37 -18 -16 -16 -36 -30 -44 -30 -9 0
-25 -7 -35 -15 -18 -13 -14 -14 40 -13 57 2 127 -7 145 -18 5 -3 68 14 140 36
114 36 156 44 137 25 -3 -3 -121 -42 -264 -87 -142 -44 -261 -83 -264 -85 -7
-6 31 -38 153 -127 l106 -77 226 86 c124 47 230 85 235 85 16 0 149 -84 144
-91 -6 -10 67 -174 138 -313 l55 -107 -177 -97 c-97 -53 -382 -209 -633 -347
-251 -137 -457 -253 -457 -257 0 -6 89 -162 128 -226 7 -10 71 25 262 142 139
86 253 155 254 154 1 -2 37 -57 80 -123 113 -172 225 -325 239 -325 21 0 57
30 57 47 0 9 -29 54 -64 102 -91 124 -241 351 -232 351 2 0 39 -53 81 -117
113 -171 195 -283 208 -283 7 0 38 -34 70 -75 31 -41 100 -123 152 -184 l94
-109 -32 -25 -32 -24 65 -73 c83 -94 316 -310 471 -438 15 -11 25 -3 89 75 39
48 75 89 79 91 5 1 21 -17 36 -40 48 -72 177 -190 267 -243 89 -53 244 -113
269 -103 12 5 1142 1874 1151 1905 2 6 -42 41 -97 78 -308 206 -587 492 -783
800 -121 192 -244 459 -302 658 -20 67 -26 77 -42 71 -11 -3 -92 -25 -181 -49
-89 -24 -340 -91 -557 -150 -217 -58 -523 -140 -680 -182 -157 -42 -288 -81
-292 -87 -5 -7 -8 -4 -8 6 0 12 12 20 38 27 20 5 370 98 777 206 407 108 776
205 820 217 44 11 84 24 88 28 4 3 -6 74 -23 156 -16 82 -30 162 -30 177 0 28
-2 29 -37 23 -21 -3 -209 -26 -418 -52 -481 -57 -631 -75 -989 -119 -337 -41
-346 -41 -346 -17 0 12 2 14 8 4 7 -10 86 -3 393 33 211 25 593 70 849 100
256 30 479 57 496 60 l31 5 -5 233 c-5 258 5 397 44 601 81 420 275 833 551
1176 158 197 405 418 621 557 56 36 102 70 102 75 0 13 -477 862 -571 1015
-70 114 -159 243 -168 243 -4 0 -84 -50 -176 -110 -92 -61 -169 -109 -171
-107 -5 5 291 200 329 218 15 7 27 16 27 21 0 11 -86 124 -101 134 -12 7 -87
-37 -239 -141 -58 -39 -110 -74 -116 -78 -7 -4 -50 47 -113 132 -65 89 -109
141 -123 144 -40 10 -319 48 -327 45 -4 -2 79 -109 185 -238 l193 -235 -42
-37 c-23 -21 -45 -34 -48 -30 -4 4 -63 74 -133 155 l-126 148 -52 -47 c-29
-27 -99 -93 -155 -148 -56 -55 -105 -97 -108 -94 -3 3 62 68 145 144 82 76
149 142 148 146 -9 24 -285 331 -305 339 -32 12 -50 11 -96 -5z m-111 -608
c-48 -50 -136 -152 -196 -225 -61 -74 -110 -131 -110 -128 0 21 365 443 383
444 5 1 -30 -40 -77 -91z m778 -170 c-38 -35 -101 -92 -140 -128 -39 -36 -12
-8 60 63 71 70 134 127 140 127 5 0 -22 -28 -60 -62z m-955 -400 c-85 -120
-213 -317 -269 -416 -29 -51 -57 -95 -63 -99 -6 -4 -2 9 10 28 11 19 44 75 73
124 87 146 283 435 296 435 3 0 -18 -33 -47 -72z m-748 -1195 c-21 -60 -53
-161 -71 -225 -19 -65 -36 -116 -38 -114 -11 11 128 446 142 446 3 0 -12 -48
-33 -107z m-91 -363 c8 -5 12 -12 9 -15 -8 -8 -39 5 -39 16 0 11 11 11 30 -1z
m-389 -61 c-5 -13 -10 -19 -10 -12 -1 15 10 45 15 40 3 -2 0 -15 -5 -28z m296
-1 c-3 -8 -6 -5 -6 6 -1 11 2 17 5 13 3 -3 4 -12 1 -19z m-340 -10 c-3 -8 -6
-5 -6 6 -1 11 2 17 5 13 3 -3 4 -12 1 -19z m30 -70 c-2 -13 -4 -5 -4 17 -1 22
1 32 4 23 2 -10 2 -28 0 -40z m603 -1378 c0 -5 -6 -10 -14 -10 -9 0 -16 -13
-19 -32 -3 -29 -4 -27 -5 10 -2 36 1 42 18 42 11 0 20 -4 20 -10z m-103 -132
c-2 -13 -4 -3 -4 22 0 25 2 35 4 23 2 -13 2 -33 0 -45z m80 -20 c-2 -13 -4 -5
-4 17 -1 22 1 32 4 23 2 -10 2 -28 0 -40z m-560 -190 c-3 -8 -6 -5 -6 6 -1 11
2 17 5 13 3 -3 4 -12 1 -19z m10 -60 c-3 -8 -6 -5 -6 6 -1 11 2 17 5 13 3 -3
4 -12 1 -19z m80 -50 c-3 -8 -6 -5 -6 6 -1 11 2 17 5 13 3 -3 4 -12 1 -19z
m-70 -30 c-3 -8 -6 -5 -6 6 -1 11 2 17 5 13 3 -3 4 -12 1 -19z m90 -40 c-3 -8
-6 -5 -6 6 -1 11 2 17 5 13 3 -3 4 -12 1 -19z m-80 -10 c-3 -8 -6 -5 -6 6 -1
11 2 17 5 13 3 -3 4 -12 1 -19z m10 -70 c-3 -8 -6 -5 -6 6 -1 11 2 17 5 13 3
-3 4 -12 1 -19z m10 -40 c-3 -8 -6 -5 -6 6 -1 11 2 17 5 13 3 -3 4 -12 1 -19z
m10 -60 c-3 -8 -6 -5 -6 6 -1 11 2 17 5 13 3 -3 4 -12 1 -19z m-619 -93 c0
-16 -2 -15 -8 5 -4 14 -8 36 -8 50 0 22 1 22 8 -5 4 -16 8 -39 8 -50z m719
-27 c-3 -8 -6 -5 -6 6 -1 11 2 17 5 13 3 -3 4 -12 1 -19z m552 -98 c0 -9 -4
-8 -9 5 -5 11 -9 27 -9 35 0 9 4 8 9 -5 5 -11 9 -27 9 -35z m-62 -72 c-3 -8
-6 -5 -6 6 -1 11 2 17 5 13 3 -3 4 -12 1 -19z m80 0 c-3 -8 -6 -5 -6 6 -1 11
2 17 5 13 3 -3 4 -12 1 -19z m-385 -93 c9 -20 9 -20 -6 -1 -9 11 -16 27 -15
35 0 14 1 14 6 1 3 -8 10 -24 15 -35z m963 -442 c72 -145 88 -195 26 -80 -47
87 -151 315 -150 330 0 7 12 -15 27 -48 14 -33 58 -124 97 -202z m-63 -1151
c37 -48 99 -123 138 -167 38 -44 70 -83 70 -87 0 -11 -80 79 -184 207 -112
137 -110 135 -100 134 5 0 39 -39 76 -87z m913 -552 c12 -20 206 -161 356
-260 84 -55 149 -100 145 -100 -17 0 -273 172 -401 269 -136 104 -132 100
-118 101 6 0 15 -5 18 -10z"/>
<path d="M9859 9875 c-69 -63 -109 -93 -119 -89 -38 16 -108 16 -142 0 -30
-15 -38 -15 -69 -3 -19 8 -41 12 -49 10 -8 -3 -43 -33 -77 -66 l-63 -61 93
-96 c51 -52 120 -126 153 -165 l61 -69 66 53 c70 57 85 87 64 127 -12 23 -11
31 10 72 25 49 29 92 12 124 -10 18 -2 28 62 87 41 36 90 80 109 98 29 26 33
35 24 49 -6 10 -15 19 -20 21 -6 2 -57 -39 -115 -92z"/>
<path d="M10590 9799 c-80 -60 -110 -78 -128 -74 -17 4 -26 -1 -39 -23 -14
-24 -29 -32 -87 -47 -39 -10 -93 -25 -120 -32 l-49 -15 30 -17 c42 -26 81 -76
94 -122 l12 -40 63 108 c52 89 68 109 91 113 21 4 29 12 31 30 2 18 30 46 98
99 83 66 125 103 113 100 -2 0 -51 -36 -109 -80z m-129 -106 c13 -16 12 -17
-3 -4 -17 13 -22 21 -14 21 2 0 10 -8 17 -17z"/>
<path d="M10068 9586 c-14 -8 -63 -44 -107 -81 -73 -60 -80 -69 -69 -85 97
-136 165 -219 176 -215 28 10 185 130 200 153 8 13 15 43 14 66 -1 116 -124
209 -214 162z"/>
<path d="M10800 9500 c-73 -49 -112 -68 -127 -65 -21 5 -53 -17 -53 -35 0 -5
-24 -13 -52 -19 -29 -6 -86 -19 -126 -27 l-73 -16 34 -24 c42 -28 73 -76 82
-127 l8 -39 70 106 c53 80 75 106 91 106 26 0 46 18 46 40 0 8 46 46 101 85
86 60 120 87 107 85 -2 -1 -50 -32 -108 -70z"/>
<path d="M9778 9402 c-31 -26 -57 -51 -57 -55 -1 -5 29 -48 67 -95 106 -136
245 -335 308 -440 4 -6 144 80 144 88 0 33 -376 551 -398 550 -4 -1 -33 -22
-64 -48z"/>
<path d="M10174 9259 c-54 -38 -99 -73 -99 -77 0 -12 158 -242 166 -242 18 0
195 119 214 144 63 86 -28 246 -140 246 -35 0 -56 -10 -141 -71z"/>
<path d="M410 8875 c0 -2 53 -31 118 -64 78 -40 120 -68 127 -83 6 -15 21 -25
41 -28 23 -4 50 -27 110 -94 l79 -89 7 41 c9 52 34 100 69 133 l29 27 -125 7
c-105 6 -127 10 -135 25 -13 23 -39 33 -55 20 -10 -8 -32 -2 -84 25 -89 44
-181 85 -181 80z m278 -140 c-6 -14 -13 -23 -15 -21 -5 5 15 46 22 46 3 0 -1
-11 -7 -25z"/>
<path d="M1022 8713 c-38 -7 -97 -74 -110 -124 -12 -47 -3 -108 19 -135 14
-17 53 -38 165 -89 l74 -34 65 129 c36 71 65 133 65 138 0 12 -215 122 -236
121 -10 -1 -29 -4 -42 -6z"/>
<path d="M1311 8587 c-54 -87 -269 -573 -258 -583 2 -3 38 -18 78 -33 66 -26
75 -27 81 -12 4 9 35 80 68 159 33 79 92 206 130 283 39 76 70 141 70 144 0 5
-135 75 -144 75 -2 0 -14 -15 -25 -33z"/>
<path d="M270 8526 c0 -1 54 -27 120 -56 93 -40 120 -56 120 -71 0 -19 8 -22
45 -20 13 1 50 -29 105 -84 81 -82 109 -102 97 -70 -12 28 20 116 54 151 l33
34 -123 0 c-119 0 -125 1 -147 25 -19 21 -27 23 -46 15 -19 -9 -44 -3 -138 35
-121 47 -120 47 -120 41z"/>
<path d="M860 8397 c-80 -42 -116 -160 -71 -233 15 -25 41 -40 136 -78 110
-44 135 -49 135 -25 0 6 23 65 51 130 30 70 48 124 43 129 -15 14 -215 100
-234 100 -9 0 -36 -10 -60 -23z"/>
<path d="M1038 7920 c-21 -22 -39 -30 -64 -30 -43 0 -93 -21 -118 -49 -11 -11
-24 -21 -30 -21 -6 0 -67 18 -135 40 -69 23 -131 38 -138 36 -21 -9 -15 -46
10 -56 12 -5 75 -25 140 -45 112 -34 117 -37 117 -63 0 -35 31 -84 69 -113 23
-17 31 -31 31 -54 0 -44 25 -63 112 -86 40 -10 76 -19 79 -19 3 0 14 30 24 68
10 37 40 132 66 212 27 79 45 147 41 151 -9 8 -150 59 -163 59 -6 0 -24 -13
-41 -30z"/>
<path d="M10940 7580 c0 -4 9 -15 21 -26 57 -51 99 -211 79 -299 -6 -26 -9
-49 -8 -51 2 -1 70 47 152 107 l149 111 43 -11 c24 -6 45 -11 48 -11 12 0 5
61 -15 125 l-21 67 -31 -28 c-17 -16 -34 -32 -37 -35 -3 -4 -89 8 -192 26
-104 18 -188 29 -188 25z"/>
<path d="M11421 7523 c11 -37 19 -81 19 -97 0 -28 1 -29 19 -12 11 10 21 30
23 45 3 23 13 30 108 63 58 20 101 37 95 37 -5 0 -54 -6 -108 -13 l-97 -14
-29 29 c-16 16 -34 29 -39 29 -5 0 -1 -30 9 -67z"/>
<path d="M11293 6953 c9 -2 23 -2 30 0 6 3 -1 5 -18 5 -16 0 -22 -2 -12 -5z"/>
<path d="M10851 6929 c-118 -18 -126 -21 -152 -52 -37 -42 -36 -50 4 -44 17 3
92 14 165 23 91 12 139 22 149 33 10 10 65 25 137 38 113 21 116 22 41 15 -94
-8 -172 -8 -200 0 -11 4 -76 -2 -144 -13z"/>
<path d="M10203 6533 c4 -49 10 -134 13 -190 5 -86 9 -103 23 -103 31 0 206
51 259 75 79 36 112 63 134 109 14 31 18 34 13 13 l-6 -28 40 23 40 23 -32 17
c-18 9 -39 17 -48 18 -9 0 -22 7 -30 16 -33 40 -158 83 -304 104 -117 16 -108
23 -102 -77z"/>
<path d="M8545 6060 c-23 -334 -81 -598 -190 -870 -120 -299 -323 -617 -529
-828 l-61 -62 630 -630 c347 -347 634 -630 639 -630 4 0 37 30 73 68 l65 67
-50 -60 c-27 -33 -59 -69 -71 -79 l-22 -20 -637 637 -637 637 -50 -51 c-28
-28 -89 -82 -137 -121 l-87 -71 18 -26 c11 -14 253 -336 539 -716 286 -379
518 -693 516 -697 -3 -4 -44 -35 -91 -69 -77 -55 -113 -67 -113 -39 0 13 17
13 25 0 8 -13 167 101 161 116 -3 9 -1026 1379 -1062 1422 -1 2 -26 -14 -56
-35 -303 -220 -693 -384 -1074 -452 -259 -46 -624 -53 -864 -16 -296 46 -572
134 -828 265 l-113 57 -33 -51 c-32 -49 -448 -752 -533 -901 -50 -86 -165
-316 -161 -320 9 -9 196 -107 276 -144 50 -25 90 -46 88 -49 -6 -5 -169 73
-285 136 -51 29 -97 52 -101 52 -4 0 -22 -37 -39 -81 -26 -65 -30 -84 -19 -90
7 -5 92 -48 188 -96 96 -49 177 -89 179 -90 2 -2 -27 -74 -66 -160 l-70 -158
24 -68 c14 -38 44 -114 67 -169 33 -76 45 -95 51 -81 4 10 52 135 107 278 54
143 103 263 107 268 6 6 101 -20 101 -28 0 -2 -29 -85 -65 -186 -36 -100 -65
-186 -65 -190 0 -5 60 -27 133 -50 173 -54 192 -61 147 -53 -19 4 -89 24 -155
45 -65 21 -120 37 -120 36 -1 -1 -34 -95 -74 -210 -54 -154 -71 -214 -66 -235
10 -42 85 -107 152 -132 85 -32 188 -37 236 -12 l38 20 -3 -31 c-3 -29 1 -33
72 -68 126 -64 236 -91 375 -92 66 -1 136 2 156 6 l37 7 6 68 c11 103 12 105
46 87 156 -81 496 -99 683 -37 l52 17 3 66 3 66 137 7 c139 6 335 26 470 47
70 11 72 13 72 40 0 22 6 30 23 33 12 3 90 19 173 36 83 17 182 39 220 50 38
11 71 20 75 20 3 0 5 -22 5 -48 0 -57 28 -103 74 -122 17 -7 29 -15 26 -17 -2
-3 -14 0 -25 7 -20 10 -21 9 -15 -17 4 -15 11 -39 16 -52 6 -17 5 -27 -4 -32
-10 -6 13 -61 92 -219 l105 -210 35 0 c55 -1 83 -33 115 -128 15 -46 29 -82
31 -79 2 2 -7 42 -21 90 -28 96 -24 120 26 167 l26 25 -23 160 c-38 263 -45
295 -59 295 -7 0 -21 23 -30 51 l-17 51 -20 -31 c-19 -29 -92 -81 -114 -81 -5
0 14 13 42 30 94 53 118 149 56 223 -29 34 -66 136 -64 175 1 12 -7 45 -17 72
-11 28 -15 50 -10 50 22 0 127 -61 134 -77 3 -10 47 -126 97 -258 50 -132 92
-241 93 -243 5 -6 290 -110 294 -107 2 3 -60 153 -138 336 -79 182 -140 334
-136 337 9 9 18 -8 86 -166 34 -78 67 -142 73 -142 17 0 176 73 176 81 0 4
-31 72 -70 150 -38 79 -70 149 -70 155 0 7 7 14 15 18 11 4 34 -32 91 -147 42
-84 78 -154 79 -155 2 -2 44 17 94 43 l90 46 -37 67 c-20 37 -57 105 -83 152
-26 47 -44 90 -39 95 4 6 -27 72 -71 150 -43 77 -79 143 -79 148 0 26 24 -10
93 -133 43 -77 82 -140 87 -140 10 0 150 80 150 86 0 2 -38 66 -84 141 -78
128 -87 152 -55 153 3 0 43 -61 89 -135 45 -74 85 -135 89 -135 3 0 39 22 78
48 l73 48 -60 86 c-33 47 -60 88 -60 90 0 10 190 139 197 134 5 -2 66 -83 138
-179 l130 -174 110 112 c60 61 78 77 39 36 -112 -120 -211 -248 -172 -226 7 5
31 22 53 39 22 17 34 23 26 13 -12 -15 -11 -21 9 -42 45 -48 117 -75 197 -75
202 0 374 164 377 360 1 78 -15 129 -54 170 l-29 31 32 29 c38 35 23 38 -36 9
-23 -12 -38 -18 -34 -13 4 4 -65 81 -155 171 l-162 162 75 77 76 76 208 -190
c115 -105 210 -190 211 -189 5 4 34 265 34 299 0 35 -7 42 -187 190 l-188 154
0 87 c0 58 4 87 11 87 12 0 142 181 217 302 23 37 45 67 49 68 6 0 390 -232
1086 -656 l152 -93 24 37 c41 65 118 204 114 207 -2 1 -118 64 -258 140 -140
76 -257 139 -259 141 -2 2 17 40 42 86 62 115 187 390 187 411 0 16 -36 37
-64 37 -7 0 -32 -44 -56 -97 -57 -128 -190 -396 -194 -392 -2 2 41 95 96 207
55 112 102 218 103 235 2 18 28 97 58 177 30 80 66 177 79 215 16 45 29 69 38
67 72 -17 67 -20 89 56 60 200 159 647 147 660 -5 4 -206 42 -227 42 -3 0 9
37 27 83 52 130 68 229 61 382 -5 118 -20 209 -36 227 -3 4 -85 8 -181 9
l-175 2 -6 -74 -5 -74 -2 78 -2 77 -132 0 c-114 0 -1233 16 -1610 23 l-127 2
-6 -85z m1872 -222 c-2 -18 -4 -4 -4 32 0 36 2 50 4 33 2 -18 2 -48 0 -65z
m-10 -110 c-2 -13 -4 -3 -4 22 0 25 2 35 4 23 2 -13 2 -33 0 -45z m-10 -90
c-2 -13 -4 -5 -4 17 -1 22 1 32 4 23 2 -10 2 -28 0 -40z m-10 -85 c-3 -10 -5
-2 -5 17 0 19 2 27 5 18 2 -10 2 -26 0 -35z m-10 -70 c-3 -10 -5 -2 -5 17 0
19 2 27 5 18 2 -10 2 -26 0 -35z m57 -854 c-50 -143 -113 -302 -125 -314 -6
-5 -1 15 11 45 49 122 88 229 110 295 25 77 30 88 36 82 2 -2 -12 -51 -32
-108z m-1089 -701 c-84 -128 -178 -257 -187 -258 -5 0 18 35 50 78 31 42 88
125 126 184 39 59 72 106 74 103 2 -2 -26 -50 -63 -107z m5 -1322 c0 -2 -18
-15 -40 -30 -22 -14 -40 -24 -40 -22 0 5 71 56 77 56 2 0 3 -2 3 -4z m70 -9
c0 -1 -37 -38 -82 -82 l-83 -80 80 83 c74 76 85 87 85 79z m-160 -51 c0 -2 -8
-10 -17 -17 -16 -13 -17 -12 -4 4 13 16 21 21 21 13z m-40 -29 c0 -2 -10 -12
-22 -23 l-23 -19 19 23 c18 21 26 27 26 19z m-60 -50 c0 -2 -12 -14 -27 -28
l-28 -24 24 28 c23 25 31 32 31 24z m90 -30 c0 -2 -19 -21 -42 -42 l-43 -40
40 43 c36 39 45 47 45 39z m-94 -86 c-4 -5 -30 -28 -59 -51 l-52 -42 55 51
c55 51 66 59 56 42z m-116 -94 c0 -2 -10 -12 -22 -23 l-23 -19 19 23 c18 21
26 27 26 19z m-50 -40 c0 -2 -10 -12 -22 -23 l-23 -19 19 23 c18 21 26 27 26
19z m-4490 -47 c18 -12 2 -12 -25 0 -13 6 -15 9 -5 9 8 0 22 -4 30 -9z m195
-60 c72 -21 123 -39 115 -39 -18 -1 -282 78 -290 86 -6 7 15 2 175 -47z m-5
-511 c18 -11 -34 -1 -65 13 -13 5 -9 6 15 2 19 -4 42 -10 50 -15z m2467 -32
c-7 -19 -469 -128 -483 -114 -3 2 35 12 83 21 49 9 154 33 236 52 132 32 147
38 147 57 0 16 3 18 11 10 7 -7 9 -18 6 -26z m226 16 c-7 -2 -19 -2 -25 0 -7
3 -2 5 12 5 14 0 19 -2 13 -5z m-46 -9 c-3 -3 -12 -4 -19 -1 -8 3 -5 6 6 6 11
1 17 -2 13 -5z m100 0 c-3 -3 -12 -4 -19 -1 -8 3 -5 6 6 6 11 1 17 -2 13 -5z
m-137 -8 c0 -2 -7 -7 -16 -10 -8 -3 -12 -2 -9 4 6 10 25 14 25 6z m-40 -19 c0
-2 -10 -12 -22 -23 l-23 -19 19 23 c18 21 26 27 26 19z m-1800 -27 l85 -9
-100 5 c-56 2 -114 9 -130 14 -25 8 -23 8 15 4 25 -3 83 -9 130 -14z m253 -17
c-29 -2 -78 -2 -110 0 -32 2 -8 3 52 3 61 0 87 -1 58 -3z m184 -10 c-20 -2
-52 -2 -70 0 -17 2 0 4 38 4 39 0 53 -2 32 -4z m-1200 -79 c-3 -3 -12 -4 -19
-1 -8 3 -5 6 6 6 11 1 17 -2 13 -5z m40 -10 c-3 -3 -12 -4 -19 -1 -8 3 -5 6 6
6 11 1 17 -2 13 -5z m40 -10 c-3 -3 -12 -4 -19 -1 -8 3 -5 6 6 6 11 1 17 -2
13 -5z m50 -10 c-3 -3 -12 -4 -19 -1 -8 3 -5 6 6 6 11 1 17 -2 13 -5z m46 -11
c-7 -2 -19 -2 -25 0 -7 3 -2 5 12 5 14 0 19 -2 13 -5z m50 -10 c-7 -2 -19 -2
-25 0 -7 3 -2 5 12 5 14 0 19 -2 13 -5z m50 -10 c-7 -2 -19 -2 -25 0 -7 3 -2
5 12 5 14 0 19 -2 13 -5z m60 -10 c-7 -2 -19 -2 -25 0 -7 3 -2 5 12 5 14 0 19
-2 13 -5z m65 -10 c-10 -2 -26 -2 -35 0 -10 3 -2 5 17 5 19 0 27 -2 18 -5z
m65 -10 c-7 -2 -21 -2 -30 0 -10 3 -4 5 12 5 17 0 24 -2 18 -5z m65 -10 c-10
-2 -26 -2 -35 0 -10 3 -2 5 17 5 19 0 27 -2 18 -5z m2140 -50 c-10 -2 -28 -2
-40 0 -13 2 -5 4 17 4 22 1 32 -1 23 -4z"/>
<path d="M760 5635 c0 -22 -3 -50 -6 -62 -6 -22 -5 -22 27 -12 47 16 58 28 32
35 -13 4 -28 21 -37 42 l-15 37 -1 -40z"/>
<path d="M640 5596 c0 -4 5 -17 12 -29 6 -12 11 -36 10 -54 l-1 -33 34 27 c39
31 44 43 18 43 -9 0 -30 12 -45 27 -15 15 -28 23 -28 19z"/>
<path d="M558 5477 c12 -13 27 -39 34 -59 l13 -36 27 44 27 44 -32 0 c-18 0
-41 7 -51 15 -30 23 -42 18 -18 -8z"/>
<path d="M10970 5293 c-29 -154 -83 -391 -115 -502 -20 -69 -34 -130 -32 -136
4 -9 156 -59 162 -53 7 6 85 302 109 410 34 152 60 298 54 303 -3 3 -31 10
-64 15 -32 6 -69 13 -81 15 -19 5 -23 -1 -33 -52z"/>
<path d="M11160 5276 c0 -3 -14 -73 -31 -156 -17 -84 -28 -154 -25 -157 11
-11 202 -52 243 -53 84 0 153 104 139 209 -13 92 -44 114 -197 141 -124 22
-129 22 -129 16z"/>
<path d="M11495 5091 c0 -67 -4 -83 -27 -118 l-27 -40 130 26 c122 26 130 26
145 10 17 -19 35 -19 55 -2 11 8 41 6 119 -8 143 -26 161 -19 25 10 -81 18
-116 30 -133 47 -17 18 -29 22 -51 18 -24 -5 -45 5 -123 58 -51 36 -97 67
-103 70 -6 4 -10 -23 -10 -71z m262 -113 c-3 -8 -6 -5 -6 6 -1 11 2 17 5 13 3
-3 4 -12 1 -19z"/>
<path d="M684 4927 c0 -23 -3 -53 -8 -67 l-8 -25 29 28 c16 15 34 27 40 27 27
0 20 20 -16 49 l-38 31 1 -43z"/>
<path d="M11081 4903 c-5 -21 -22 -83 -36 -138 -40 -148 -47 -133 80 -171 131
-40 152 -41 196 -11 96 65 117 207 42 279 -21 19 -56 33 -136 52 -60 14 -115
26 -122 26 -8 0 -19 -17 -24 -37z"/>
<path d="M12038 4933 c7 -3 16 -2 19 1 4 3 -2 6 -13 5 -11 0 -14 -3 -6 -6z"/>
<path d="M784 4872 c9 -17 16 -46 17 -64 l1 -33 14 33 c8 18 21 35 29 38 23 9
18 21 -12 32 -16 5 -36 13 -47 17 -17 8 -17 6 -2 -23z"/>
<path d="M880 4860 c0 -5 7 -13 15 -17 8 -5 21 -29 29 -53 l14 -45 1 41 c1 24
7 47 16 54 26 21 17 30 -30 30 -25 0 -45 -4 -45 -10z"/>
<path d="M11418 4760 c5 -59 -11 -110 -46 -152 l-26 -31 34 6 c19 3 79 11 132
18 84 11 100 10 115 -2 19 -16 38 -18 64 -5 9 4 69 -6 139 -24 67 -17 124 -29
126 -27 2 2 -54 21 -125 41 -107 31 -130 42 -135 59 -5 19 -8 20 -16 7 -8 -13
-10 -13 -10 2 0 14 -5 16 -22 9 -19 -7 -40 5 -124 70 -56 44 -104 79 -106 79
-1 0 -1 -22 0 -50z"/>
<path d="M10715 4618 c-18 -48 -45 -132 -45 -139 0 -5 82 -39 96 -39 2 0 11
25 20 55 10 30 22 55 28 55 6 0 49 -13 96 -29 47 -15 88 -26 93 -24 20 11 0
24 -80 48 -49 15 -93 33 -99 41 -6 8 -30 21 -54 29 -51 18 -50 18 -55 3z"/>
<path d="M1775 4435 c-102 -72 -210 -178 -235 -231 -55 -113 12 -173 180 -161
93 7 287 53 308 72 2 2 -30 72 -70 157 -41 84 -81 168 -89 186 l-15 34 -79
-57z"/>
<path d="M1472 4101 l-33 -41 52 0 c44 0 50 2 40 14 -7 8 -16 27 -19 41 l-7
26 -33 -40z"/>
<path d="M10610 4031 c-23 -53 -67 -142 -96 -197 l-53 -102 68 -36 c38 -20 76
-36 84 -36 9 0 28 11 44 23 22 19 36 23 66 19 27 -3 52 3 91 23 l53 27 72 -37
c78 -39 106 -41 106 -10 0 15 -20 30 -82 59 l-83 40 0 40 c0 42 -39 116 -61
116 -7 0 -9 12 -5 34 9 45 -19 75 -100 109 l-60 25 -44 -97z"/>
<path d="M9539 3848 c-18 -29 -68 -104 -112 -165 -43 -62 -76 -117 -73 -122
12 -18 223 -100 302 -117 94 -20 145 -14 180 21 33 33 31 78 -6 152 -43 86
-217 283 -251 283 -4 0 -22 -24 -40 -52z"/>
<path d="M11275 3669 c-44 -5 -103 -11 -132 -14 l-52 -6 -75 -144 c-80 -153
-176 -317 -263 -453 -29 -45 -53 -90 -53 -100 0 -9 28 -79 63 -154 45 -99 67
-138 79 -138 20 0 134 165 275 400 103 172 299 551 305 590 3 22 -1 25 -32 26
-19 1 -71 -2 -115 -7z"/>
<path d="M323 3644 c-10 -26 98 -245 255 -519 102 -177 297 -472 322 -485 18
-10 22 -7 35 23 8 19 37 83 65 142 27 59 50 114 50 123 0 8 -41 79 -90 158
-82 130 -202 340 -276 484 l-29 55 -120 12 c-66 6 -139 14 -163 16 -32 3 -45
1 -49 -9z"/>
<path d="M11337 3439 c-87 -176 -222 -412 -337 -587 -49 -75 -87 -138 -85
-140 12 -12 91 43 156 107 177 177 336 487 347 679 2 45 1 82 -4 81 -5 0 -40
-63 -77 -140z"/>
<path d="M325 3529 c-20 -104 71 -349 203 -549 91 -137 249 -290 299 -290 8 0
-6 30 -35 73 -133 197 -262 416 -383 650 -75 147 -78 150 -84 116z"/>
<path d="M9870 3503 c0 -6 -11 -25 -25 -41 l-25 -30 47 -4 c27 -3 49 -4 51 -3
1 1 -9 22 -23 46 -13 24 -25 39 -25 32z"/>
<path d="M1380 3399 c-80 -52 -83 -56 -77 -102 4 -32 1 -48 -16 -71 -16 -23
-22 -45 -22 -86 l0 -55 -70 -49 c-78 -55 -85 -63 -78 -83 9 -23 38 -14 109 36
l69 49 35 -19 c36 -20 90 -24 125 -10 14 6 28 2 44 -10 13 -11 33 -19 43 -19
24 0 149 90 142 101 -3 5 -41 59 -85 121 -44 62 -96 139 -115 171 -20 31 -41
57 -47 56 -7 0 -32 -14 -57 -30z"/>
<path d="M11325 3161 c-9 -22 -41 -77 -71 -123 -37 -58 -49 -84 -39 -86 18 -4
65 21 89 47 11 12 23 21 27 21 5 0 59 -25 120 -55 62 -30 114 -53 116 -52 1 2
-47 36 -107 76 -102 69 -108 75 -99 98 16 41 9 113 -11 113 -4 0 -15 -18 -25
-39z"/>
<path d="M384 3154 c-4 -14 -4 -47 0 -73 l6 -47 -100 -69 c-55 -38 -99 -70
-97 -71 2 -2 52 21 113 50 l109 53 33 -28 c31 -27 78 -47 88 -37 2 3 -22 49
-55 102 -32 53 -62 108 -65 122 -8 31 -24 31 -32 -2z"/>
<path d="M9166 3050 c-25 -27 -46 -53 -46 -58 0 -16 187 -192 204 -192 29 0
115 -31 127 -46 6 -8 16 -14 22 -14 6 0 20 -8 31 -17 21 -18 21 -18 4 3 -10
11 -18 26 -18 32 0 6 -9 16 -20 22 -10 6 -22 26 -26 45 -3 19 -10 35 -15 35
-5 0 -9 12 -9 27 0 21 -21 47 -97 120 -54 51 -101 93 -104 93 -4 0 -27 -22
-53 -50z m248 -215 c-4 -9 -16 -21 -28 -27 -19 -10 -18 -8 4 15 29 31 31 32
24 12z"/>
<path d="M1947 2859 c-20 -17 -37 -34 -37 -38 0 -4 16 -27 36 -50 20 -23 33
-46 28 -50 -5 -5 -36 -32 -69 -61 -66 -59 -80 -76 -66 -84 5 -3 39 21 75 54
36 33 81 66 99 74 17 7 43 25 56 40 l24 26 -48 52 c-27 29 -51 56 -55 60 -3 4
-22 -6 -43 -23z"/>
<path d="M1993 2610 l-62 -59 137 -138 c145 -146 390 -366 402 -361 4 2 31 31
60 66 44 53 51 65 39 76 -8 7 -66 58 -129 113 -63 56 -173 160 -245 232 -71
72 -132 131 -135 131 -3 -1 -33 -27 -67 -60z"/>
<path d="M9540 2625 c-14 -8 -38 -14 -53 -15 l-28 0 23 -39 c22 -39 38 -45 38
-13 0 9 12 28 27 44 31 33 28 42 -7 23z"/>
<path d="M1859 2436 c-100 -96 -109 -110 -109 -167 0 -92 89 -179 181 -179 57
1 70 9 167 111 l81 85 -117 116 -117 117 -86 -83z"/>
<path d="M8508 2478 l-57 -41 72 -106 c84 -122 108 -139 162 -117 19 8 35 13
35 10 0 -3 -14 -11 -32 -18 l-32 -14 32 -16 c17 -9 48 -32 67 -52 19 -19 35
-30 35 -25 0 5 -4 13 -10 16 -5 3 -10 15 -10 26 0 10 -4 19 -9 19 -6 0 -13 20
-17 45 -3 25 -9 43 -13 41 -3 -2 -5 12 -3 32 2 33 -7 50 -73 140 -42 56 -80
102 -83 101 -4 0 -33 -19 -64 -41z"/>
<path d="M9513 2504 c3 -10 8 -32 11 -47 l7 -28 27 28 c15 15 36 33 47 40 18
10 15 12 -20 10 -22 0 -48 3 -59 8 -15 6 -17 5 -13 -11z"/>
<path d="M9522 2363 c-6 -26 -9 -49 -8 -51 2 -1 15 7 29 18 14 11 40 23 57 26
34 7 23 24 -16 24 -12 0 -24 7 -28 15 -10 28 -24 15 -34 -32z"/>
<path d="M3727 2383 c-3 -4 -17 -48 -31 -98 -29 -97 -43 -229 -32 -289 19
-100 108 -100 224 0 41 35 182 208 182 222 0 6 -294 156 -330 170 -5 2 -10 -1
-13 -5z"/>
<path d="M9487 2255 c-19 -40 -86 -116 -130 -147 -17 -12 -54 -31 -84 -43
l-54 -22 63 -27 c35 -14 97 -38 138 -54 73 -27 75 -29 84 -70 5 -23 13 -42 17
-42 5 0 39 29 76 64 l68 65 -42 7 c-26 4 -44 13 -47 23 -3 9 -19 76 -36 149
-18 72 -33 132 -34 132 -1 0 -10 -16 -19 -35z"/>
<path d="M2105 2188 c-42 -46 -83 -98 -91 -116 -48 -110 94 -254 218 -221 29
7 53 29 118 106 44 54 79 100 78 104 -4 8 -228 203 -238 207 -4 2 -42 -34 -85
-80z"/>
<path d="M1713 2199 c-11 -24 -32 -77 -48 -117 -21 -53 -36 -77 -52 -83 -29
-11 -29 -20 3 -49 21 -21 27 -22 34 -10 5 8 10 20 10 25 0 6 37 24 83 42 45
18 100 39 121 48 l39 17 -39 18 c-47 21 -98 73 -117 119 l-15 34 -19 -44z"/>
<path d="M8910 2108 c0 -13 -9 -34 -20 -48 -29 -37 -24 -44 13 -16 17 13 43
26 56 28 24 3 24 4 -12 31 l-37 28 0 -23z"/>
<path d="M8990 2063 c0 -5 4 -14 9 -22 6 -9 4 -30 -5 -55 l-14 -41 33 36 c17
20 41 40 52 44 17 6 15 10 -20 25 -45 21 -55 23 -55 13z"/>
<path d="M9100 2027 c0 -7 4 -17 9 -22 5 -6 11 -26 13 -45 l4 -35 13 30 c7 17
24 42 39 58 l26 27 -52 0 c-36 0 -52 -4 -52 -13z"/>
<path d="M1573 1959 c5 -21 0 -32 -29 -60 -20 -19 -68 -70 -107 -114 -71 -79
-71 -79 42 28 86 82 118 106 132 102 28 -9 23 7 -12 41 l-32 29 6 -26z"/>
<path d="M1988 1974 c-3 -5 -22 -60 -42 -122 -32 -95 -41 -113 -61 -118 -24
-6 -41 -36 -31 -53 4 -5 -33 -56 -81 -113 -49 -57 -95 -112 -103 -123 -16 -22
117 117 170 178 23 27 38 36 51 32 22 -7 25 4 7 25 -11 13 -11 13 2 3 20 -19
30 -16 30 8 0 16 24 32 122 78 l122 58 -35 12 c-47 15 -105 65 -128 108 -10
20 -20 32 -23 27z"/>
<path d="M9600 1902 c-36 -31 -66 -59 -68 -64 -5 -11 21 -10 54 2 26 10 32 7
91 -52 35 -34 63 -59 63 -55 0 4 -23 39 -50 77 -49 68 -50 71 -34 95 8 13 14
30 12 38 -2 9 -25 -5 -68 -41z"/>
<path d="M3670 1896 l0 -47 36 27 c35 27 36 28 13 36 -13 5 -29 14 -36 20 -10
8 -13 1 -13 -36z"/>
<path d="M4011 1688 c-5 -13 -34 -85 -65 -161 -40 -98 -54 -142 -47 -151 7 -8
-5 -50 -39 -141 -27 -71 -48 -130 -46 -132 1 -2 27 54 57 123 34 81 59 129 70
131 12 3 36 50 69 134 l52 128 -17 46 c-10 25 -19 45 -22 45 -2 0 -7 -10 -12
-22z"/>
<path d="M7080 1423 c-30 -8 -126 -30 -213 -47 -86 -18 -159 -35 -161 -37 -9
-10 25 -163 40 -180 10 -11 30 -19 45 -19 21 0 32 -7 43 -27 21 -40 59 -73
103 -88 l38 -13 30 -139 c27 -124 33 -138 53 -141 13 -2 25 3 28 12 3 8 -8 75
-24 147 l-30 132 33 31 c31 30 55 86 55 131 0 11 10 25 22 30 42 19 48 48 26
133 -11 42 -23 80 -26 83 -4 3 -32 0 -62 -8z"/>
<path d="M6540 1259 c-144 -21 -344 -39 -430 -39 -90 0 -90 0 -90 -90 0 -44 3
-81 8 -83 21 -12 549 35 650 58 14 4 22 13 22 27 0 36 -22 148 -29 147 -3 -1
-62 -10 -131 -20z"/>
<path d="M4164 1170 c3 -25 13 -110 22 -188 l16 -144 -37 -38 -37 -38 56 -21
c31 -11 75 -24 97 -27 l41 -7 -7 34 c-3 19 -8 41 -11 49 -2 8 46 75 111 153
63 75 116 141 119 145 2 4 -26 6 -64 4 -105 -6 -210 30 -283 97 l-29 26 6 -45z"/>
<path d="M6505 1069 c-71 -9 -130 -18 -130 -18 0 -1 4 -55 11 -121 12 -128 24
-159 72 -184 69 -35 145 -27 202 21 51 42 54 63 34 201 -17 111 -20 122 -39
121 -11 -1 -78 -10 -150 -20z"/>
<path d="M6230 1043 c-25 -1 -74 -6 -109 -9 l-63 -6 3 -121 c4 -107 7 -126 26
-153 25 -35 87 -64 136 -64 49 1 114 35 137 72 19 29 21 43 15 113 -3 44 -8
101 -12 128 l-6 47 -41 -2 c-22 -1 -61 -3 -86 -5z"/>
<path d="M6630 733 c-47 -24 -118 -30 -151 -13 -10 6 -19 7 -19 3 0 -4 27 -55
59 -113 45 -80 57 -109 50 -122 -10 -18 4 -58 20 -58 4 0 16 -57 26 -127 23
-156 30 -149 12 10 -11 97 -11 119 0 129 17 14 17 37 -1 57 -11 14 -8 34 20
136 18 66 32 120 31 120 -1 0 -22 -10 -47 -22z"/>
<path d="M4130 739 c0 -7 12 -25 27 -41 l27 -28 -22 -102 c-12 -56 -20 -103
-18 -105 1 -2 20 41 41 95 38 98 39 99 79 108 22 5 41 14 43 19 1 6 -30 19
-70 31 -39 11 -80 24 -89 29 -12 5 -18 3 -18 -6z"/>
<path d="M6300 698 c-39 -20 -105 -23 -146 -8 -15 6 -28 9 -30 7 -2 -2 20 -53
49 -113 47 -96 52 -112 43 -137 -9 -24 -7 -31 7 -42 14 -10 20 -38 28 -131 14
-167 19 -172 13 -13 -5 115 -3 137 10 148 20 17 20 30 2 50 -13 14 -9 31 25
130 22 63 38 117 37 120 -2 4 -19 -2 -38 -11z"/>
</g>
</svg>
